0
SECTION
2
HEADER
9
$ANGDIR
70
1
9
$AUNITS
70
0
9
$PROJECTNAME
1
PCBPayloadV6
9
$TDCREATE
40
2458809.88847936
9
$INSUNITS
70
4
0
ENDSEC
0
SECTION
2
ENTITIES
0
POLYLINE
66
1
8
1_copper
10
0.0
20
0.0
30
0.0
70
1
0
VERTEX
8
0
10
-25.783678125
20
77.55854375
30
0
0
VERTEX
8
0
10
-25.993550000000003
20
79.051865625
30
0
0
VERTEX
8
0
10
-27.486871875000002
20
78.84199375
30
0
0
VERTEX
8
0
10
-27.277
20
77.34867187500001
30
0
0
SEQEND
0
POLYLINE
66
1
8
1_copper
10
0.0
20
0.0
30
0.0
70
1
0
VERTEX
8
0
10
-5.324853125000001
20
60.177765625000006
30
0
42
0.916331393922359
0
VERTEX
8
0
10
-5.402184375
20
61.949000000000005
30
0
0
VERTEX
8
0
10
-7.257815625
20
61.949000000000005
30
0
42
0.9572906161637668
0
VERTEX
8
0
10
-7.257815625
20
60.171
30
0
0
VERTEX
8
0
10
-5.402184375
20
60.171
30
0
0
SEQEND
0
POLYLINE
66
1
8
1_copper
10
0.0
20
0.0
30
0.0
70
1
0
VERTEX
8
0
10
-5.324853125000001
20
57.637765625
30
0
42
0.916331393922359
0
VERTEX
8
0
10
-5.402184375
20
59.409000000000006
30
0
0
VERTEX
8
0
10
-7.257815625
20
59.409000000000006
30
0
42
0.9572906161637668
0
VERTEX
8
0
10
-7.257815625
20
57.631
30
0
0
VERTEX
8
0
10
-5.402184375
20
57.631
30
0
0
SEQEND
0
POLYLINE
66
1
8
1_copper
10
0.0
20
0.0
30
0.0
70
1
0
VERTEX
8
0
10
10.635681250000001
20
57.11565
30
0
42
0.9063476327778771
0
VERTEX
8
0
10
10.5661375
20
58.531200000000005
30
0
0
VERTEX
8
0
10
9.0738625
20
58.531200000000005
30
0
42
0.9520811731250587
0
VERTEX
8
0
10
9.0738625
20
57.1088
30
0
0
VERTEX
8
0
10
10.5661375
20
57.1088
30
0
0
SEQEND
0
POLYLINE
66
1
8
1_copper
10
0.0
20
0.0
30
0.0
70
1
0
VERTEX
8
0
10
-5.324853125000001
20
52.557765625
30
0
42
0.916331393922359
0
VERTEX
8
0
10
-5.402184375
20
54.329
30
0
0
VERTEX
8
0
10
-7.257815625
20
54.329
30
0
42
0.9572906161637668
0
VERTEX
8
0
10
-7.257815625
20
52.551
30
0
0
VERTEX
8
0
10
-5.402184375
20
52.551
30
0
0
SEQEND
0
POLYLINE
66
1
8
1_copper
10
0.0
20
0.0
30
0.0
70
1
0
VERTEX
8
0
10
-18.319403125
20
42.698109375
30
0
0
VERTEX
8
0
10
-18.529275000000002
20
44.19143125
30
0
0
VERTEX
8
0
10
-20.022596875
20
43.981559375
30
0
0
VERTEX
8
0
10
-19.812725
20
42.488237500000004
30
0
0
SEQEND
0
POLYLINE
66
1
8
16_copper
10
0.0
20
0.0
30
0.0
70
1
0
VERTEX
8
0
10
-25.783678125
20
77.55854375
30
0
0
VERTEX
8
0
10
-25.993550000000003
20
79.051865625
30
0
0
VERTEX
8
0
10
-27.486871875000002
20
78.84199375
30
0
0
VERTEX
8
0
10
-27.277
20
77.34867187500001
30
0
0
SEQEND
0
POLYLINE
66
1
8
16_copper
10
0.0
20
0.0
30
0.0
70
1
0
VERTEX
8
0
10
-5.324853125000001
20
60.177765625000006
30
0
42
0.916331393922359
0
VERTEX
8
0
10
-5.402184375
20
61.949000000000005
30
0
0
VERTEX
8
0
10
-7.257815625
20
61.949000000000005
30
0
42
0.9572906161637668
0
VERTEX
8
0
10
-7.257815625
20
60.171
30
0
0
VERTEX
8
0
10
-5.402184375
20
60.171
30
0
0
SEQEND
0
POLYLINE
66
1
8
16_copper
10
0.0
20
0.0
30
0.0
70
1
0
VERTEX
8
0
10
-5.324853125000001
20
57.637765625
30
0
42
0.916331393922359
0
VERTEX
8
0
10
-5.402184375
20
59.409000000000006
30
0
0
VERTEX
8
0
10
-7.257815625
20
59.409000000000006
30
0
42
0.9572906161637668
0
VERTEX
8
0
10
-7.257815625
20
57.631
30
0
0
VERTEX
8
0
10
-5.402184375
20
57.631
30
0
0
SEQEND
0
POLYLINE
66
1
8
16_copper
10
0.0
20
0.0
30
0.0
70
1
0
VERTEX
8
0
10
10.635681250000001
20
57.11565
30
0
42
0.9063476327778771
0
VERTEX
8
0
10
10.5661375
20
58.531200000000005
30
0
0
VERTEX
8
0
10
9.0738625
20
58.531200000000005
30
0
42
0.9520811731250587
0
VERTEX
8
0
10
9.0738625
20
57.1088
30
0
0
VERTEX
8
0
10
10.5661375
20
57.1088
30
0
0
SEQEND
0
POLYLINE
66
1
8
16_copper
10
0.0
20
0.0
30
0.0
70
1
0
VERTEX
8
0
10
-5.324853125000001
20
52.557765625
30
0
42
0.916331393922359
0
VERTEX
8
0
10
-5.402184375
20
54.329
30
0
0
VERTEX
8
0
10
-7.257815625
20
54.329
30
0
42
0.9572906161637668
0
VERTEX
8
0
10
-7.257815625
20
52.551
30
0
0
VERTEX
8
0
10
-5.402184375
20
52.551
30
0
0
SEQEND
0
POLYLINE
66
1
8
16_copper
10
0.0
20
0.0
30
0.0
70
1
0
VERTEX
8
0
10
-18.319403125
20
42.698109375
30
0
0
VERTEX
8
0
10
-18.529275000000002
20
44.19143125
30
0
0
VERTEX
8
0
10
-20.022596875
20
43.981559375
30
0
0
VERTEX
8
0
10
-19.812725
20
42.488237500000004
30
0
0
SEQEND
0
POLYLINE
66
1
8
1_copper
10
0.0
20
0.0
30
0.0
70
1
0
VERTEX
8
0
10
-3.1496
20
118.23645625
30
0
0
VERTEX
8
0
10
-3.1496
20
118.78354375
30
0
0
VERTEX
8
0
10
-3.4925
20
119.12644375
30
0
0
VERTEX
8
0
10
-3.4925
20
123.03835000000001
30
0
0
VERTEX
8
0
10
1.3712250000000001
20
127.90207500000001
30
0
42
0.035488638418109494
0
VERTEX
8
0
10
1.399540625
20
127.93471875
30
0
0
VERTEX
8
0
10
1.513840625
20
128.08711875
30
0
42
0.09155576898452168
0
VERTEX
8
0
10
1.563071875
20
128.186265625
30
0
0
VERTEX
8
0
10
1.613871875
20
128.364065625
30
0
42
0.06968704180085691
0
VERTEX
8
0
10
1.6256000000000002
20
128.4478
30
0
0
VERTEX
8
0
10
1.6256000000000002
20
134.04165625000002
30
0
0
VERTEX
8
0
10
1.9304000000000001
20
134.34645625000002
30
0
0
VERTEX
8
0
10
1.9304000000000001
20
134.73505
30
0
0
VERTEX
8
0
10
6.839946875000001
20
139.64459687500002
30
0
42
0.10192690551865494
0
VERTEX
8
0
10
6.907581250000001
20
139.747321875
30
0
0
VERTEX
8
0
10
7.150384375000001
20
140.356828125
30
0
42
0.24375081422729775
0
VERTEX
8
0
10
7.733309375
20
140.7476375
30
0
0
VERTEX
8
0
10
8.43169375
20
142.1859125
30
0
42
0.24478605089026842
0
VERTEX
8
0
10
8.37681875
20
142.88825937500002
30
0
0
VERTEX
8
0
10
8.660456250000001
20
143.06658125
30
0
0
VERTEX
8
0
10
23.840846875
20
135.76575937500002
30
0
0
VERTEX
8
0
10
23.840846875
20
134.3709875
30
0
42
0.07195414781973451
0
VERTEX
8
0
10
23.709375
20
134.196575
30
0
0
VERTEX
8
0
10
23.010990625
20
132.75830000000002
30
0
42
0.952078716344195
0
VERTEX
8
0
10
24.38191875
20
132.09261875
30
0
0
VERTEX
8
0
10
25.080303125
20
133.53089375000002
30
0
42
0.5077232248819611
0
VERTEX
8
0
10
24.450446875
20
134.589128125
30
0
0
VERTEX
8
0
10
24.450446875
20
135.9573875
30
0
42
0.2882349160093517
0
VERTEX
8
0
10
24.277753125
20
136.232071875
30
0
0
VERTEX
8
0
10
8.772903125000001
20
143.68894062500001
30
0
42
0.25788423632443536
0
VERTEX
8
0
10
8.478565625
20
143.672296875
30
0
0
VERTEX
8
0
10
7.797925
20
143.244378125
30
0
42
0.29815434680571434
0
VERTEX
8
0
10
7.060765625
20
142.85159375
30
0
0
VERTEX
8
0
10
6.36238125
20
141.41331875
30
0
42
0.3262935759782095
0
VERTEX
8
0
10
6.565968750000001
20
140.537003125
30
0
0
VERTEX
8
0
10
6.364496875
20
140.031246875
30
0
0
VERTEX
8
0
10
1.5785968750000001
20
135.245346875
30
0
0
VERTEX
8
0
10
1.54354375
20
135.28040000000001
30
0
0
VERTEX
8
0
10
0.99645625
20
135.28040000000001
30
0
0
VERTEX
8
0
10
0.74245625
20
135.0264
30
0
0
VERTEX
8
0
10
-0.11245625000000001
20
135.0264
30
0
0
VERTEX
8
0
10
-0.3352
20
135.24914375
30
0
42
0.2590225946484418
0
VERTEX
8
0
10
-0.42447500000000005
20
135.535525
30
0
0
VERTEX
8
0
10
-1.5173
20
136.62835
30
0
42
0.198912367379658
0
VERTEX
8
0
10
-1.732825
20
136.717625
30
0
0
VERTEX
8
0
10
-5.871453125
20
136.717625
30
0
0
VERTEX
8
0
10
-9.482175
20
140.328346875
30
0
42
0.9999999999999999
0
VERTEX
8
0
10
-9.913225
20
139.897296875
30
0
0
VERTEX
8
0
10
-6.2132281250000005
20
136.1973
30
0
42
0.198912367379658
0
VERTEX
8
0
10
-5.997703125
20
136.108025
30
0
0
VERTEX
8
0
10
-1.859075
20
136.108025
30
0
0
VERTEX
8
0
10
-0.972496875
20
135.221446875
30
0
0
VERTEX
8
0
10
-1.3004
20
134.89354375000002
30
0
0
VERTEX
8
0
10
-1.3004
20
134.34645625000002
30
0
0
VERTEX
8
0
10
-0.9135437500000001
20
133.9596
30
0
0
VERTEX
8
0
10
-0.36645625000000004
20
133.9596
30
0
0
VERTEX
8
0
10
0.0204
20
134.34645625000002
30
0
0
VERTEX
8
0
10
0.0204
20
134.4168
30
0
0
VERTEX
8
0
10
0.6096
20
134.4168
30
0
0
VERTEX
8
0
10
0.6096
20
134.34645625000002
30
0
0
VERTEX
8
0
10
0.99645625
20
133.9596
30
0
0
VERTEX
8
0
10
1.016
20
133.9596
30
0
0
VERTEX
8
0
10
1.016
20
128.4904875
30
0
0
VERTEX
8
0
10
0.9923906250000001
20
128.40785937500002
30
0
0
VERTEX
8
0
10
0.9248437500000001
20
128.31779375
30
0
0
VERTEX
8
0
10
-3.7973000000000003
20
123.59565
30
0
0
VERTEX
8
0
10
-6.553575
20
126.35192500000001
30
0
42
0.198912367379658
0
VERTEX
8
0
10
-6.7691
20
126.44120000000001
30
0
0
VERTEX
8
0
10
-26.77973125
20
126.44120000000001
30
0
0
VERTEX
8
0
10
-27.05829375
20
128.30510625
30
0
42
0.9649223721994754
0
VERTEX
8
0
10
-30.02534375
20
127.86168125
30
0
0
VERTEX
8
0
10
-29.56608125
20
124.78866875
30
0
42
0.9649223721994754
0
VERTEX
8
0
10
-26.599031250000003
20
125.23209375
30
0
0
VERTEX
8
0
10
-26.688628125
20
125.83160000000001
30
0
0
VERTEX
8
0
10
-6.8953500000000005
20
125.83160000000001
30
0
0
VERTEX
8
0
10
-4.1021
20
123.03835000000001
30
0
0
VERTEX
8
0
10
-4.1021
20
119.15184375000001
30
0
0
VERTEX
8
0
10
-4.470400000000001
20
118.78354375
30
0
0
VERTEX
8
0
10
-4.470400000000001
20
118.23645625
30
0
0
VERTEX
8
0
10
-4.0835437500000005
20
117.84960000000001
30
0
0
VERTEX
8
0
10
-3.53645625
20
117.84960000000001
30
0
0
SEQEND
0
POLYLINE
66
1
8
16_copper
10
0.0
20
0.0
30
0.0
70
1
0
VERTEX
8
0
10
7.1311875
20
140.35418125
30
0
42
0.25048756980236014
0
VERTEX
8
0
10
7.733309375
20
140.7476375
30
0
0
VERTEX
8
0
10
8.43169375
20
142.1859125
30
0
42
0.952078716344195
0
VERTEX
8
0
10
7.060765625
20
142.85159375
30
0
0
VERTEX
8
0
10
6.36238125
20
141.41331875
30
0
0
VERTEX
8
0
10
6.336437500000001
20
141.343090625
30
0
0
VERTEX
8
0
10
6.317503125
20
141.270653125
30
0
0
VERTEX
8
0
10
6.305759375
20
141.19671250000002
30
0
0
VERTEX
8
0
10
6.30131875
20
141.12197500000002
30
0
0
VERTEX
8
0
10
6.304225000000001
20
141.0471625
30
0
0
VERTEX
8
0
10
6.31445
20
140.97299375
30
0
0
VERTEX
8
0
10
6.331896875
20
140.900184375
30
0
0
VERTEX
8
0
10
6.356396875000001
20
140.8294375
30
0
0
VERTEX
8
0
10
6.3877125
20
140.76143125000002
30
0
0
VERTEX
8
0
10
6.425540625
20
140.696821875
30
0
0
VERTEX
8
0
10
6.469521875
20
140.63623437500002
30
0
0
VERTEX
8
0
10
6.519231250000001
20
140.580246875
30
0
0
VERTEX
8
0
10
6.574187500000001
20
140.5294
30
0
0
VERTEX
8
0
10
6.6338625
20
140.48418750000002
30
0
0
VERTEX
8
0
10
6.6976812500000005
20
140.44504062500002
30
0
0
VERTEX
8
0
10
6.765031250000001
20
140.4123375
30
0
0
VERTEX
8
0
10
6.835259375000001
20
140.38639375
30
0
0
VERTEX
8
0
10
6.907696875
20
140.367459375
30
0
0
VERTEX
8
0
10
6.981637500000001
20
140.35571562500002
30
0
0
VERTEX
8
0
10
7.056375
20
140.35127500000002
30
0
0
SEQEND
0
POLYLINE
66
1
8
16_copper
10
0.0
20
0.0
30
0.0
70
1
0
VERTEX
8
0
10
1.9304000000000001
20
134.34645625000002
30
0
0
VERTEX
8
0
10
1.9304000000000001
20
134.89354375000002
30
0
0
VERTEX
8
0
10
1.54354375
20
135.28040000000001
30
0
0
VERTEX
8
0
10
0.99645625
20
135.28040000000001
30
0
0
VERTEX
8
0
10
0.6096
20
134.89354375000002
30
0
0
VERTEX
8
0
10
0.6096
20
134.34645625000002
30
0
0
VERTEX
8
0
10
0.99645625
20
133.9596
30
0
0
VERTEX
8
0
10
1.54354375
20
133.9596
30
0
0
SEQEND
0
POLYLINE
66
1
8
16_copper
10
0.0
20
0.0
30
0.0
70
1
0
VERTEX
8
0
10
0.0204
20
134.34645625000002
30
0
0
VERTEX
8
0
10
0.0204
20
134.89354375000002
30
0
0
VERTEX
8
0
10
-0.36645625000000004
20
135.28040000000001
30
0
0
VERTEX
8
0
10
-0.9135437500000001
20
135.28040000000001
30
0
0
VERTEX
8
0
10
-1.3004
20
134.89354375000002
30
0
0
VERTEX
8
0
10
-1.3004
20
134.34645625000002
30
0
0
VERTEX
8
0
10
-0.9135437500000001
20
133.9596
30
0
0
VERTEX
8
0
10
-0.36645625000000004
20
133.9596
30
0
0
SEQEND
0
POLYLINE
66
1
8
16_copper
10
0.0
20
0.0
30
0.0
70
1
0
VERTEX
8
0
10
23.779796875000002
20
131.6991625
30
0
42
0.25048756980236014
0
VERTEX
8
0
10
24.38191875
20
132.09261875
30
0
0
VERTEX
8
0
10
25.080303125
20
133.53089375000002
30
0
42
0.952078716344195
0
VERTEX
8
0
10
23.709375
20
134.196575
30
0
0
VERTEX
8
0
10
23.010990625
20
132.75830000000002
30
0
0
VERTEX
8
0
10
22.985046875000002
20
132.68807187500002
30
0
0
VERTEX
8
0
10
22.9661125
20
132.615634375
30
0
0
VERTEX
8
0
10
22.95436875
20
132.54169375
30
0
0
VERTEX
8
0
10
22.949928125
20
132.46695625
30
0
0
VERTEX
8
0
10
22.952834375000002
20
132.39214375
30
0
0
VERTEX
8
0
10
22.963059375
20
132.31797500000002
30
0
0
VERTEX
8
0
10
22.98050625
20
132.245165625
30
0
0
VERTEX
8
0
10
23.00500625
20
132.17441875
30
0
0
VERTEX
8
0
10
23.036321875000002
20
132.1064125
30
0
0
VERTEX
8
0
10
23.07415
20
132.041803125
30
0
0
VERTEX
8
0
10
23.11813125
20
131.981215625
30
0
0
VERTEX
8
0
10
23.167840625
20
131.92522812500002
30
0
0
VERTEX
8
0
10
23.222796875
20
131.87438125
30
0
0
VERTEX
8
0
10
23.282471875000002
20
131.82916875
30
0
0
VERTEX
8
0
10
23.346290625
20
131.790021875
30
0
0
VERTEX
8
0
10
23.413640625000003
20
131.75731875
30
0
0
VERTEX
8
0
10
23.483868750000003
20
131.731375
30
0
0
VERTEX
8
0
10
23.556306250000002
20
131.712440625
30
0
0
VERTEX
8
0
10
23.630246875
20
131.700696875
30
0
0
VERTEX
8
0
10
23.704984375000002
20
131.69625625
30
0
0
SEQEND
0
POLYLINE
66
1
8
16_copper
10
0.0
20
0.0
30
0.0
70
1
0
VERTEX
8
0
10
-28.028575
20
123.5636875
30
0
42
0.4352840653541641
0
VERTEX
8
0
10
-26.599031250000003
20
125.23209375
30
0
0
VERTEX
8
0
10
-27.05829375
20
128.30510625
30
0
42
0.9649223721994754
0
VERTEX
8
0
10
-30.02534375
20
127.86168125
30
0
0
VERTEX
8
0
10
-29.56608125
20
124.78866875
30
0
0
VERTEX
8
0
10
-29.542725
20
124.6841
30
0
0
VERTEX
8
0
10
-29.51196875
20
124.581465625
30
0
0
VERTEX
8
0
10
-29.47396875
20
124.481284375
30
0
0
VERTEX
8
0
10
-29.428915625000002
20
124.38406875000001
30
0
0
VERTEX
8
0
10
-29.377046875
20
124.290315625
30
0
0
VERTEX
8
0
10
-29.318618750000002
20
124.20050312500001
30
0
0
VERTEX
8
0
10
-29.253934375
20
124.1150875
30
0
0
VERTEX
8
0
10
-29.183321875
20
124.034503125
30
0
0
VERTEX
8
0
10
-29.1071375
20
123.9591625
30
0
0
VERTEX
8
0
10
-29.025775000000003
20
123.889446875
30
0
0
VERTEX
8
0
10
-28.939646875
20
123.825715625
30
0
0
VERTEX
8
0
10
-28.849187500000003
20
123.768290625
30
0
0
VERTEX
8
0
10
-28.754865625
20
123.71746250000001
30
0
0
VERTEX
8
0
10
-28.65715625
20
123.67349375
30
0
0
VERTEX
8
0
10
-28.556562500000002
20
123.636609375
30
0
0
VERTEX
8
0
10
-28.453590625
20
123.60699375
30
0
0
VERTEX
8
0
10
-28.34876875
20
123.5848
30
0
0
VERTEX
8
0
10
-28.242631250000002
20
123.57014062500001
30
0
0
VERTEX
8
0
10
-28.135718750000002
20
123.563090625
30
0
0
SEQEND
0
POLYLINE
66
1
8
16_copper
10
0.0
20
0.0
30
0.0
70
1
0
VERTEX
8
0
10
-3.1496
20
118.23645625
30
0
0
VERTEX
8
0
10
-3.1496
20
118.78354375
30
0
0
VERTEX
8
0
10
-3.53645625
20
119.1704
30
0
0
VERTEX
8
0
10
-4.0835437500000005
20
119.1704
30
0
0
VERTEX
8
0
10
-4.470400000000001
20
118.78354375
30
0
0
VERTEX
8
0
10
-4.470400000000001
20
118.23645625
30
0
0
VERTEX
8
0
10
-4.0835437500000005
20
117.84960000000001
30
0
0
VERTEX
8
0
10
-3.53645625
20
117.84960000000001
30
0
0
SEQEND
0
POLYLINE
66
1
8
1_copper
10
0.0
20
0.0
30
0.0
70
1
0
VERTEX
8
0
10
3.4785906250000003
20
129.0701
30
0
0
VERTEX
8
0
10
3.0099
20
128.601409375
30
0
0
VERTEX
8
0
10
3.0099
20
127.938590625
30
0
0
VERTEX
8
0
10
3.0160218750000003
20
127.932471875
30
0
0
VERTEX
8
0
10
2.426075
20
127.34252500000001
30
0
42
0.198912367379658
0
VERTEX
8
0
10
2.3368
20
127.12700000000001
30
0
0
VERTEX
8
0
10
2.3368
20
122.611828125
30
0
0
VERTEX
8
0
10
-1.067021875
20
121.33539375000001
30
0
42
0.9999999999999999
0
VERTEX
8
0
10
-0.852978125
20
120.76460625
30
0
0
VERTEX
8
0
10
2.748621875
20
122.11520625
30
0
42
0.31263407915876484
0
VERTEX
8
0
10
2.9464
20
122.40060000000001
30
0
0
VERTEX
8
0
10
2.9464
20
127.00075000000001
30
0
0
VERTEX
8
0
10
3.4470718750000002
20
127.501421875
30
0
0
VERTEX
8
0
10
3.4785906250000003
20
127.46990000000001
30
0
0
VERTEX
8
0
10
4.141409375
20
127.46990000000001
30
0
0
VERTEX
8
0
10
4.6101
20
127.938590625
30
0
0
VERTEX
8
0
10
4.6101
20
128.601409375
30
0
0
VERTEX
8
0
10
4.2672
20
128.94430937500002
30
0
0
VERTEX
8
0
10
4.2672
20
131.16400000000002
30
0
0
VERTEX
8
0
10
9.746409375
20
133.62964687500002
30
0
0
VERTEX
8
0
10
9.88645625
20
133.4896
30
0
0
VERTEX
8
0
10
9.9552
20
133.4896
30
0
0
VERTEX
8
0
10
9.9552
20
128.2701
30
0
0
VERTEX
8
0
10
9.928590625
20
128.2701
30
0
0
VERTEX
8
0
10
9.459900000000001
20
127.801409375
30
0
0
VERTEX
8
0
10
9.459900000000001
20
127.138590625
30
0
0
VERTEX
8
0
10
9.928590625
20
126.66990000000001
30
0
0
VERTEX
8
0
10
10.591409375000001
20
126.66990000000001
30
0
0
VERTEX
8
0
10
11.0601
20
127.138590625
30
0
0
VERTEX
8
0
10
11.0601
20
127.801409375
30
0
0
VERTEX
8
0
10
10.591409375000001
20
128.2701
30
0
0
VERTEX
8
0
10
10.5648
20
128.2701
30
0
0
VERTEX
8
0
10
10.5648
20
133.62085625
30
0
0
VERTEX
8
0
10
10.820400000000001
20
133.87645625000002
30
0
0
VERTEX
8
0
10
10.820400000000001
20
134.42354375
30
0
0
VERTEX
8
0
10
10.43354375
20
134.81040000000002
30
0
0
VERTEX
8
0
10
10.0363
20
134.81040000000002
30
0
0
VERTEX
8
0
10
10.0363
20
139.675459375
30
0
0
VERTEX
8
0
10
10.716571875
20
141.07643437500002
30
0
42
0.952078716344195
0
VERTEX
8
0
10
9.34564375
20
141.742115625
30
0
0
VERTEX
8
0
10
8.647259375
20
140.30384062500002
30
0
42
0.571145129360409
0
VERTEX
8
0
10
9.4267
20
139.24616875
30
0
0
VERTEX
8
0
10
9.4267
20
134.57850000000002
30
0
42
0.17819372033241623
0
VERTEX
8
0
10
9.499600000000001
20
134.381034375
30
0
0
VERTEX
8
0
10
9.499600000000001
20
134.18705937500002
30
0
0
VERTEX
8
0
10
4.2672
20
131.83247500000002
30
0
0
VERTEX
8
0
10
4.2672
20
134.14325625
30
0
0
VERTEX
8
0
10
4.470400000000001
20
134.34645625000002
30
0
0
VERTEX
8
0
10
4.470400000000001
20
134.89354375000002
30
0
0
VERTEX
8
0
10
4.0835437500000005
20
135.28040000000001
30
0
0
VERTEX
8
0
10
3.53645625
20
135.28040000000001
30
0
0
VERTEX
8
0
10
3.1496
20
134.89354375000002
30
0
0
VERTEX
8
0
10
3.1496
20
134.34645625000002
30
0
0
VERTEX
8
0
10
3.53645625
20
133.9596
30
0
0
VERTEX
8
0
10
3.6576
20
133.9596
30
0
0
VERTEX
8
0
10
3.6576
20
129.0701
30
0
0
SEQEND
0
POLYLINE
66
1
8
1_copper
10
0.0
20
0.0
30
0.0
70
1
0
VERTEX
8
0
10
-10.1996
20
129.26645625
30
0
0
VERTEX
8
0
10
-10.1996
20
129.81354375
30
0
0
VERTEX
8
0
10
-10.586456250000001
20
130.2004
30
0
0
VERTEX
8
0
10
-11.133543750000001
20
130.2004
30
0
0
VERTEX
8
0
10
-11.496937500000001
20
129.83700625
30
0
0
VERTEX
8
0
10
-16.647028125000002
20
129.77380625
30
0
0
VERTEX
8
0
10
-18.692490625
20
133.60060000000001
30
0
42
0.2902348765134947
0
VERTEX
8
0
10
-18.549131250000002
20
134.508028125
30
0
0
VERTEX
8
0
10
-19.330721875000002
20
136.117653125
30
0
42
0.9572920540573896
0
VERTEX
8
0
10
-20.8730125
20
135.368759375
30
0
0
VERTEX
8
0
10
-20.091421875
20
133.759134375
30
0
42
0.30872417700059
0
VERTEX
8
0
10
-19.231734375000002
20
133.31627500000002
30
0
0
VERTEX
8
0
10
-17.097325
20
129.32307500000002
30
0
42
0.28004349885706104
0
VERTEX
8
0
10
-16.824775000000002
20
129.16197812500002
30
0
0
VERTEX
8
0
10
-11.48149375
20
129.22755
30
0
0
VERTEX
8
0
10
-11.133543750000001
20
128.8796
30
0
0
VERTEX
8
0
10
-10.586456250000001
20
128.8796
30
0
0
SEQEND
0
POLYLINE
66
1
8
1_copper
10
0.0
20
0.0
30
0.0
70
1
0
VERTEX
8
0
10
24.151840625000002
20
83.515984375
30
0
42
0.0693735309138292
0
VERTEX
8
0
10
24.2341625
20
83.53355
30
0
0
VERTEX
8
0
10
24.3738625
20
83.58435
30
0
42
0.10959329455817837
0
VERTEX
8
0
10
24.485225
20
83.655275
30
0
0
VERTEX
8
0
10
28.05111875
20
87.22116875
30
0
42
0.8919967247340135
0
VERTEX
8
0
10
29.146928125000002
20
87.100571875
30
0
0
VERTEX
8
0
10
29.34208125
20
88.25440312500001
30
0
42
0.38730411001405757
0
VERTEX
8
0
10
28.9030625
20
88.85897187500001
30
0
0
VERTEX
8
0
10
28.9030625
20
108.386609375
30
0
42
0.198912367379658
0
VERTEX
8
0
10
28.8137875
20
108.602134375
30
0
0
VERTEX
8
0
10
20.6248
20
116.791121875
30
0
0
VERTEX
8
0
10
20.6248
20
124.9299
30
0
0
VERTEX
8
0
10
20.651409375
20
124.9299
30
0
0
VERTEX
8
0
10
21.1201
20
125.39859062500001
30
0
0
VERTEX
8
0
10
21.1201
20
126.06140937500001
30
0
0
VERTEX
8
0
10
20.7772
20
126.40430937500001
30
0
0
VERTEX
8
0
10
20.7772
20
129.573953125
30
0
42
0.07764091473798615
0
VERTEX
8
0
10
20.870059375
20
129.5591
30
0
0
VERTEX
8
0
10
27.6764
20
129.5591
30
0
42
0.1526899617156397
0
VERTEX
8
0
10
27.852228125
20
129.610215625
30
0
0
VERTEX
8
0
10
27.916046875000003
20
129.57106875
30
0
42
0.41421356237309503
0
VERTEX
8
0
10
28.951675
20
129.873665625
30
0
0
VERTEX
8
0
10
29.650059375
20
131.311940625
30
0
42
0.952078716344195
0
VERTEX
8
0
10
28.279131250000002
20
131.977621875
30
0
0
VERTEX
8
0
10
27.580746875000003
20
130.539346875
30
0
42
0.12484433961306683
0
VERTEX
8
0
10
27.523209375
20
130.1687
30
0
0
VERTEX
8
0
10
21.045421875000002
20
130.1687
30
0
0
VERTEX
8
0
10
20.886312500000003
20
130.44236875
30
0
0
VERTEX
8
0
10
20.9804
20
130.53645625000001
30
0
0
VERTEX
8
0
10
20.9804
20
131.08354375000002
30
0
0
VERTEX
8
0
10
20.593543750000002
20
131.4704
30
0
0
VERTEX
8
0
10
20.046456250000002
20
131.4704
30
0
0
VERTEX
8
0
10
19.6596
20
131.08354375000002
30
0
0
VERTEX
8
0
10
19.6596
20
130.53645625000001
30
0
0
VERTEX
8
0
10
20.046456250000002
20
130.1496
30
0
0
VERTEX
8
0
10
20.1676
20
130.1496
30
0
0
VERTEX
8
0
10
20.1676
20
126.5301
30
0
0
VERTEX
8
0
10
19.988590625
20
126.5301
30
0
0
VERTEX
8
0
10
19.5199
20
126.06140937500001
30
0
0
VERTEX
8
0
10
19.5199
20
125.39859062500001
30
0
0
VERTEX
8
0
10
19.988590625
20
124.9299
30
0
0
VERTEX
8
0
10
20.0152
20
124.9299
30
0
0
VERTEX
8
0
10
20.0152
20
117.08967187500001
30
0
0
VERTEX
8
0
10
15.729953125000002
20
117.08967187500001
30
0
42
0.9352295295621618
0
VERTEX
8
0
10
15.689284375000002
20
116.482796875
30
0
0
VERTEX
8
0
10
15.729953125000002
20
116.48007187500001
30
0
0
VERTEX
8
0
10
20.07375
20
116.48007187500001
30
0
0
VERTEX
8
0
10
28.2934625
20
108.26035937500001
30
0
0
VERTEX
8
0
10
28.2934625
20
88.561775
30
0
42
0.05888537282822809
0
VERTEX
8
0
10
28.249596875
20
88.439178125
30
0
0
VERTEX
8
0
10
28.170734375000002
20
87.97290000000001
30
0
42
0.2857789347547117
0
VERTEX
8
0
10
27.851475
20
87.88362500000001
30
0
0
VERTEX
8
0
10
24.101993750000002
20
84.13414375
30
0
0
VERTEX
8
0
10
24.0258375
20
84.10645000000001
30
0
0
VERTEX
8
0
10
23.986015625
20
84.08864687500001
30
0
0
VERTEX
8
0
10
23.94914375
20
84.06534375000001
30
0
0
VERTEX
8
0
10
23.915975
20
84.03701875
30
0
0
VERTEX
8
0
10
23.887190625000002
20
84.004246875
30
0
0
VERTEX
8
0
10
23.863378125
20
83.967703125
30
0
0
VERTEX
8
0
10
23.845025
20
83.92813125
30
0
0
VERTEX
8
0
10
23.832509375
20
83.886346875
30
0
0
VERTEX
8
0
10
23.826084375
20
83.84320625000001
30
0
0
VERTEX
8
0
10
23.825884375
20
83.7995875
30
0
0
VERTEX
8
0
10
23.8319125
20
83.7563875
30
0
0
VERTEX
8
0
10
23.84404375
20
83.71449062500001
30
0
0
VERTEX
8
0
10
23.86203125
20
83.67475312500001
30
0
0
VERTEX
8
0
10
23.885509375
20
83.63799375
30
0
0
VERTEX
8
0
10
23.913990625
20
83.604959375
30
0
0
VERTEX
8
0
10
23.946896875
20
83.576328125
30
0
0
VERTEX
8
0
10
23.983553125
20
83.5526875
30
0
0
VERTEX
8
0
10
24.023209375
20
83.53451875
30
0
0
VERTEX
8
0
10
24.06505
20
83.5222
30
0
0
VERTEX
8
0
10
24.108225
20
83.515978125
30
0
0
SEQEND
0
POLYLINE
66
1
8
1_copper
10
0.0
20
0.0
30
0.0
70
1
0
VERTEX
8
0
10
-29.537593750000003
20
97.53621875
30
0
42
0.9858774954648498
0
VERTEX
8
0
10
-32.514171875
20
97.156540625
30
0
0
VERTEX
8
0
10
-32.054909375
20
94.083528125
30
0
42
0.9649223721994754
0
VERTEX
8
0
10
-29.087859375
20
94.526953125
30
0
0
VERTEX
8
0
10
-29.42550625
20
96.78620625
30
0
0
VERTEX
8
0
10
-28.346775
20
97.86493750000001
30
0
42
0.198912367379658
0
VERTEX
8
0
10
-28.2575
20
98.08046250000001
30
0
0
VERTEX
8
0
10
-28.2575
20
99.9666
30
0
0
VERTEX
8
0
10
-24.6093
20
99.9666
30
0
42
0.198912367379658
0
VERTEX
8
0
10
-24.393775
20
100.055875
30
0
0
VERTEX
8
0
10
-20.29065
20
104.159
30
0
0
VERTEX
8
0
10
-15.831756250000002
20
104.159
30
0
0
VERTEX
8
0
10
-13.9648
20
102.29204375
30
0
0
VERTEX
8
0
10
-13.9648
20
88.03
30
0
42
0.9352295295621618
0
VERTEX
8
0
10
-13.357925
20
87.98933125
30
0
0
VERTEX
8
0
10
-13.3552
20
88.03
30
0
0
VERTEX
8
0
10
-13.3552
20
102.41829375
30
0
42
0.198912367379658
0
VERTEX
8
0
10
-13.444475
20
102.63381875
30
0
0
VERTEX
8
0
10
-15.489981250000001
20
104.679325
30
0
42
0.198912367379658
0
VERTEX
8
0
10
-15.705506250000001
20
104.7686
30
0
0
VERTEX
8
0
10
-20.416900000000002
20
104.7686
30
0
42
0.198912367379658
0
VERTEX
8
0
10
-20.632425
20
104.679325
30
0
0
VERTEX
8
0
10
-24.73555
20
100.5762
30
0
0
VERTEX
8
0
10
-28.2575
20
100.5762
30
0
0
VERTEX
8
0
10
-28.2575
20
102.1969
30
0
42
0.198912367379658
0
VERTEX
8
0
10
-28.346775
20
102.412425
30
0
0
VERTEX
8
0
10
-28.842075
20
102.907725
30
0
42
0.04972545917813731
0
VERTEX
8
0
10
-28.889278125
20
102.94541875
30
0
0
VERTEX
8
0
10
-28.903153125000003
20
102.954971875
30
0
42
0.06290581985681104
0
VERTEX
8
0
10
-28.917900000000003
20
103.035615625
30
0
0
VERTEX
8
0
10
-28.917900000000003
20
108.122196875
30
0
42
0.22019958797196865
0
VERTEX
8
0
10
-28.828993750000002
20
108.362171875
30
0
0
VERTEX
8
0
10
-28.917900000000003
20
109.473459375
30
0
0
VERTEX
8
0
10
-28.917900000000003
20
114.67
30
0
42
0.1287329167427373
0
VERTEX
8
0
10
-28.95766875
20
114.818984375
30
0
0
VERTEX
8
0
10
-27.881318750000002
20
115.98503125
30
0
0
VERTEX
8
0
10
-26.28975
20
117.5766
30
0
0
VERTEX
8
0
10
-16.6889125
20
117.5766
30
0
42
0.2314430616314763
0
VERTEX
8
0
10
-16.448318750000002
20
117.69427187500001
30
0
0
VERTEX
8
0
10
-16.13334375
20
118.0992375
30
0
0
VERTEX
8
0
10
-15.921471875
20
117.95799062500001
30
0
42
0.1480680126345466
0
VERTEX
8
0
10
-15.752400000000002
20
117.9068
30
0
0
VERTEX
8
0
10
-6.68074375
20
117.9068
30
0
0
VERTEX
8
0
10
-6.6235437500000005
20
117.84960000000001
30
0
0
VERTEX
8
0
10
-6.076456250000001
20
117.84960000000001
30
0
0
VERTEX
8
0
10
-5.6896
20
118.23645625
30
0
0
VERTEX
8
0
10
-5.6896
20
118.78354375
30
0
0
VERTEX
8
0
10
-6.076456250000001
20
119.1704
30
0
0
VERTEX
8
0
10
-6.6235437500000005
20
119.1704
30
0
0
VERTEX
8
0
10
-7.010400000000001
20
118.78354375
30
0
0
VERTEX
8
0
10
-7.010400000000001
20
118.5164
30
0
0
VERTEX
8
0
10
-15.6601125
20
118.5164
30
0
0
VERTEX
8
0
10
-16.030928125
20
118.763609375
30
0
42
0.3929781665178788
0
VERTEX
8
0
10
-16.44059375
20
118.697128125
30
0
0
VERTEX
8
0
10
-16.837984375
20
118.1862
30
0
0
VERTEX
8
0
10
-26.416
20
118.1862
30
0
42
0.198912367379658
0
VERTEX
8
0
10
-26.631525
20
118.096925
30
0
0
VERTEX
8
0
10
-28.316725
20
116.411725
30
0
42
0.00999485970279515
0
VERTEX
8
0
10
-28.325168750000003
20
116.402940625
30
0
0
VERTEX
8
0
10
-29.2052
20
115.44957500000001
30
0
0
VERTEX
8
0
10
-29.2052
20
118.20996562500001
30
0
42
0.1761618413058074
0
VERTEX
8
0
10
-29.276384375000003
20
118.4057375
30
0
0
VERTEX
8
0
10
-33.590196875000004
20
123.55343125
30
0
42
0.10915832778090152
0
VERTEX
8
0
10
-33.522143750000005
20
124.197428125
30
0
0
VERTEX
8
0
10
-33.98140625
20
127.270440625
30
0
42
0.9649223721994754
0
VERTEX
8
0
10
-36.94845625
20
126.827015625
30
0
0
VERTEX
8
0
10
-36.48919375
20
123.75400312500001
30
0
42
0.6137498833724094
0
VERTEX
8
0
10
-33.921546875000004
20
122.99973750000001
30
0
0
VERTEX
8
0
10
-29.8148
20
118.09913750000001
30
0
0
VERTEX
8
0
10
-29.8148
20
114.67
30
0
42
0.39745605444684784
0
VERTEX
8
0
10
-29.5275
20
114.36625625
30
0
0
VERTEX
8
0
10
-29.5275
20
109.46130000000001
30
0
42
0.019960146551622947
0
VERTEX
8
0
10
-29.526528125000002
20
109.43699375
30
0
0
VERTEX
8
0
10
-29.510065625000003
20
109.23122500000001
30
0
42
0.08401430381771365
0
VERTEX
8
0
10
-29.5275
20
109.1311
30
0
0
VERTEX
8
0
10
-29.5275
20
103.0224
30
0
42
0.021668657150047153
0
VERTEX
8
0
10
-29.526356250000003
20
102.99601875
30
0
0
VERTEX
8
0
10
-29.436478125
20
101.96148437500001
30
0
42
0.7386799775072789
0
VERTEX
8
0
10
-28.8671
20
101.83920937500001
30
0
0
VERTEX
8
0
10
-28.8671
20
98.20671250000001
30
0
0
SEQEND
0
POLYLINE
66
1
8
1_copper
10
0.0
20
0.0
30
0.0
70
1
0
VERTEX
8
0
10
10.635681250000001
20
64.73565
30
0
42
0.9063476327778771
0
VERTEX
8
0
10
10.5661375
20
66.1512
30
0
0
VERTEX
8
0
10
9.0738625
20
66.1512
30
0
42
0.27658555555771697
0
VERTEX
8
0
10
8.465296875
20
65.7448
30
0
0
VERTEX
8
0
10
7.32085
20
65.7448
30
0
0
VERTEX
8
0
10
4.1701250000000005
20
68.895525
30
0
42
0.198912367379658
0
VERTEX
8
0
10
3.9546
20
68.9848
30
0
0
VERTEX
8
0
10
-4.6058843750000005
20
68.9848
30
0
42
0.3031031792224696
0
VERTEX
8
0
10
-5.402184375
20
69.569
30
0
0
VERTEX
8
0
10
-7.040768750000001
20
69.569
30
0
0
VERTEX
8
0
10
-13.754071875000001
20
76.282303125
30
0
0
VERTEX
8
0
10
-13.754071875000001
20
79.841515625
30
0
0
VERTEX
8
0
10
-8.538875
20
85.0567125
30
0
42
0.09848948651819747
0
VERTEX
8
0
10
-8.472803125
20
85.15559375000001
30
0
0
VERTEX
8
0
10
-8.298403125
20
85.57663125
30
0
42
0.09849332019684784
0
VERTEX
8
0
10
-8.2752
20
85.693275
30
0
0
VERTEX
8
0
10
-8.2752
20
88.03
30
0
42
0.9999999999999999
0
VERTEX
8
0
10
-8.8848
20
88.03
30
0
0
VERTEX
8
0
10
-8.8848
20
85.75390312500001
30
0
0
VERTEX
8
0
10
-9.012796875000001
20
85.444890625
30
0
0
VERTEX
8
0
10
-14.274396875
20
80.183290625
30
0
42
0.198912367379658
0
VERTEX
8
0
10
-14.363671875000001
20
79.967765625
30
0
0
VERTEX
8
0
10
-14.363671875000001
20
76.156053125
30
0
42
0.198912367379658
0
VERTEX
8
0
10
-14.274396875
20
75.940528125
30
0
0
VERTEX
8
0
10
-7.7366656250000005
20
69.402796875
30
0
42
0.7125676549665815
0
VERTEX
8
0
10
-7.257815625
20
67.791
30
0
0
VERTEX
8
0
10
-5.402184375
20
67.791
30
0
42
0.3031031792224696
0
VERTEX
8
0
10
-4.6058843750000005
20
68.3752
30
0
0
VERTEX
8
0
10
3.8283500000000004
20
68.3752
30
0
0
VERTEX
8
0
10
6.979075
20
65.224475
30
0
42
0.198912367379658
0
VERTEX
8
0
10
7.1946
20
65.1352
30
0
0
VERTEX
8
0
10
8.465296875
20
65.1352
30
0
42
0.27658555555771697
0
VERTEX
8
0
10
9.0738625
20
64.7288
30
0
0
VERTEX
8
0
10
10.5661375
20
64.7288
30
0
0
SEQEND
0
POLYLINE
66
1
8
1_copper
10
0.0
20
0.0
30
0.0
70
1
0
VERTEX
8
0
10
-13.389600000000002
20
30.096456250000003
30
0
0
VERTEX
8
0
10
-13.389600000000002
20
30.2387
30
0
0
VERTEX
8
0
10
-8.5852
20
30.2387
30
0
42
0.198912367379658
0
VERTEX
8
0
10
-8.369675
20
30.327975000000002
30
0
0
VERTEX
8
0
10
-5.602650000000001
20
33.095
30
0
0
VERTEX
8
0
10
-4.439
20
33.095
30
0
0
VERTEX
8
0
10
-4.439
20
34.603
30
0
0
VERTEX
8
0
10
-5.947
20
34.603
30
0
0
VERTEX
8
0
10
-5.947
20
33.61275
30
0
0
VERTEX
8
0
10
-8.711450000000001
20
30.848300000000002
30
0
0
VERTEX
8
0
10
-13.59435625
20
30.848300000000002
30
0
0
VERTEX
8
0
10
-13.77645625
20
31.0304
30
0
0
VERTEX
8
0
10
-14.32354375
20
31.0304
30
0
0
VERTEX
8
0
10
-14.7104
20
30.643543750000003
30
0
0
VERTEX
8
0
10
-14.7104
20
30.096456250000003
30
0
0
VERTEX
8
0
10
-14.32354375
20
29.709600000000002
30
0
0
VERTEX
8
0
10
-13.77645625
20
29.709600000000002
30
0
0
SEQEND
0
POLYLINE
66
1
8
1_copper
10
0.0
20
0.0
30
0.0
70
1
0
VERTEX
8
0
10
24.036012500000002
20
24.942240625
30
0
42
0.8626051790274021
0
VERTEX
8
0
10
24.124862500000003
20
26.448946875
30
0
0
VERTEX
8
0
10
22.545684375
20
26.699059375
30
0
42
0.9520795297055118
0
VERTEX
8
0
10
22.307281250000003
20
25.193821875
30
0
0
VERTEX
8
0
10
23.886459375
20
24.943709375
30
0
0
VERTEX
8
0
10
23.9612
20
24.939303125000002
30
0
0
SEQEND
0
POLYLINE
66
1
8
16_copper
10
0.0
20
0.0
30
0.0
70
1
0
VERTEX
8
0
10
9.416065625
20
139.244703125
30
0
42
0.25048756980236014
0
VERTEX
8
0
10
10.0181875
20
139.63815937500001
30
0
0
VERTEX
8
0
10
10.716571875
20
141.07643437500002
30
0
42
0.952078716344195
0
VERTEX
8
0
10
9.34564375
20
141.742115625
30
0
0
VERTEX
8
0
10
8.647259375
20
140.30384062500002
30
0
0
VERTEX
8
0
10
8.621315625000001
20
140.23361250000002
30
0
0
VERTEX
8
0
10
8.60238125
20
140.16117500000001
30
0
0
VERTEX
8
0
10
8.5906375
20
140.087234375
30
0
0
VERTEX
8
0
10
8.586196875
20
140.012496875
30
0
0
VERTEX
8
0
10
8.589103125000001
20
139.937684375
30
0
0
VERTEX
8
0
10
8.599328125
20
139.86351562500002
30
0
0
VERTEX
8
0
10
8.616775
20
139.79070625
30
0
0
VERTEX
8
0
10
8.641275
20
139.719959375
30
0
0
VERTEX
8
0
10
8.672590625
20
139.651953125
30
0
0
VERTEX
8
0
10
8.71041875
20
139.58734375
30
0
0
VERTEX
8
0
10
8.7544
20
139.52675625
30
0
0
VERTEX
8
0
10
8.804109375000001
20
139.47076875000002
30
0
0
VERTEX
8
0
10
8.859065625000001
20
139.419921875
30
0
0
VERTEX
8
0
10
8.918740625
20
139.374709375
30
0
0
VERTEX
8
0
10
8.982559375000001
20
139.3355625
30
0
0
VERTEX
8
0
10
9.049909375
20
139.302859375
30
0
0
VERTEX
8
0
10
9.1201375
20
139.27691562500002
30
0
0
VERTEX
8
0
10
9.192575
20
139.25798125
30
0
0
VERTEX
8
0
10
9.266515625
20
139.2462375
30
0
0
VERTEX
8
0
10
9.341253125
20
139.241796875
30
0
0
SEQEND
0
POLYLINE
66
1
8
16_copper
10
0.0
20
0.0
30
0.0
70
1
0
VERTEX
8
0
10
-19.2857375
20
133.31069375
30
0
42
0.5205672485015899
0
VERTEX
8
0
10
-18.549131250000002
20
134.508028125
30
0
0
VERTEX
8
0
10
-19.330721875000002
20
136.117653125
30
0
42
0.9572920540573896
0
VERTEX
8
0
10
-20.8730125
20
135.368759375
30
0
0
VERTEX
8
0
10
-20.091421875
20
133.759134375
30
0
0
VERTEX
8
0
10
-20.052981250000002
20
133.69490000000002
30
0
0
VERTEX
8
0
10
-20.0090875
20
133.634265625
30
0
0
VERTEX
8
0
10
-19.960075
20
133.57768437500002
30
0
0
VERTEX
8
0
10
-19.90631875
20
133.525590625
30
0
0
VERTEX
8
0
10
-19.848225
20
133.478378125
30
0
0
VERTEX
8
0
10
-19.786240625
20
133.43641250000002
30
0
0
VERTEX
8
0
10
-19.72083125
20
133.40000625000002
30
0
0
VERTEX
8
0
10
-19.6525
20
133.369440625
30
0
0
VERTEX
8
0
10
-19.581765625
20
133.344946875
30
0
0
VERTEX
8
0
10
-19.509162500000002
20
133.326709375
30
0
0
VERTEX
8
0
10
-19.43525
20
133.31486875000002
30
0
0
VERTEX
8
0
10
-19.360584375000002
20
133.30951875
30
0
0
SEQEND
0
POLYLINE
66
1
8
16_copper
10
0.0
20
0.0
30
0.0
70
1
0
VERTEX
8
0
10
4.470400000000001
20
134.34645625000002
30
0
0
VERTEX
8
0
10
4.470400000000001
20
134.89354375000002
30
0
0
VERTEX
8
0
10
4.0835437500000005
20
135.28040000000001
30
0
0
VERTEX
8
0
10
3.53645625
20
135.28040000000001
30
0
0
VERTEX
8
0
10
3.1496
20
134.89354375000002
30
0
0
VERTEX
8
0
10
3.1496
20
134.34645625000002
30
0
0
VERTEX
8
0
10
3.53645625
20
133.9596
30
0
0
VERTEX
8
0
10
4.0835437500000005
20
133.9596
30
0
0
SEQEND
0
POLYLINE
66
1
8
16_copper
10
0.0
20
0.0
30
0.0
70
1
0
VERTEX
8
0
10
20.9804
20
130.53645625000001
30
0
0
VERTEX
8
0
10
20.9804
20
131.08354375000002
30
0
0
VERTEX
8
0
10
20.593543750000002
20
131.4704
30
0
0
VERTEX
8
0
10
20.553296875
20
131.4704
30
0
0
VERTEX
8
0
10
20.4657875
20
132.257959375
30
0
42
0.3821619133551318
0
VERTEX
8
0
10
20.162853125
20
132.5291
30
0
0
VERTEX
8
0
10
10.4648
20
132.5291
30
0
0
VERTEX
8
0
10
10.4648
20
133.52085625
30
0
0
VERTEX
8
0
10
10.820400000000001
20
133.87645625000002
30
0
0
VERTEX
8
0
10
10.820400000000001
20
134.42354375
30
0
0
VERTEX
8
0
10
10.43354375
20
134.81040000000002
30
0
0
VERTEX
8
0
10
9.88645625
20
134.81040000000002
30
0
0
VERTEX
8
0
10
9.499600000000001
20
134.42354375
30
0
0
VERTEX
8
0
10
9.499600000000001
20
133.87645625000002
30
0
0
VERTEX
8
0
10
9.8552
20
133.52085625
30
0
0
VERTEX
8
0
10
9.8552
20
132.2243
30
0
42
0.41421356237309503
0
VERTEX
8
0
10
10.16
20
131.9195
30
0
0
VERTEX
8
0
10
19.890046875
20
131.9195
30
0
0
VERTEX
8
0
10
19.950596875000002
20
131.374540625
30
0
0
VERTEX
8
0
10
19.6596
20
131.08354375000002
30
0
0
VERTEX
8
0
10
19.6596
20
130.53645625000001
30
0
0
VERTEX
8
0
10
20.046456250000002
20
130.1496
30
0
0
VERTEX
8
0
10
20.593543750000002
20
130.1496
30
0
0
SEQEND
0
POLYLINE
66
1
8
16_copper
10
0.0
20
0.0
30
0.0
70
1
0
VERTEX
8
0
10
28.349553125
20
129.48020937500002
30
0
42
0.25048756980236014
0
VERTEX
8
0
10
28.951675
20
129.873665625
30
0
0
VERTEX
8
0
10
29.650059375
20
131.311940625
30
0
42
0.952078716344195
0
VERTEX
8
0
10
28.279131250000002
20
131.977621875
30
0
0
VERTEX
8
0
10
27.580746875000003
20
130.539346875
30
0
0
VERTEX
8
0
10
27.554803125000003
20
130.46911875
30
0
0
VERTEX
8
0
10
27.535868750000002
20
130.39668125
30
0
0
VERTEX
8
0
10
27.524125
20
130.322740625
30
0
0
VERTEX
8
0
10
27.519684375
20
130.248003125
30
0
0
VERTEX
8
0
10
27.522590625000003
20
130.17319062500002
30
0
0
VERTEX
8
0
10
27.532815625
20
130.099021875
30
0
0
VERTEX
8
0
10
27.550262500000002
20
130.0262125
30
0
0
VERTEX
8
0
10
27.574762500000002
20
129.95546562500002
30
0
0
VERTEX
8
0
10
27.606078125
20
129.88745937500002
30
0
0
VERTEX
8
0
10
27.64390625
20
129.82285000000002
30
0
0
VERTEX
8
0
10
27.687887500000002
20
129.76226250000002
30
0
0
VERTEX
8
0
10
27.737596875
20
129.706275
30
0
0
VERTEX
8
0
10
27.792553125
20
129.65542812500001
30
0
0
VERTEX
8
0
10
27.852228125
20
129.610215625
30
0
0
VERTEX
8
0
10
27.916046875000003
20
129.57106875
30
0
0
VERTEX
8
0
10
27.983396875
20
129.538365625
30
0
0
VERTEX
8
0
10
28.053625
20
129.512421875
30
0
0
VERTEX
8
0
10
28.1260625
20
129.49348750000001
30
0
0
VERTEX
8
0
10
28.200003125000002
20
129.48174375
30
0
0
VERTEX
8
0
10
28.274740625
20
129.47730312500002
30
0
0
SEQEND
0
POLYLINE
66
1
8
16_copper
10
0.0
20
0.0
30
0.0
70
1
0
VERTEX
8
0
10
2.6535687500000003
20
126.657959375
30
0
42
0.18870314520702475
0
VERTEX
8
0
10
2.8571250000000004
20
126.746375
30
0
0
VERTEX
8
0
10
3.5806500000000003
20
127.46990000000001
30
0
0
VERTEX
8
0
10
4.141409375
20
127.46990000000001
30
0
0
VERTEX
8
0
10
4.6101
20
127.938590625
30
0
0
VERTEX
8
0
10
4.6101
20
128.601409375
30
0
0
VERTEX
8
0
10
4.141409375
20
129.0701
30
0
0
VERTEX
8
0
10
3.4785906250000003
20
129.0701
30
0
0
VERTEX
8
0
10
3.0099
20
128.601409375
30
0
0
VERTEX
8
0
10
3.0099
20
127.938590625
30
0
0
VERTEX
8
0
10
3.098571875
20
127.849921875
30
0
0
VERTEX
8
0
10
2.51535
20
127.2667
30
0
0
VERTEX
8
0
10
-10.555200000000001
20
127.2667
30
0
0
VERTEX
8
0
10
-10.555200000000001
20
128.91085625
30
0
0
VERTEX
8
0
10
-10.1996
20
129.26645625
30
0
0
VERTEX
8
0
10
-10.1996
20
129.81354375
30
0
0
VERTEX
8
0
10
-10.586456250000001
20
130.2004
30
0
0
VERTEX
8
0
10
-11.133543750000001
20
130.2004
30
0
0
VERTEX
8
0
10
-11.5204
20
129.81354375
30
0
0
VERTEX
8
0
10
-11.5204
20
129.26645625
30
0
0
VERTEX
8
0
10
-11.164800000000001
20
128.91085625
30
0
0
VERTEX
8
0
10
-11.164800000000001
20
126.9619
30
0
42
0.41421356237309503
0
VERTEX
8
0
10
-10.860000000000001
20
126.6571
30
0
0
VERTEX
8
0
10
2.6416
20
126.6571
30
0
0
SEQEND
0
POLYLINE
66
1
8
16_copper
10
0.0
20
0.0
30
0.0
70
1
0
VERTEX
8
0
10
-34.9516875
20
122.52902187500001
30
0
42
0.4352840653541641
0
VERTEX
8
0
10
-33.522143750000005
20
124.197428125
30
0
0
VERTEX
8
0
10
-33.98140625
20
127.270440625
30
0
42
0.9649223721994754
0
VERTEX
8
0
10
-36.94845625
20
126.827015625
30
0
0
VERTEX
8
0
10
-36.48919375
20
123.75400312500001
30
0
0
VERTEX
8
0
10
-36.4658375
20
123.64943437500001
30
0
0
VERTEX
8
0
10
-36.43508125
20
123.5468
30
0
0
VERTEX
8
0
10
-36.39708125
20
123.44661875
30
0
0
VERTEX
8
0
10
-36.352028125000004
20
123.34940312500001
30
0
0
VERTEX
8
0
10
-36.300159375
20
123.25565
30
0
0
VERTEX
8
0
10
-36.24173125
20
123.16583750000001
30
0
0
VERTEX
8
0
10
-36.177046875
20
123.080421875
30
0
0
VERTEX
8
0
10
-36.106434375
20
122.99983750000001
30
0
0
VERTEX
8
0
10
-36.03025
20
122.924496875
30
0
0
VERTEX
8
0
10
-35.948887500000005
20
122.85478125
30
0
0
VERTEX
8
0
10
-35.862759375
20
122.79105000000001
30
0
0
VERTEX
8
0
10
-35.7723
20
122.733625
30
0
0
VERTEX
8
0
10
-35.677978125
20
122.68279687500001
30
0
0
VERTEX
8
0
10
-35.58026875
20
122.638828125
30
0
0
VERTEX
8
0
10
-35.479675
20
122.60194375
30
0
0
VERTEX
8
0
10
-35.376703125
20
122.57232812500001
30
0
0
VERTEX
8
0
10
-35.27188125
20
122.550134375
30
0
0
VERTEX
8
0
10
-35.165743750000004
20
122.535475
30
0
0
VERTEX
8
0
10
-35.058831250000004
20
122.52842500000001
30
0
0
SEQEND
0
POLYLINE
66
1
8
16_copper
10
0.0
20
0.0
30
0.0
70
1
0
VERTEX
8
0
10
11.0601
20
127.138590625
30
0
0
VERTEX
8
0
10
11.0601
20
127.801409375
30
0
0
VERTEX
8
0
10
10.591409375000001
20
128.2701
30
0
0
VERTEX
8
0
10
9.928590625
20
128.2701
30
0
0
VERTEX
8
0
10
9.459900000000001
20
127.801409375
30
0
0
VERTEX
8
0
10
9.459900000000001
20
127.138590625
30
0
0
VERTEX
8
0
10
9.928590625
20
126.66990000000001
30
0
0
VERTEX
8
0
10
10.591409375000001
20
126.66990000000001
30
0
0
SEQEND
0
POLYLINE
66
1
8
16_copper
10
0.0
20
0.0
30
0.0
70
1
0
VERTEX
8
0
10
21.1201
20
125.39859062500001
30
0
0
VERTEX
8
0
10
21.1201
20
126.06140937500001
30
0
0
VERTEX
8
0
10
20.651409375
20
126.5301
30
0
0
VERTEX
8
0
10
19.988590625
20
126.5301
30
0
0
VERTEX
8
0
10
19.5199
20
126.06140937500001
30
0
0
VERTEX
8
0
10
19.5199
20
125.39859062500001
30
0
0
VERTEX
8
0
10
19.988590625
20
124.9299
30
0
0
VERTEX
8
0
10
20.651409375
20
124.9299
30
0
0
SEQEND
0
POLYLINE
66
1
8
16_copper
10
0.0
20
0.0
30
0.0
70
1
0
VERTEX
8
0
10
-5.6896
20
118.23645625
30
0
0
VERTEX
8
0
10
-5.6896
20
118.78354375
30
0
0
VERTEX
8
0
10
-6.0452
20
119.13914375
30
0
0
VERTEX
8
0
10
-6.0452
20
120.71820000000001
30
0
0
VERTEX
8
0
10
-0.9735
20
120.71820000000001
30
0
42
0.5549651257368272
0
VERTEX
8
0
10
-0.6787531250000001
20
121.167490625
30
0
0
VERTEX
8
0
10
-0.69840625
20
121.20643125000001
30
0
42
0.29455415363067505
0
VERTEX
8
0
10
-0.994659375
20
121.352821875
30
0
0
VERTEX
8
0
10
-1.03753125
20
121.34477500000001
30
0
42
0.038204755532673905
0
VERTEX
8
0
10
-1.084475
20
121.32780000000001
30
0
0
VERTEX
8
0
10
-6.3500000000000005
20
121.32780000000001
30
0
42
0.41421356237309503
0
VERTEX
8
0
10
-6.654800000000001
20
121.02300000000001
30
0
0
VERTEX
8
0
10
-6.654800000000001
20
119.13914375
30
0
0
VERTEX
8
0
10
-7.010400000000001
20
118.78354375
30
0
0
VERTEX
8
0
10
-7.010400000000001
20
118.23645625
30
0
0
VERTEX
8
0
10
-6.6235437500000005
20
117.84960000000001
30
0
0
VERTEX
8
0
10
-6.076456250000001
20
117.84960000000001
30
0
0
SEQEND
0
POLYLINE
66
1
8
16_copper
10
0.0
20
0.0
30
0.0
70
1
0
VERTEX
8
0
10
-30.517403125
20
92.858546875
30
0
42
0.4352840653541641
0
VERTEX
8
0
10
-29.087859375
20
94.526953125
30
0
0
VERTEX
8
0
10
-29.547121875000002
20
97.59996562500001
30
0
42
0.9649223721994754
0
VERTEX
8
0
10
-32.514171875
20
97.156540625
30
0
0
VERTEX
8
0
10
-32.054909375
20
94.083528125
30
0
0
VERTEX
8
0
10
-32.031553125
20
93.978959375
30
0
0
VERTEX
8
0
10
-32.000796875
20
93.87632500000001
30
0
0
VERTEX
8
0
10
-31.962796875000002
20
93.77614375
30
0
0
VERTEX
8
0
10
-31.917743750000003
20
93.678928125
30
0
0
VERTEX
8
0
10
-31.865875000000003
20
93.585175
30
0
0
VERTEX
8
0
10
-31.807446875
20
93.4953625
30
0
0
VERTEX
8
0
10
-31.7427625
20
93.409946875
30
0
0
VERTEX
8
0
10
-31.672150000000002
20
93.3293625
30
0
0
VERTEX
8
0
10
-31.595965625
20
93.254021875
30
0
0
VERTEX
8
0
10
-31.514603125
20
93.18430625
30
0
0
VERTEX
8
0
10
-31.428475000000002
20
93.120575
30
0
0
VERTEX
8
0
10
-31.338015625
20
93.06315000000001
30
0
0
VERTEX
8
0
10
-31.243693750000002
20
93.012321875
30
0
0
VERTEX
8
0
10
-31.145984375
20
92.96835312500001
30
0
0
VERTEX
8
0
10
-31.045390625000003
20
92.93146875000001
30
0
0
VERTEX
8
0
10
-30.94241875
20
92.901853125
30
0
0
VERTEX
8
0
10
-30.837596875000003
20
92.879659375
30
0
0
VERTEX
8
0
10
-30.731459375
20
92.86500000000001
30
0
0
VERTEX
8
0
10
-30.624546875
20
92.85795
30
0
0
SEQEND
0
POLYLINE
66
1
8
16_copper
10
0.0
20
0.0
30
0.0
70
1
0
VERTEX
8
0
10
28.668415625
20
86.672296875
30
0
42
0.3187293687097214
0
VERTEX
8
0
10
29.146928125000002
20
87.100571875
30
0
0
VERTEX
8
0
10
29.34208125
20
88.25440312500001
30
0
42
0.9454188612630903
0
VERTEX
8
0
10
28.249596875
20
88.439178125
30
0
0
VERTEX
8
0
10
28.05444375
20
87.285346875
30
0
0
VERTEX
8
0
10
28.051003125
20
87.22321562500001
30
0
0
VERTEX
8
0
10
28.054537500000002
20
87.16109375
30
0
0
VERTEX
8
0
10
28.06500625
20
87.09975625
30
0
0
VERTEX
8
0
10
28.082278125000002
20
87.039978125
30
0
0
VERTEX
8
0
10
28.106134375
20
86.982509375
30
0
0
VERTEX
8
0
10
28.136271875000002
20
86.928071875
30
0
0
VERTEX
8
0
10
28.172318750000002
20
86.87735
30
0
0
VERTEX
8
0
10
28.213815625000002
20
86.830984375
30
0
0
VERTEX
8
0
10
28.26024375
20
86.78955625
30
0
0
VERTEX
8
0
10
28.311018750000002
20
86.75358750000001
30
0
0
VERTEX
8
0
10
28.3655
20
86.72353125000001
30
0
0
VERTEX
8
0
10
28.42300625
20
86.6997625
30
0
0
VERTEX
8
0
10
28.4828125
20
86.68258125
30
0
0
VERTEX
8
0
10
28.544162500000002
20
86.67220312500001
30
0
0
VERTEX
8
0
10
28.606293750000003
20
86.6687625
30
0
0
SEQEND
0
POLYLINE
66
1
8
16_copper
10
0.0
20
0.0
30
0.0
70
1
0
VERTEX
8
0
10
-8.565740625
20
87.694896875
30
0
42
0.6364481919128251
0
VERTEX
8
0
10
-8.346243750000001
20
88.225603125
30
0
0
VERTEX
8
0
10
-8.37655625
20
88.25696875
30
0
42
0.30569082532120606
0
VERTEX
8
0
10
-8.713909375
20
88.3031
30
0
0
VERTEX
8
0
10
-10.986121875
20
88.3031
30
0
42
0.05649799394689505
0
VERTEX
8
0
10
-11.05599375
20
88.32800312500001
30
0
0
VERTEX
8
0
10
-11.099184375
20
88.33408750000001
30
0
42
0.6450815561299764
0
VERTEX
8
0
10
-11.362184375
20
87.84493437500001
30
0
0
VERTEX
8
0
10
-11.333290625
20
87.81225937500001
30
0
42
0.2474226852145846
0
VERTEX
8
0
10
-11.0617
20
87.6935
30
0
0
VERTEX
8
0
10
-8.5852
20
87.6935
30
0
0
SEQEND
0
POLYLINE
66
1
8
16_copper
10
0.0
20
0.0
30
0.0
70
1
0
VERTEX
8
0
10
18.186400000000003
20
26.232290625
30
0
42
0.3890292033372139
0
VERTEX
8
0
10
18.464793750000002
20
25.9286375
30
0
0
VERTEX
8
0
10
21.7620875
20
25.641884375
30
0
42
0.24525058150959114
0
VERTEX
8
0
10
22.307281250000003
20
25.193821875
30
0
0
VERTEX
8
0
10
23.886459375
20
24.943709375
30
0
42
0.9520795297055118
0
VERTEX
8
0
10
24.124862500000003
20
26.448946875
30
0
0
VERTEX
8
0
10
22.545684375
20
26.699059375
30
0
42
0.32479021826241794
0
VERTEX
8
0
10
21.768206250000002
20
26.25325
30
0
0
VERTEX
8
0
10
18.796
20
26.51173125
30
0
0
VERTEX
8
0
10
18.796
20
33.87005
30
0
0
VERTEX
8
0
10
21.584400000000002
20
31.08165
30
0
42
0.198912367379658
0
VERTEX
8
0
10
21.799925
20
30.992375000000003
30
0
0
VERTEX
8
0
10
23.617865625
20
30.992375000000003
30
0
42
0.9999999999999999
0
VERTEX
8
0
10
23.617865625
20
31.601975000000003
30
0
0
VERTEX
8
0
10
21.926175
20
31.601975000000003
30
0
0
VERTEX
8
0
10
18.806725
20
34.721425
30
0
42
0.16434908426366052
0
VERTEX
8
0
10
18.631868750000002
20
34.807975
30
0
0
VERTEX
8
0
10
18.621409375000002
20
34.808675
30
0
0
VERTEX
8
0
10
18.619153125
20
34.808996875
30
0
0
VERTEX
8
0
10
18.541625
20
34.886525
30
0
42
0.198912367379658
0
VERTEX
8
0
10
18.3261
20
34.9758
30
0
0
VERTEX
8
0
10
16.9799
20
34.9758
30
0
0
VERTEX
8
0
10
16.9799
20
70.74995
30
0
0
VERTEX
8
0
10
22.77726875
20
76.54731875
30
0
42
0.14263659834336334
0
VERTEX
8
0
10
22.859284375
20
76.69672187500001
30
0
0
VERTEX
8
0
10
24.427540625000002
20
83.753878125
30
0
42
0.9999999999999999
0
VERTEX
8
0
10
23.832459375000003
20
83.886121875
30
0
0
VERTEX
8
0
10
22.28345625
20
76.91560625000001
30
0
0
VERTEX
8
0
10
16.459575
20
71.091725
30
0
42
0.07173556308510218
0
VERTEX
8
0
10
16.407459375000002
20
71.022046875
30
0
0
VERTEX
8
0
10
16.402490625000002
20
71.0111375
30
0
42
0.007224008039746111
0
VERTEX
8
0
10
16.3963125
20
70.99915
30
0
0
VERTEX
8
0
10
7.813400000000001
20
70.99915
30
0
42
0.41421356237309503
0
VERTEX
8
0
10
7.5086
20
70.69435
30
0
0
VERTEX
8
0
10
7.5086
20
65.8212
30
0
42
0.198912367379658
0
VERTEX
8
0
10
7.597875
20
65.605675
30
0
0
VERTEX
8
0
10
7.979075000000001
20
65.224475
30
0
42
0.198912367379658
0
VERTEX
8
0
10
8.194600000000001
20
65.1352
30
0
0
VERTEX
8
0
10
8.465296875
20
65.1352
30
0
42
0.27658555555771697
0
VERTEX
8
0
10
9.0738625
20
64.7288
30
0
0
VERTEX
8
0
10
10.5661375
20
64.7288
30
0
42
0.9520811731250587
0
VERTEX
8
0
10
10.5661375
20
66.1512
30
0
0
VERTEX
8
0
10
9.0738625
20
66.1512
30
0
42
0.27658555555771697
0
VERTEX
8
0
10
8.465296875
20
65.7448
30
0
0
VERTEX
8
0
10
8.32085
20
65.7448
30
0
0
VERTEX
8
0
10
8.1182
20
65.94745
30
0
0
VERTEX
8
0
10
8.1182
20
70.38955
30
0
0
VERTEX
8
0
10
16.3703
20
70.38955
30
0
0
VERTEX
8
0
10
16.3703
20
34.9758
30
0
0
VERTEX
8
0
10
11.02285
20
34.9758
30
0
0
VERTEX
8
0
10
6.324225
20
39.674425
30
0
42
0.09916719863877711
0
VERTEX
8
0
10
6.2245875
20
39.740809375000005
30
0
0
VERTEX
8
0
10
5.951887500000001
20
39.852909375
30
0
42
0.3301964835110972
0
VERTEX
8
0
10
5.600184375
20
39.7637
30
0
0
VERTEX
8
0
10
5.2832
20
39.7637
30
0
42
0.198912367379658
0
VERTEX
8
0
10
5.067675
20
39.674425
30
0
0
VERTEX
8
0
10
0.8643500000000001
20
35.4711
30
0
0
VERTEX
8
0
10
-3.9624
20
35.4711
30
0
42
0.198912367379658
0
VERTEX
8
0
10
-4.177925
20
35.381825
30
0
0
VERTEX
8
0
10
-4.95675
20
34.603
30
0
0
VERTEX
8
0
10
-5.947
20
34.603
30
0
0
VERTEX
8
0
10
-5.947
20
33.095
30
0
0
VERTEX
8
0
10
-4.439
20
33.095
30
0
0
VERTEX
8
0
10
-4.439
20
34.25865
30
0
0
VERTEX
8
0
10
-3.8361500000000004
20
34.8615
30
0
0
VERTEX
8
0
10
0.9906
20
34.8615
30
0
42
0.198912367379658
0
VERTEX
8
0
10
1.2061250000000001
20
34.950775
30
0
0
VERTEX
8
0
10
5.4094500000000005
20
39.1541
30
0
0
VERTEX
8
0
10
5.7785
20
39.1541
30
0
42
0.13811970271421714
0
VERTEX
8
0
10
5.937396875
20
39.199153125
30
0
0
VERTEX
8
0
10
10.681075
20
34.455475
30
0
42
0.198912367379658
0
VERTEX
8
0
10
10.896600000000001
20
34.3662
30
0
0
VERTEX
8
0
10
18.186400000000003
20
34.3662
30
0
0
SEQEND
0
POLYLINE
66
1
8
16_copper
10
0.0
20
0.0
30
0.0
70
1
0
VERTEX
8
0
10
-5.324853125000001
20
67.797765625
30
0
42
0.916331393922359
0
VERTEX
8
0
10
-5.402184375
20
69.569
30
0
0
VERTEX
8
0
10
-7.257815625
20
69.569
30
0
42
0.9572906161637668
0
VERTEX
8
0
10
-7.257815625
20
67.791
30
0
0
VERTEX
8
0
10
-5.402184375
20
67.791
30
0
0
SEQEND
0
POLYLINE
66
1
8
16_copper
10
0.0
20
0.0
30
0.0
70
1
0
VERTEX
8
0
10
-13.389600000000002
20
30.096456250000003
30
0
0
VERTEX
8
0
10
-13.389600000000002
20
30.643543750000003
30
0
0
VERTEX
8
0
10
-13.77645625
20
31.0304
30
0
0
VERTEX
8
0
10
-14.32354375
20
31.0304
30
0
0
VERTEX
8
0
10
-14.7104
20
30.643543750000003
30
0
0
VERTEX
8
0
10
-14.7104
20
30.096456250000003
30
0
0
VERTEX
8
0
10
-14.32354375
20
29.709600000000002
30
0
0
VERTEX
8
0
10
-13.77645625
20
29.709600000000002
30
0
0
SEQEND
0
POLYLINE
66
1
8
1_copper
10
0.0
20
0.0
30
0.0
70
1
0
VERTEX
8
0
10
-19.586115625
20
80.73637500000001
30
0
42
0.1790390709365824
0
VERTEX
8
0
10
-19.74630625
20
80.66350625
30
0
0
VERTEX
8
0
10
-21.0976
20
79.3122125
30
0
0
VERTEX
8
0
10
-21.0976
20
98.68768750000001
30
0
0
VERTEX
8
0
10
-16.7692875
20
103.016
30
0
0
VERTEX
8
0
10
-16.2
20
103.016
30
0
42
0.9999999999999999
0
VERTEX
8
0
10
-16.2
20
103.524
30
0
0
VERTEX
8
0
10
-16.8745
20
103.524
30
0
42
0.198912367379658
0
VERTEX
8
0
10
-17.05410625
20
103.44960625
30
0
0
VERTEX
8
0
10
-21.53120625
20
98.97250625000001
30
0
42
0.198912367379658
0
VERTEX
8
0
10
-21.605600000000003
20
98.7929
30
0
0
VERTEX
8
0
10
-21.605600000000003
20
79.16065625
30
0
42
0.4270382067635959
0
VERTEX
8
0
10
-21.858434375
20
78.89531562500001
30
0
0
VERTEX
8
0
10
-21.837678125
20
78.4546875
30
0
42
0.6512869468000924
0
VERTEX
8
0
10
-21.404353125
20
78.287034375
30
0
0
VERTEX
8
0
10
-19.4614875
20
80.2299
30
0
0
VERTEX
8
0
10
-18.771912500000003
20
80.2299
30
0
0
VERTEX
8
0
10
-18.0499
20
79.50788750000001
30
0
0
VERTEX
8
0
10
-18.0499
20
73.8138
30
0
42
0.198912367379658
0
VERTEX
8
0
10
-17.975506250000002
20
73.63419375000001
30
0
0
VERTEX
8
0
10
-10.405553125
20
66.064240625
30
0
42
0.198912367379658
0
VERTEX
8
0
10
-10.225946875
20
65.989846875
30
0
0
VERTEX
8
0
10
-8.0952375
20
65.989846875
30
0
42
0.35301951016903577
0
VERTEX
8
0
10
-7.257815625
20
65.251
30
0
0
VERTEX
8
0
10
-5.402184375
20
65.251
30
0
42
0.35934161930794084
0
VERTEX
8
0
10
-4.561296875
20
66.0095
30
0
0
VERTEX
8
0
10
4.2512875
20
66.0095
30
0
0
VERTEX
8
0
10
7.540393750000001
20
62.72039375
30
0
42
0.198912367379658
0
VERTEX
8
0
10
7.720000000000001
20
62.646
30
0
0
VERTEX
8
0
10
8.4442125
20
62.646
30
0
42
0.2975009544802419
0
VERTEX
8
0
10
9.0738625
20
62.1888
30
0
0
VERTEX
8
0
10
10.5661375
20
62.1888
30
0
42
0.9520811731250587
0
VERTEX
8
0
10
10.5661375
20
63.611200000000004
30
0
0
VERTEX
8
0
10
9.0738625
20
63.611200000000004
30
0
42
0.2975009544802419
0
VERTEX
8
0
10
8.4442125
20
63.154
30
0
0
VERTEX
8
0
10
7.8252125
20
63.154
30
0
0
VERTEX
8
0
10
4.5361062500000005
20
66.44310625
30
0
42
0.198912367379658
0
VERTEX
8
0
10
4.3565000000000005
20
66.5175
30
0
0
VERTEX
8
0
10
-4.636128125
20
66.5175
30
0
42
0.2790755571549608
0
VERTEX
8
0
10
-5.402184375
20
67.029
30
0
0
VERTEX
8
0
10
-7.257815625
20
67.029
30
0
42
0.2856590443010742
0
VERTEX
8
0
10
-8.0330375
20
66.49784687500001
30
0
0
VERTEX
8
0
10
-10.120734375
20
66.49784687500001
30
0
0
VERTEX
8
0
10
-17.541900000000002
20
73.91901250000001
30
0
0
VERTEX
8
0
10
-17.541900000000002
20
79.6131
30
0
42
0.198912367379658
0
VERTEX
8
0
10
-17.61629375
20
79.79270625000001
30
0
0
VERTEX
8
0
10
-18.48709375
20
80.66350625
30
0
42
0.198912367379658
0
VERTEX
8
0
10
-18.666700000000002
20
80.73790000000001
30
0
0
VERTEX
8
0
10
-19.5667
20
80.73790000000001
30
0
0
SEQEND
0
POLYLINE
66
1
8
16_copper
10
0.0
20
0.0
30
0.0
70
1
0
VERTEX
8
0
10
-5.324853125000001
20
65.257765625
30
0
42
0.916331393922359
0
VERTEX
8
0
10
-5.402184375
20
67.029
30
0
0
VERTEX
8
0
10
-7.257815625
20
67.029
30
0
42
0.9572906161637668
0
VERTEX
8
0
10
-7.257815625
20
65.251
30
0
0
VERTEX
8
0
10
-5.402184375
20
65.251
30
0
0
SEQEND
0
POLYLINE
66
1
8
16_copper
10
0.0
20
0.0
30
0.0
70
1
0
VERTEX
8
0
10
10.635681250000001
20
62.19565
30
0
42
0.9063476327778771
0
VERTEX
8
0
10
10.5661375
20
63.611200000000004
30
0
0
VERTEX
8
0
10
9.0738625
20
63.611200000000004
30
0
42
0.9520811731250587
0
VERTEX
8
0
10
9.0738625
20
62.1888
30
0
0
VERTEX
8
0
10
10.5661375
20
62.1888
30
0
0
SEQEND
0
POLYLINE
66
1
8
1_copper
10
0.0
20
0.0
30
0.0
70
1
0
VERTEX
8
0
10
10.635681250000001
20
59.65565
30
0
42
0.9063476327778771
0
VERTEX
8
0
10
10.5661375
20
61.071200000000005
30
0
0
VERTEX
8
0
10
9.0738625
20
61.071200000000005
30
0
42
0.2975009544802419
0
VERTEX
8
0
10
8.4442125
20
60.614000000000004
30
0
0
VERTEX
8
0
10
7.3252125
20
60.614000000000004
30
0
0
VERTEX
8
0
10
4.27260625
20
63.66660625
30
0
42
0.198912367379658
0
VERTEX
8
0
10
4.093
20
63.741
30
0
0
VERTEX
8
0
10
-4.563146875
20
63.741
30
0
42
0.35596142386813406
0
VERTEX
8
0
10
-5.402184375
20
64.489
30
0
0
VERTEX
8
0
10
-7.257815625
20
64.489
30
0
42
0.319645473117655
0
VERTEX
8
0
10
-8.0713
20
63.854000000000006
30
0
0
VERTEX
8
0
10
-10.053387500000001
20
63.854000000000006
30
0
0
VERTEX
8
0
10
-18.5976
20
72.3982125
30
0
0
VERTEX
8
0
10
-18.5976
20
79.147046875
30
0
42
0.28884820510415665
0
VERTEX
8
0
10
-18.74203125
20
79.376196875
30
0
0
VERTEX
8
0
10
-18.979865625000002
20
79.48991875
30
0
42
0.9999999999999999
0
VERTEX
8
0
10
-19.199003125
20
79.03161875
30
0
0
VERTEX
8
0
10
-19.105600000000003
20
78.98695625
30
0
0
VERTEX
8
0
10
-19.105600000000003
20
72.293
30
0
42
0.198912367379658
0
VERTEX
8
0
10
-19.03120625
20
72.11339375
30
0
0
VERTEX
8
0
10
-10.33820625
20
63.42039375
30
0
42
0.198912367379658
0
VERTEX
8
0
10
-10.1586
20
63.346000000000004
30
0
0
VERTEX
8
0
10
-8.0713
20
63.346000000000004
30
0
42
0.319645473117655
0
VERTEX
8
0
10
-7.257815625
20
62.711000000000006
30
0
0
VERTEX
8
0
10
-5.402184375
20
62.711000000000006
30
0
42
0.2825904810163934
0
VERTEX
8
0
10
-4.63123125
20
63.233000000000004
30
0
0
VERTEX
8
0
10
3.9877875
20
63.233000000000004
30
0
0
VERTEX
8
0
10
7.040393750000001
20
60.18039375
30
0
42
0.198912367379658
0
VERTEX
8
0
10
7.220000000000001
20
60.106
30
0
0
VERTEX
8
0
10
8.4442125
20
60.106
30
0
42
0.2975009544802419
0
VERTEX
8
0
10
9.0738625
20
59.6488
30
0
0
VERTEX
8
0
10
10.5661375
20
59.6488
30
0
0
SEQEND
0
POLYLINE
66
1
8
16_copper
10
0.0
20
0.0
30
0.0
70
1
0
VERTEX
8
0
10
-18.833884375
20
79.00455625000001
30
0
42
0.39385143818690693
0
VERTEX
8
0
10
-18.5976
20
79.257159375
30
0
0
VERTEX
8
0
10
-18.5976
20
97.97318750000001
30
0
0
VERTEX
8
0
10
-16.02039375
20
100.55039375
30
0
42
0.9999999999999999
0
VERTEX
8
0
10
-16.379606250000002
20
100.90960625000001
30
0
0
VERTEX
8
0
10
-19.03120625
20
98.25800625000001
30
0
42
0.198912367379658
0
VERTEX
8
0
10
-19.105600000000003
20
98.0784
30
0
0
VERTEX
8
0
10
-19.105600000000003
20
79.51347187500001
30
0
42
0.9612340702600429
0
VERTEX
8
0
10
-19.093287500000002
20
79.006796875
30
0
0
VERTEX
8
0
10
-18.855453125
20
79.00318750000001
30
0
0
VERTEX
8
0
10
-18.85374375
20
79.003296875
30
0
0
VERTEX
8
0
10
-18.852046875
20
79.00315937500001
30
0
0
SEQEND
0
POLYLINE
66
1
8
16_copper
10
0.0
20
0.0
30
0.0
70
1
0
VERTEX
8
0
10
-5.324853125000001
20
62.717765625000006
30
0
42
0.916331393922359
0
VERTEX
8
0
10
-5.402184375
20
64.489
30
0
0
VERTEX
8
0
10
-7.257815625
20
64.489
30
0
42
0.9572906161637668
0
VERTEX
8
0
10
-7.257815625
20
62.711000000000006
30
0
0
VERTEX
8
0
10
-5.402184375
20
62.711000000000006
30
0
0
SEQEND
0
POLYLINE
66
1
8
16_copper
10
0.0
20
0.0
30
0.0
70
1
0
VERTEX
8
0
10
10.635681250000001
20
59.65565
30
0
42
0.9063476327778771
0
VERTEX
8
0
10
10.5661375
20
61.071200000000005
30
0
0
VERTEX
8
0
10
9.0738625
20
61.071200000000005
30
0
42
0.9520811731250587
0
VERTEX
8
0
10
9.0738625
20
59.6488
30
0
0
VERTEX
8
0
10
10.5661375
20
59.6488
30
0
0
SEQEND
0
POLYLINE
66
1
8
1_copper
10
0.0
20
0.0
30
0.0
70
1
0
VERTEX
8
0
10
16.146265625
20
88.7902625
30
0
42
0.3187293687097214
0
VERTEX
8
0
10
16.624778125000002
20
89.21853750000001
30
0
0
VERTEX
8
0
10
16.81993125
20
90.37236875
30
0
42
0.9454188612630903
0
VERTEX
8
0
10
15.727446875
20
90.55714375000001
30
0
0
VERTEX
8
0
10
15.672706250000001
20
90.2335
30
0
0
VERTEX
8
0
10
11.5246125
20
90.2335
30
0
0
VERTEX
8
0
10
-0.7060000000000001
20
102.4641125
30
0
0
VERTEX
8
0
10
-0.7060000000000001
20
103.27000000000001
30
0
42
0.9999999999999999
0
VERTEX
8
0
10
-1.214
20
103.27000000000001
30
0
0
VERTEX
8
0
10
-1.214
20
102.3589
30
0
42
0.198912367379658
0
VERTEX
8
0
10
-1.1396062500000002
20
102.17929375
30
0
0
VERTEX
8
0
10
11.23979375
20
89.79989375000001
30
0
42
0.198912367379658
0
VERTEX
8
0
10
11.419400000000001
20
89.72550000000001
30
0
0
VERTEX
8
0
10
15.586787500000002
20
89.72550000000001
30
0
0
VERTEX
8
0
10
15.532293750000001
20
89.4033125
30
0
0
VERTEX
8
0
10
15.528853125000001
20
89.34118125
30
0
0
VERTEX
8
0
10
15.5323875
20
89.279059375
30
0
0
VERTEX
8
0
10
15.542856250000002
20
89.21772187500001
30
0
0
VERTEX
8
0
10
15.560128125
20
89.15794375
30
0
0
VERTEX
8
0
10
15.583984375
20
89.100475
30
0
0
VERTEX
8
0
10
15.614121875
20
89.04603750000001
30
0
0
VERTEX
8
0
10
15.65016875
20
88.995315625
30
0
0
VERTEX
8
0
10
15.691665625
20
88.94895000000001
30
0
0
VERTEX
8
0
10
15.73809375
20
88.907521875
30
0
0
VERTEX
8
0
10
15.78886875
20
88.871553125
30
0
0
VERTEX
8
0
10
15.843350000000001
20
88.841496875
30
0
0
VERTEX
8
0
10
15.90085625
20
88.817728125
30
0
0
VERTEX
8
0
10
15.960662500000002
20
88.80054687500001
30
0
0
VERTEX
8
0
10
16.022012500000002
20
88.79016875
30
0
0
VERTEX
8
0
10
16.08414375
20
88.78672812500001
30
0
0
SEQEND
0
POLYLINE
66
1
8
16_copper
10
0.0
20
0.0
30
0.0
70
1
0
VERTEX
8
0
10
16.146265625
20
88.7902625
30
0
42
0.3187293687097214
0
VERTEX
8
0
10
16.624778125000002
20
89.21853750000001
30
0
0
VERTEX
8
0
10
16.81993125
20
90.37236875
30
0
42
0.9454188612630903
0
VERTEX
8
0
10
15.727446875
20
90.55714375000001
30
0
0
VERTEX
8
0
10
15.532293750000001
20
89.4033125
30
0
0
VERTEX
8
0
10
15.528853125000001
20
89.34118125
30
0
0
VERTEX
8
0
10
15.5323875
20
89.279059375
30
0
0
VERTEX
8
0
10
15.542856250000002
20
89.21772187500001
30
0
0
VERTEX
8
0
10
15.560128125
20
89.15794375
30
0
0
VERTEX
8
0
10
15.583984375
20
89.100475
30
0
0
VERTEX
8
0
10
15.614121875
20
89.04603750000001
30
0
0
VERTEX
8
0
10
15.65016875
20
88.995315625
30
0
0
VERTEX
8
0
10
15.691665625
20
88.94895000000001
30
0
0
VERTEX
8
0
10
15.73809375
20
88.907521875
30
0
0
VERTEX
8
0
10
15.78886875
20
88.871553125
30
0
0
VERTEX
8
0
10
15.843350000000001
20
88.841496875
30
0
0
VERTEX
8
0
10
15.90085625
20
88.817728125
30
0
0
VERTEX
8
0
10
15.960662500000002
20
88.80054687500001
30
0
0
VERTEX
8
0
10
16.022012500000002
20
88.79016875
30
0
0
VERTEX
8
0
10
16.08414375
20
88.78672812500001
30
0
0
SEQEND
0
POLYLINE
66
1
8
1_copper
10
0.0
20
0.0
30
0.0
70
1
0
VERTEX
8
0
10
18.650693750000002
20
88.36666875
30
0
42
0.3187293687097214
0
VERTEX
8
0
10
19.12920625
20
88.79494375
30
0
0
VERTEX
8
0
10
19.324359375
20
89.948775
30
0
42
0.9454188612630903
0
VERTEX
8
0
10
18.231875000000002
20
90.13355
30
0
0
VERTEX
8
0
10
18.036721875
20
88.97971875
30
0
0
VERTEX
8
0
10
18.03328125
20
88.91758750000001
30
0
0
VERTEX
8
0
10
18.036815625
20
88.85546562500001
30
0
0
VERTEX
8
0
10
18.047284375
20
88.794128125
30
0
0
VERTEX
8
0
10
18.064556250000003
20
88.73435
30
0
0
VERTEX
8
0
10
18.0884125
20
88.67688125000001
30
0
0
VERTEX
8
0
10
18.118550000000003
20
88.62244375
30
0
0
VERTEX
8
0
10
18.154596875
20
88.57172187500001
30
0
0
VERTEX
8
0
10
18.19609375
20
88.52535625
30
0
0
VERTEX
8
0
10
18.242521875
20
88.483928125
30
0
0
VERTEX
8
0
10
18.293296875
20
88.44795937500001
30
0
0
VERTEX
8
0
10
18.347778125
20
88.41790312500001
30
0
0
VERTEX
8
0
10
18.405284375
20
88.39413437500001
30
0
0
VERTEX
8
0
10
18.465090625000002
20
88.376953125
30
0
0
VERTEX
8
0
10
18.526440625
20
88.366575
30
0
0
VERTEX
8
0
10
18.588571875
20
88.363134375
30
0
0
SEQEND
0
POLYLINE
66
1
8
16_copper
10
0.0
20
0.0
30
0.0
70
1
0
VERTEX
8
0
10
-4.716715625
20
99.770875
30
0
42
0.1790390709365824
0
VERTEX
8
0
10
-4.87690625
20
99.69800625
30
0
0
VERTEX
8
0
10
-12.990546875000001
20
91.584365625
30
0
42
0.06636235185180342
0
VERTEX
8
0
10
-13.046271875
20
91.542940625
30
0
0
VERTEX
8
0
10
-16.379606250000002
20
88.20960625000001
30
0
42
0.9999999999999999
0
VERTEX
8
0
10
-16.02039375
20
87.85039375000001
30
0
0
VERTEX
8
0
10
-12.72371875
20
91.14706875
30
0
42
0.06874613811844309
0
VERTEX
8
0
10
-12.66799375
20
91.18849375
30
0
0
VERTEX
8
0
10
-4.5920875
20
99.26440000000001
30
0
0
VERTEX
8
0
10
8.516887500000001
20
99.26440000000001
30
0
0
VERTEX
8
0
10
18.147368750000002
20
89.63391875
30
0
0
VERTEX
8
0
10
18.036721875
20
88.97971875
30
0
42
0.9454188612630903
0
VERTEX
8
0
10
19.12920625
20
88.79494375
30
0
0
VERTEX
8
0
10
19.324359375
20
89.948775
30
0
42
0.8586901241008575
0
VERTEX
8
0
10
18.2658125
20
90.2339
30
0
0
VERTEX
8
0
10
8.80170625
20
99.69800625
30
0
42
0.198912367379658
0
VERTEX
8
0
10
8.6221
20
99.7724
30
0
0
VERTEX
8
0
10
-4.6973
20
99.7724
30
0
0
SEQEND
0
POLYLINE
66
1
8
1_copper
10
0.0
20
0.0
30
0.0
70
1
0
VERTEX
8
0
10
20.122784375000002
20
89.241375
30
0
42
0.1790390709365824
0
VERTEX
8
0
10
19.96259375
20
89.16850625000001
30
0
0
VERTEX
8
0
10
18.881287500000003
20
88.08720000000001
30
0
0
VERTEX
8
0
10
5.058212500000001
20
88.08720000000001
30
0
0
VERTEX
8
0
10
3.4545406250000004
20
89.690871875
30
0
42
0.13593371932034196
0
VERTEX
8
0
10
3.3365375000000004
20
89.75768125
30
0
0
VERTEX
8
0
10
-0.8983968750000001
20
90.816415625
30
0
42
0.9999999999999999
0
VERTEX
8
0
10
-1.021603125
20
90.32358437500001
30
0
0
VERTEX
8
0
10
3.145071875
20
89.28191562500001
30
0
0
VERTEX
8
0
10
4.77339375
20
87.65359375
30
0
42
0.198912367379658
0
VERTEX
8
0
10
4.953
20
87.5792
30
0
0
VERTEX
8
0
10
18.9865
20
87.5792
30
0
42
0.198912367379658
0
VERTEX
8
0
10
19.166106250000002
20
87.65359375
30
0
0
VERTEX
8
0
10
20.2474125
20
88.73490000000001
30
0
0
VERTEX
8
0
10
20.571390625
20
88.73490000000001
30
0
42
0.9921600941982058
0
VERTEX
8
0
10
21.5926875
20
88.25403750000001
30
0
0
VERTEX
8
0
10
21.616456250000002
20
88.31154375
30
0
0
VERTEX
8
0
10
21.633637500000003
20
88.37135
30
0
0
VERTEX
8
0
10
21.828790625
20
89.52518125
30
0
42
0.9454188612630903
0
VERTEX
8
0
10
20.736306250000002
20
89.70995625
30
0
0
VERTEX
8
0
10
20.657309375
20
89.2429
30
0
0
VERTEX
8
0
10
20.142200000000003
20
89.2429
30
0
0
SEQEND
0
POLYLINE
66
1
8
16_copper
10
0.0
20
0.0
30
0.0
70
1
0
VERTEX
8
0
10
21.155125
20
87.94307500000001
30
0
42
0.3187293687097214
0
VERTEX
8
0
10
21.633637500000003
20
88.37135
30
0
0
VERTEX
8
0
10
21.828790625
20
89.52518125
30
0
42
0.9454188612630903
0
VERTEX
8
0
10
20.736306250000002
20
89.70995625
30
0
0
VERTEX
8
0
10
20.541153125
20
88.55612500000001
30
0
0
VERTEX
8
0
10
20.5377125
20
88.49399375
30
0
0
VERTEX
8
0
10
20.541246875000002
20
88.431871875
30
0
0
VERTEX
8
0
10
20.551715625
20
88.370534375
30
0
0
VERTEX
8
0
10
20.568987500000002
20
88.31075625
30
0
0
VERTEX
8
0
10
20.59284375
20
88.2532875
30
0
0
VERTEX
8
0
10
20.622981250000002
20
88.19885000000001
30
0
0
VERTEX
8
0
10
20.659028125000003
20
88.148128125
30
0
0
VERTEX
8
0
10
20.700525000000003
20
88.1017625
30
0
0
VERTEX
8
0
10
20.746953125
20
88.06033437500001
30
0
0
VERTEX
8
0
10
20.797728125000003
20
88.024365625
30
0
0
VERTEX
8
0
10
20.852209375
20
87.994309375
30
0
0
VERTEX
8
0
10
20.909715625
20
87.970540625
30
0
0
VERTEX
8
0
10
20.969521875
20
87.953359375
30
0
0
VERTEX
8
0
10
21.030871875000003
20
87.94298125
30
0
0
VERTEX
8
0
10
21.093003125000003
20
87.939540625
30
0
0
SEQEND
0
POLYLINE
66
1
8
1_copper
10
0.0
20
0.0
30
0.0
70
1
0
VERTEX
8
0
10
22.599284375
20
88.746075
30
0
42
0.1790390709365824
0
VERTEX
8
0
10
22.43909375
20
88.67320625
30
0
0
VERTEX
8
0
10
21.1926875
20
87.4268
30
0
0
VERTEX
8
0
10
3.060896875
20
87.4268
30
0
0
VERTEX
8
0
10
2.058971875
20
88.228340625
30
0
42
0.1703031271237355
0
VERTEX
8
0
10
1.9003
20
88.284
30
0
0
VERTEX
8
0
10
-0.9600000000000001
20
88.284
30
0
42
0.9228431308911045
0
VERTEX
8
0
10
-1.000571875
20
87.7792625
30
0
0
VERTEX
8
0
10
-0.9600000000000001
20
87.77600000000001
30
0
0
VERTEX
8
0
10
1.811203125
20
87.77600000000001
30
0
0
VERTEX
8
0
10
2.813128125
20
86.97445937500001
30
0
42
0.1703031271237355
0
VERTEX
8
0
10
2.9718
20
86.9188
30
0
0
VERTEX
8
0
10
21.297900000000002
20
86.9188
30
0
42
0.198912367379658
0
VERTEX
8
0
10
21.47750625
20
86.99319375
30
0
0
VERTEX
8
0
10
22.7239125
20
88.23960000000001
30
0
0
VERTEX
8
0
10
23.063690625
20
88.23960000000001
30
0
42
0.985429815794783
0
VERTEX
8
0
10
24.120884375000003
20
87.88795312500001
30
0
0
VERTEX
8
0
10
24.138065625
20
87.947759375
30
0
0
VERTEX
8
0
10
24.33321875
20
89.101590625
30
0
42
0.9454188612630903
0
VERTEX
8
0
10
23.240734375000002
20
89.286365625
30
0
0
VERTEX
8
0
10
23.149609375
20
88.7476
30
0
0
VERTEX
8
0
10
22.6187
20
88.7476
30
0
0
SEQEND
0
POLYLINE
66
1
8
16_copper
10
0.0
20
0.0
30
0.0
70
1
0
VERTEX
8
0
10
23.659553125000002
20
87.519484375
30
0
42
0.3187293687097214
0
VERTEX
8
0
10
24.138065625
20
87.947759375
30
0
0
VERTEX
8
0
10
24.33321875
20
89.101590625
30
0
42
0.9454188612630903
0
VERTEX
8
0
10
23.240734375000002
20
89.286365625
30
0
0
VERTEX
8
0
10
23.04558125
20
88.132534375
30
0
0
VERTEX
8
0
10
23.042140625000002
20
88.070403125
30
0
0
VERTEX
8
0
10
23.045675000000003
20
88.00828125000001
30
0
0
VERTEX
8
0
10
23.05614375
20
87.94694375
30
0
0
VERTEX
8
0
10
23.073415625000003
20
87.88716562500001
30
0
0
VERTEX
8
0
10
23.097271875
20
87.82969687500001
30
0
0
VERTEX
8
0
10
23.127409375000003
20
87.775259375
30
0
0
VERTEX
8
0
10
23.16345625
20
87.72453750000001
30
0
0
VERTEX
8
0
10
23.204953125
20
87.678171875
30
0
0
VERTEX
8
0
10
23.25138125
20
87.63674375000001
30
0
0
VERTEX
8
0
10
23.30215625
20
87.600775
30
0
0
VERTEX
8
0
10
23.3566375
20
87.57071875
30
0
0
VERTEX
8
0
10
23.41414375
20
87.54695000000001
30
0
0
VERTEX
8
0
10
23.473950000000002
20
87.52976875
30
0
0
VERTEX
8
0
10
23.5353
20
87.519390625
30
0
0
VERTEX
8
0
10
23.59743125
20
87.51595
30
0
0
SEQEND
0
POLYLINE
66
1
8
1_copper
10
0.0
20
0.0
30
0.0
70
1
0
VERTEX
8
0
10
23.63866875
20
22.433512500000003
30
0
42
0.8626051790274021
0
VERTEX
8
0
10
23.72751875
20
23.94021875
30
0
0
VERTEX
8
0
10
22.148340625
20
24.19033125
30
0
42
0.9520795297055118
0
VERTEX
8
0
10
21.9099375
20
22.68509375
30
0
0
VERTEX
8
0
10
23.489115625
20
22.43498125
30
0
0
VERTEX
8
0
10
23.56385625
20
22.430575
30
0
0
SEQEND
0
POLYLINE
66
1
8
1_copper
10
0.0
20
0.0
30
0.0
70
1
0
VERTEX
8
0
10
8.763
20
14.71395
30
0
0
VERTEX
8
0
10
8.763
20
15.76605
30
0
0
VERTEX
8
0
10
8.01905
20
16.51
30
0
0
VERTEX
8
0
10
6.966950000000001
20
16.51
30
0
0
VERTEX
8
0
10
6.223
20
15.76605
30
0
0
VERTEX
8
0
10
6.223
20
14.71395
30
0
0
VERTEX
8
0
10
6.966950000000001
20
13.97
30
0
0
VERTEX
8
0
10
8.01905
20
13.97
30
0
0
SEQEND
0
POLYLINE
66
1
8
16_copper
10
0.0
20
0.0
30
0.0
70
1
0
VERTEX
8
0
10
8.763
20
14.71395
30
0
0
VERTEX
8
0
10
8.763
20
15.76605
30
0
0
VERTEX
8
0
10
8.01905
20
16.51
30
0
0
VERTEX
8
0
10
7.7978000000000005
20
16.51
30
0
0
VERTEX
8
0
10
7.7978000000000005
20
23.059546875000002
30
0
0
VERTEX
8
0
10
21.428809375
20
23.0126375
30
0
42
0.19823509907888184
0
VERTEX
8
0
10
21.9099375
20
22.68509375
30
0
0
VERTEX
8
0
10
23.489115625
20
22.43498125
30
0
42
0.9520795297055118
0
VERTEX
8
0
10
23.72751875
20
23.94021875
30
0
0
VERTEX
8
0
10
22.148340625
20
24.19033125
30
0
42
0.37235481485547145
0
VERTEX
8
0
10
21.328365625
20
23.622584375000002
30
0
0
VERTEX
8
0
10
7.5275468750000005
20
23.670078125
30
0
42
0.36131460356269424
0
VERTEX
8
0
10
7.203925
20
23.426437500000002
30
0
0
VERTEX
8
0
10
7.1998218750000005
20
23.415153125
30
0
42
0.0693732412568607
0
VERTEX
8
0
10
7.1882
20
23.331784375
30
0
0
VERTEX
8
0
10
7.1882
20
16.51
30
0
0
VERTEX
8
0
10
6.966950000000001
20
16.51
30
0
0
VERTEX
8
0
10
6.223
20
15.76605
30
0
0
VERTEX
8
0
10
6.223
20
14.71395
30
0
0
VERTEX
8
0
10
6.966950000000001
20
13.97
30
0
0
VERTEX
8
0
10
8.01905
20
13.97
30
0
0
SEQEND
0
POLYLINE
66
1
8
1_copper
10
0.0
20
0.0
30
0.0
70
1
0
VERTEX
8
0
10
23.241325
20
19.924781250000002
30
0
42
0.8626051790274021
0
VERTEX
8
0
10
23.330175
20
21.4314875
30
0
0
VERTEX
8
0
10
21.750996875000002
20
21.6816
30
0
42
0.34878678799962565
0
VERTEX
8
0
10
20.949378125000003
20
21.1747
30
0
0
VERTEX
8
0
10
-7.1121875
20
21.1747
30
0
0
VERTEX
8
0
10
-16.421103125000002
20
30.483615625000002
30
0
0
VERTEX
8
0
10
-16.421103125000002
20
37.736000000000004
30
0
0
VERTEX
8
0
10
-14.7104
20
37.736000000000004
30
0
0
VERTEX
8
0
10
-14.7104
20
37.71645625
30
0
0
VERTEX
8
0
10
-14.32354375
20
37.3296
30
0
0
VERTEX
8
0
10
-13.77645625
20
37.3296
30
0
0
VERTEX
8
0
10
-13.389600000000002
20
37.71645625
30
0
0
VERTEX
8
0
10
-13.389600000000002
20
38.263543750000004
30
0
0
VERTEX
8
0
10
-13.77645625
20
38.650400000000005
30
0
0
VERTEX
8
0
10
-14.32354375
20
38.650400000000005
30
0
0
VERTEX
8
0
10
-14.7104
20
38.263543750000004
30
0
0
VERTEX
8
0
10
-14.7104
20
38.244
30
0
0
VERTEX
8
0
10
-16.4847875
20
38.244
30
0
0
VERTEX
8
0
10
-20.067953125000003
20
41.827165625
30
0
0
VERTEX
8
0
10
-20.451228125
20
43.75401875
30
0
0
VERTEX
8
0
10
-20.174128125
20
44.423
30
0
0
VERTEX
8
0
10
-18.341471875
20
44.423
30
0
42
0.9550389850449041
0
VERTEX
8
0
10
-17.637003125
20
44.698828125000006
30
0
0
VERTEX
8
0
10
-17.655975
20
44.744631250000005
30
0
42
0.3033467187980841
0
VERTEX
8
0
10
-18.0206875
20
44.955200000000005
30
0
0
VERTEX
8
0
10
-18.069840625
20
44.948728125
30
0
42
0.056892087874131234
0
VERTEX
8
0
10
-18.129550000000002
20
44.931000000000004
30
0
0
VERTEX
8
0
10
-20.34384375
20
44.931000000000004
30
0
42
0.30334835632732
0
VERTEX
8
0
10
-20.578509375
20
44.7742
30
0
0
VERTEX
8
0
10
-20.950043750000003
20
43.877234375
30
0
42
0.148334742389771
0
VERTEX
8
0
10
-20.964496875000002
20
43.730481250000004
30
0
0
VERTEX
8
0
10
-20.551159375
20
41.6524875
30
0
42
0.1483356672156318
0
VERTEX
8
0
10
-20.481646875000003
20
41.522434375
30
0
0
VERTEX
8
0
10
-16.922140625
20
37.962928125000005
30
0
42
0.056932918356667445
0
VERTEX
8
0
10
-16.929103125
20
37.905740625
30
0
0
VERTEX
8
0
10
-16.929103125
20
30.378403125000002
30
0
42
0.198912367379658
0
VERTEX
8
0
10
-16.854709375000002
20
30.198796875000003
30
0
0
VERTEX
8
0
10
-7.3970062500000004
20
20.74109375
30
0
42
0.198912367379658
0
VERTEX
8
0
10
-7.2174000000000005
20
20.666700000000002
30
0
0
VERTEX
8
0
10
20.951175000000003
20
20.666700000000002
30
0
42
0.261057361224619
0
VERTEX
8
0
10
21.51259375
20
20.1763625
30
0
0
VERTEX
8
0
10
23.091771875000003
20
19.92625
30
0
0
VERTEX
8
0
10
23.1665125
20
19.92184375
30
0
0
SEQEND
0
POLYLINE
66
1
8
16_copper
10
0.0
20
0.0
30
0.0
70
1
0
VERTEX
8
0
10
-17.487215625
20
90.82247500000001
30
0
42
0.1790390709365824
0
VERTEX
8
0
10
-17.64740625
20
90.74960625
30
0
0
VERTEX
8
0
10
-18.07550625
20
90.32150625
30
0
42
0.198912367379658
0
VERTEX
8
0
10
-18.149900000000002
20
90.1419
30
0
0
VERTEX
8
0
10
-18.149900000000002
20
44.978459375
30
0
42
0.14868773500377097
0
VERTEX
8
0
10
-18.2458
20
44.86195625
30
0
0
VERTEX
8
0
10
-18.28085625
20
44.8269
30
0
42
0.9999999999999999
0
VERTEX
8
0
10
-17.710943750000002
20
44.3271
30
0
0
VERTEX
8
0
10
-17.6807625
20
44.366431250000005
30
0
42
0.19891224369753105
0
VERTEX
8
0
10
-17.624171875000002
20
44.650940625000004
30
0
0
VERTEX
8
0
10
-17.637003125
20
44.698828125000006
30
0
42
0.0734410148948598
0
VERTEX
8
0
10
-17.6419
20
44.777
30
0
0
VERTEX
8
0
10
-17.6419
20
90.0366875
30
0
0
VERTEX
8
0
10
-17.3625875
20
90.316
30
0
0
VERTEX
8
0
10
-16.2
20
90.316
30
0
42
0.9999999999999999
0
VERTEX
8
0
10
-16.2
20
90.824
30
0
0
VERTEX
8
0
10
-17.4678
20
90.824
30
0
0
SEQEND
0
POLYLINE
66
1
8
16_copper
10
0.0
20
0.0
30
0.0
70
1
0
VERTEX
8
0
10
-13.389600000000002
20
37.71645625
30
0
0
VERTEX
8
0
10
-13.389600000000002
20
38.263543750000004
30
0
0
VERTEX
8
0
10
-13.77645625
20
38.650400000000005
30
0
0
VERTEX
8
0
10
-14.32354375
20
38.650400000000005
30
0
0
VERTEX
8
0
10
-14.7104
20
38.263543750000004
30
0
0
VERTEX
8
0
10
-14.7104
20
37.71645625
30
0
0
VERTEX
8
0
10
-14.32354375
20
37.3296
30
0
0
VERTEX
8
0
10
-13.77645625
20
37.3296
30
0
0
SEQEND
0
POLYLINE
66
1
8
16_copper
10
0.0
20
0.0
30
0.0
70
1
0
VERTEX
8
0
10
23.241325
20
19.924781250000002
30
0
42
0.8626051790274021
0
VERTEX
8
0
10
23.330175
20
21.4314875
30
0
0
VERTEX
8
0
10
21.750996875000002
20
21.6816
30
0
42
0.9520795297055118
0
VERTEX
8
0
10
21.51259375
20
20.1763625
30
0
0
VERTEX
8
0
10
23.091771875000003
20
19.92625
30
0
0
VERTEX
8
0
10
23.1665125
20
19.92184375
30
0
0
SEQEND
0
POLYLINE
66
1
8
1_copper
10
0.0
20
0.0
30
0.0
70
1
0
VERTEX
8
0
10
14.6560375
20
108.6118125
30
0
42
0.6131650723114669
0
VERTEX
8
0
10
14.796175
20
109.04233437500001
30
0
0
VERTEX
8
0
10
14.696175
20
109.142334375
30
0
42
0.198912367379658
0
VERTEX
8
0
10
14.516568750000001
20
109.216728125
30
0
0
VERTEX
8
0
10
8.018553125
20
109.216728125
30
0
0
VERTEX
8
0
10
4.00774375
20
113.23601562500001
30
0
42
0.1991859587806168
0
VERTEX
8
0
10
3.82795
20
113.31060000000001
30
0
0
VERTEX
8
0
10
-0.6162875
20
113.31060000000001
30
0
0
VERTEX
8
0
10
-0.7060000000000001
20
113.40031250000001
30
0
0
VERTEX
8
0
10
-0.7060000000000001
20
113.43
30
0
42
0.9999999999999999
0
VERTEX
8
0
10
-1.214
20
113.43
30
0
0
VERTEX
8
0
10
-1.214
20
113.2951
30
0
42
0.198912367379658
0
VERTEX
8
0
10
-1.1396062500000002
20
113.11549375
30
0
0
VERTEX
8
0
10
-0.90110625
20
112.87699375000001
30
0
42
0.198912367379658
0
VERTEX
8
0
10
-0.7215
20
112.80260000000001
30
0
0
VERTEX
8
0
10
3.7225843750000003
20
112.80260000000001
30
0
0
VERTEX
8
0
10
7.73339375
20
108.78331250000001
30
0
42
0.1991859587806168
0
VERTEX
8
0
10
7.9131875
20
108.70872812500001
30
0
0
VERTEX
8
0
10
14.41135625
20
108.70872812500001
30
0
0
VERTEX
8
0
10
14.4369625
20
108.68312187500001
30
0
0
VERTEX
8
0
10
14.467234375
20
108.6572625
30
0
0
VERTEX
8
0
10
14.501175
20
108.636453125
30
0
0
VERTEX
8
0
10
14.53795
20
108.6212
30
0
0
VERTEX
8
0
10
14.576659375
20
108.611884375
30
0
0
VERTEX
8
0
10
14.616346875000001
20
108.608728125
30
0
0
SEQEND
0
POLYLINE
66
1
8
1_copper
10
0.0
20
0.0
30
0.0
70
1
0
VERTEX
8
0
10
-23.594293750000002
20
93.8932125
30
0
42
0.4352840653541641
0
VERTEX
8
0
10
-22.16475
20
95.56161875000001
30
0
0
VERTEX
8
0
10
-22.624012500000003
20
98.63463125
30
0
42
0.9649223721994754
0
VERTEX
8
0
10
-25.5910625
20
98.19120625000001
30
0
0
VERTEX
8
0
10
-25.131800000000002
20
95.11819375
30
0
0
VERTEX
8
0
10
-25.108443750000003
20
95.013625
30
0
0
VERTEX
8
0
10
-25.0776875
20
94.91099062500001
30
0
0
VERTEX
8
0
10
-25.0396875
20
94.810809375
30
0
0
VERTEX
8
0
10
-24.994634375
20
94.71359375
30
0
0
VERTEX
8
0
10
-24.942765625
20
94.61984062500001
30
0
0
VERTEX
8
0
10
-24.8843375
20
94.530028125
30
0
0
VERTEX
8
0
10
-24.819653125000002
20
94.4446125
30
0
0
VERTEX
8
0
10
-24.749040625000003
20
94.364028125
30
0
0
VERTEX
8
0
10
-24.672856250000002
20
94.28868750000001
30
0
0
VERTEX
8
0
10
-24.59149375
20
94.21897187500001
30
0
0
VERTEX
8
0
10
-24.505365625
20
94.155240625
30
0
0
VERTEX
8
0
10
-24.41490625
20
94.09781562500001
30
0
0
VERTEX
8
0
10
-24.320584375000003
20
94.0469875
30
0
0
VERTEX
8
0
10
-24.222875000000002
20
94.00301875000001
30
0
0
VERTEX
8
0
10
-24.12228125
20
93.96613437500001
30
0
0
VERTEX
8
0
10
-24.019309375000002
20
93.93651875
30
0
0
VERTEX
8
0
10
-23.9144875
20
93.914325
30
0
0
VERTEX
8
0
10
-23.80835
20
93.89966562500001
30
0
0
VERTEX
8
0
10
-23.7014375
20
93.892615625
30
0
0
SEQEND
0
POLYLINE
66
1
8
1_copper
10
0.0
20
0.0
30
0.0
70
1
0
VERTEX
8
0
10
-6.223
20
14.71395
30
0
0
VERTEX
8
0
10
-6.223
20
15.76605
30
0
0
VERTEX
8
0
10
-6.966950000000001
20
16.51
30
0
0
VERTEX
8
0
10
-8.01905
20
16.51
30
0
0
VERTEX
8
0
10
-8.763
20
15.76605
30
0
0
VERTEX
8
0
10
-8.763
20
14.71395
30
0
0
VERTEX
8
0
10
-8.01905
20
13.97
30
0
0
VERTEX
8
0
10
-6.966950000000001
20
13.97
30
0
0
SEQEND
0
POLYLINE
66
1
8
16_copper
10
0.0
20
0.0
30
0.0
70
1
0
VERTEX
8
0
10
-6.223
20
14.71395
30
0
0
VERTEX
8
0
10
-6.223
20
15.76605
30
0
0
VERTEX
8
0
10
-6.966950000000001
20
16.51
30
0
0
VERTEX
8
0
10
-8.01905
20
16.51
30
0
0
VERTEX
8
0
10
-8.122303125
20
16.406746875
30
0
0
VERTEX
8
0
10
-26.97023125
20
37.610671875
30
0
0
VERTEX
8
0
10
-32.924025
20
79.29924375
30
0
0
VERTEX
8
0
10
-23.662381250000003
20
88.5608875
30
0
42
0.198912367379658
0
VERTEX
8
0
10
-23.573106250000002
20
88.7764125
30
0
0
VERTEX
8
0
10
-23.573106250000002
20
93.894846875
30
0
42
0.431081239992557
0
VERTEX
8
0
10
-22.16475
20
95.56161875000001
30
0
0
VERTEX
8
0
10
-22.624012500000003
20
98.63463125
30
0
42
0.9649223721994754
0
VERTEX
8
0
10
-25.5910625
20
98.19120625000001
30
0
0
VERTEX
8
0
10
-25.131800000000002
20
95.11819375
30
0
42
0.2628402431082459
0
VERTEX
8
0
10
-24.182706250000003
20
93.988290625
30
0
0
VERTEX
8
0
10
-24.182706250000003
20
88.9026625
30
0
0
VERTEX
8
0
10
-33.462834375
20
79.622534375
30
0
42
0.23605802767173195
0
VERTEX
8
0
10
-33.549046875
20
79.363915625
30
0
0
VERTEX
8
0
10
-27.560734375000003
20
37.43365625
30
0
42
0.14724606773231766
0
VERTEX
8
0
10
-27.48680625
20
37.274253125
30
0
0
VERTEX
8
0
10
-8.554096875
20
15.974953125
30
0
0
VERTEX
8
0
10
-8.763
20
15.76605
30
0
0
VERTEX
8
0
10
-8.763
20
14.71395
30
0
0
VERTEX
8
0
10
-8.01905
20
13.97
30
0
0
VERTEX
8
0
10
-6.966950000000001
20
13.97
30
0
0
SEQEND
0
POLYLINE
66
1
8
1_copper
10
0.0
20
0.0
30
0.0
70
1
0
VERTEX
8
0
10
-16.772371875
20
134.531115625
30
0
42
0.5205672485015899
0
VERTEX
8
0
10
-16.035765625
20
135.72845
30
0
0
VERTEX
8
0
10
-16.307871875
20
136.28883125000002
30
0
0
VERTEX
8
0
10
-12.265203125000001
20
138.449684375
30
0
42
0.024548982724050494
0
VERTEX
8
0
10
-12.239546875
20
138.46506250000002
30
0
0
VERTEX
8
0
10
-11.81324375
20
138.74990937500002
30
0
42
0.9784982480179475
0
VERTEX
8
0
10
-12.140428125000001
20
139.26338437500002
30
0
0
VERTEX
8
0
10
-12.15191875
20
139.256771875
30
0
0
VERTEX
8
0
10
-12.56576875
20
138.980246875
30
0
0
VERTEX
8
0
10
-16.574346875
20
136.837615625
30
0
0
VERTEX
8
0
10
-16.81735625
20
137.338075
30
0
42
0.9572920540573896
0
VERTEX
8
0
10
-18.359646875
20
136.58918125
30
0
0
VERTEX
8
0
10
-17.57805625
20
134.97955625
30
0
0
VERTEX
8
0
10
-17.539615625
20
134.91532187500002
30
0
0
VERTEX
8
0
10
-17.495721875
20
134.8546875
30
0
0
VERTEX
8
0
10
-17.446709375
20
134.79810625000002
30
0
0
VERTEX
8
0
10
-17.392953125000002
20
134.7460125
30
0
0
VERTEX
8
0
10
-17.334859375
20
134.6988
30
0
0
VERTEX
8
0
10
-17.272875
20
134.65683437500002
30
0
0
VERTEX
8
0
10
-17.207465625
20
134.62042812500002
30
0
0
VERTEX
8
0
10
-17.139134375
20
134.5898625
30
0
0
VERTEX
8
0
10
-17.0684
20
134.56536875
30
0
0
VERTEX
8
0
10
-16.995796875
20
134.54713125
30
0
0
VERTEX
8
0
10
-16.921884375
20
134.53529062500002
30
0
0
VERTEX
8
0
10
-16.84721875
20
134.529940625
30
0
0
SEQEND
0
POLYLINE
66
1
8
16_copper
10
0.0
20
0.0
30
0.0
70
1
0
VERTEX
8
0
10
-16.772371875
20
134.531115625
30
0
42
0.5205672485015899
0
VERTEX
8
0
10
-16.035765625
20
135.72845
30
0
0
VERTEX
8
0
10
-16.81735625
20
137.338075
30
0
42
0.9572920540573896
0
VERTEX
8
0
10
-18.359646875
20
136.58918125
30
0
0
VERTEX
8
0
10
-17.57805625
20
134.97955625
30
0
0
VERTEX
8
0
10
-17.539615625
20
134.91532187500002
30
0
0
VERTEX
8
0
10
-17.495721875
20
134.8546875
30
0
0
VERTEX
8
0
10
-17.446709375
20
134.79810625000002
30
0
0
VERTEX
8
0
10
-17.392953125000002
20
134.7460125
30
0
0
VERTEX
8
0
10
-17.334859375
20
134.6988
30
0
0
VERTEX
8
0
10
-17.272875
20
134.65683437500002
30
0
0
VERTEX
8
0
10
-17.207465625
20
134.62042812500002
30
0
0
VERTEX
8
0
10
-17.139134375
20
134.5898625
30
0
0
VERTEX
8
0
10
-17.0684
20
134.56536875
30
0
0
VERTEX
8
0
10
-16.995796875
20
134.54713125
30
0
0
VERTEX
8
0
10
-16.921884375
20
134.53529062500002
30
0
0
VERTEX
8
0
10
-16.84721875
20
134.529940625
30
0
0
SEQEND
0
POLYLINE
66
1
8
1_copper
10
0.0
20
0.0
30
0.0
70
1
0
VERTEX
8
0
10
-7.6596
20
129.26645625
30
0
0
VERTEX
8
0
10
-7.6596
20
129.81354375
30
0
0
VERTEX
8
0
10
-8.006
20
130.15994375
30
0
0
VERTEX
8
0
10
-8.006
20
133.9596
30
0
0
VERTEX
8
0
10
-7.986456250000001
20
133.9596
30
0
0
VERTEX
8
0
10
-7.599600000000001
20
134.34645625000002
30
0
0
VERTEX
8
0
10
-7.599600000000001
20
134.89354375000002
30
0
0
VERTEX
8
0
10
-7.986456250000001
20
135.28040000000001
30
0
0
VERTEX
8
0
10
-8.53354375
20
135.28040000000001
30
0
0
VERTEX
8
0
10
-8.9204
20
134.89354375000002
30
0
0
VERTEX
8
0
10
-8.9204
20
134.34645625000002
30
0
0
VERTEX
8
0
10
-8.53354375
20
133.9596
30
0
0
VERTEX
8
0
10
-8.514000000000001
20
133.9596
30
0
0
VERTEX
8
0
10
-8.514000000000001
20
130.2004
30
0
0
VERTEX
8
0
10
-8.59354375
20
130.2004
30
0
0
VERTEX
8
0
10
-8.980400000000001
20
129.81354375
30
0
0
VERTEX
8
0
10
-8.980400000000001
20
129.26645625
30
0
0
VERTEX
8
0
10
-8.59354375
20
128.8796
30
0
0
VERTEX
8
0
10
-8.04645625
20
128.8796
30
0
0
SEQEND
0
POLYLINE
66
1
8
16_copper
10
0.0
20
0.0
30
0.0
70
1
0
VERTEX
8
0
10
-7.599600000000001
20
134.34645625000002
30
0
0
VERTEX
8
0
10
-7.599600000000001
20
134.89354375000002
30
0
0
VERTEX
8
0
10
-7.986456250000001
20
135.28040000000001
30
0
0
VERTEX
8
0
10
-8.53354375
20
135.28040000000001
30
0
0
VERTEX
8
0
10
-8.9204
20
134.89354375000002
30
0
0
VERTEX
8
0
10
-8.9204
20
134.34645625000002
30
0
0
VERTEX
8
0
10
-8.53354375
20
133.9596
30
0
0
VERTEX
8
0
10
-7.986456250000001
20
133.9596
30
0
0
SEQEND
0
POLYLINE
66
1
8
16_copper
10
0.0
20
0.0
30
0.0
70
1
0
VERTEX
8
0
10
-7.6596
20
129.26645625
30
0
0
VERTEX
8
0
10
-7.6596
20
129.81354375
30
0
0
VERTEX
8
0
10
-8.04645625
20
130.2004
30
0
0
VERTEX
8
0
10
-8.59354375
20
130.2004
30
0
0
VERTEX
8
0
10
-8.980400000000001
20
129.81354375
30
0
0
VERTEX
8
0
10
-8.980400000000001
20
129.26645625
30
0
0
VERTEX
8
0
10
-8.59354375
20
128.8796
30
0
0
VERTEX
8
0
10
-8.04645625
20
128.8796
30
0
0
SEQEND
0
POLYLINE
66
1
8
1_copper
10
0.0
20
0.0
30
0.0
70
1
0
VERTEX
8
0
10
-2.63150625
20
33.595912500000004
30
0
42
0.36946631839665434
0
VERTEX
8
0
10
-2.399628125
20
33.831125
30
0
0
VERTEX
8
0
10
-2.388228125
20
33.992725
30
0
42
0.017609765872941056
0
VERTEX
8
0
10
-2.3876
20
34.010600000000004
30
0
0
VERTEX
8
0
10
-2.3876
20
36.0516875
30
0
0
VERTEX
8
0
10
0.8400062500000001
20
39.27929375
30
0
42
0.019821428332560186
0
VERTEX
8
0
10
0.8536656250000001
20
39.294081250000005
30
0
0
VERTEX
8
0
10
0.949265625
20
39.40618125
30
0
42
0.9999999999999999
0
VERTEX
8
0
10
0.562734375
20
39.73581875
30
0
0
VERTEX
8
0
10
0.473671875
20
39.631384375
30
0
0
VERTEX
8
0
10
-2.82120625
20
36.33650625
30
0
42
0.198912367379658
0
VERTEX
8
0
10
-2.8956
20
36.1569
30
0
0
VERTEX
8
0
10
-2.8956
20
34.019571875000004
30
0
0
VERTEX
8
0
10
-2.906371875
20
33.866875
30
0
0
VERTEX
8
0
10
-2.90605
20
33.827062500000004
30
0
0
VERTEX
8
0
10
-2.8995156250000003
20
33.787790625
30
0
0
VERTEX
8
0
10
-2.886921875
20
33.750021875
30
0
0
VERTEX
8
0
10
-2.86858125
20
33.714684375000004
30
0
0
VERTEX
8
0
10
-2.84494375
20
33.682646875
30
0
0
VERTEX
8
0
10
-2.81659375
20
33.654696875
30
0
0
VERTEX
8
0
10
-2.784221875
20
33.631521875000004
30
0
0
VERTEX
8
0
10
-2.748625
20
33.613687500000005
30
0
0
VERTEX
8
0
10
-2.71068125
20
33.6016375
30
0
0
VERTEX
8
0
10
-2.67131875
20
33.5956625
30
0
0
SEQEND
0
POLYLINE
66
1
8
16_copper
10
0.0
20
0.0
30
0.0
70
1
0
VERTEX
8
0
10
-1.379415625
20
98.442475
30
0
42
0.1790390709365824
0
VERTEX
8
0
10
-1.53960625
20
98.36960625
30
0
0
VERTEX
8
0
10
-4.939606250000001
20
94.96960625
30
0
42
0.198912367379658
0
VERTEX
8
0
10
-5.014
20
94.79
30
0
0
VERTEX
8
0
10
-5.014
20
83.7718
30
0
42
0.198912367379658
0
VERTEX
8
0
10
-4.939606250000001
20
83.59219375
30
0
0
VERTEX
8
0
10
0.40640000000000004
20
78.2461875
30
0
0
VERTEX
8
0
10
0.40640000000000004
20
39.6666
30
0
42
0.198912367379658
0
VERTEX
8
0
10
0.48079375
20
39.48699375
30
0
0
VERTEX
8
0
10
0.57639375
20
39.39139375
30
0
42
0.9999999999999999
0
VERTEX
8
0
10
0.9356062500000001
20
39.750606250000004
30
0
0
VERTEX
8
0
10
0.9144
20
39.7718125
30
0
0
VERTEX
8
0
10
0.9144
20
78.3514
30
0
42
0.198912367379658
0
VERTEX
8
0
10
0.8400062500000001
20
78.53100625
30
0
0
VERTEX
8
0
10
-4.506
20
83.8770125
30
0
0
VERTEX
8
0
10
-4.506
20
94.6847875
30
0
0
VERTEX
8
0
10
-1.2547875000000002
20
97.936
30
0
0
VERTEX
8
0
10
-0.9600000000000001
20
97.936
30
0
42
0.9999999999999999
0
VERTEX
8
0
10
-0.9600000000000001
20
98.444
30
0
0
VERTEX
8
0
10
-1.36
20
98.444
30
0
0
SEQEND
0
POLYLINE
66
1
8
1_copper
10
0.0
20
0.0
30
0.0
70
1
0
VERTEX
8
0
10
-2.2753843750000002
20
100.982453125
30
0
42
0.3916014460306381
0
VERTEX
8
0
10
-2.5097
20
100.73
30
0
0
VERTEX
8
0
10
-2.5097
20
87.5433
30
0
42
0.198912367379658
0
VERTEX
8
0
10
-2.43530625
20
87.36369375000001
30
0
0
VERTEX
8
0
10
26.021800000000002
20
58.9065875
30
0
0
VERTEX
8
0
10
26.021800000000002
20
30.8810125
30
0
0
VERTEX
8
0
10
24.8657875
20
29.725
30
0
0
VERTEX
8
0
10
1.5012125
20
29.725
30
0
0
VERTEX
8
0
10
1.35
20
29.8762125
30
0
0
VERTEX
8
0
10
1.35
20
37.3127875
30
0
0
VERTEX
8
0
10
3.3010625
20
39.263850000000005
30
0
0
VERTEX
8
0
10
3.4422968750000003
20
39.3633625
30
0
42
0.8872323766712804
0
VERTEX
8
0
10
3.196
20
39.825
30
0
0
VERTEX
8
0
10
3.176584375
20
39.823475
30
0
42
0.1790390709365824
0
VERTEX
8
0
10
3.01639375
20
39.750606250000004
30
0
0
VERTEX
8
0
10
0.91639375
20
37.65060625
30
0
42
0.13712052134396027
0
VERTEX
8
0
10
0.8500562500000001
20
37.53126875
30
0
0
VERTEX
8
0
10
-0.17960625
20
36.50160625
30
0
42
0.198912367379658
0
VERTEX
8
0
10
-0.254
20
36.322
30
0
0
VERTEX
8
0
10
-0.254
20
34.090596875
30
0
0
VERTEX
8
0
10
-0.32115625000000003
20
33.99455625
30
0
42
0.9999999999999999
0
VERTEX
8
0
10
0.09515625
20
33.70344375
30
0
0
VERTEX
8
0
10
0.20815625000000001
20
33.86504375
30
0
42
0.1537526870267704
0
VERTEX
8
0
10
0.254
20
34.010600000000004
30
0
0
VERTEX
8
0
10
0.254
20
36.2167875
30
0
0
VERTEX
8
0
10
0.8420000000000001
20
36.8047875
30
0
0
VERTEX
8
0
10
0.8420000000000001
20
29.771
30
0
42
0.198912367379658
0
VERTEX
8
0
10
0.91639375
20
29.59139375
30
0
0
VERTEX
8
0
10
1.2163937500000002
20
29.29139375
30
0
42
0.198912367379658
0
VERTEX
8
0
10
1.3960000000000001
20
29.217000000000002
30
0
0
VERTEX
8
0
10
24.971
20
29.217000000000002
30
0
42
0.198912367379658
0
VERTEX
8
0
10
25.150606250000003
20
29.29139375
30
0
0
VERTEX
8
0
10
26.455406250000003
20
30.59619375
30
0
42
0.198912367379658
0
VERTEX
8
0
10
26.5298
20
30.7758
30
0
0
VERTEX
8
0
10
26.5298
20
59.0118
30
0
42
0.198912367379658
0
VERTEX
8
0
10
26.455406250000003
20
59.19140625
30
0
0
VERTEX
8
0
10
-2.0017
20
87.64851250000001
30
0
0
VERTEX
8
0
10
-2.0017
20
100.476
30
0
0
VERTEX
8
0
10
-0.9600000000000001
20
100.476
30
0
42
0.9999999999999999
0
VERTEX
8
0
10
-0.9600000000000001
20
100.98400000000001
30
0
0
VERTEX
8
0
10
-2.2557
20
100.98400000000001
30
0
0
SEQEND
0
POLYLINE
66
1
8
1_copper
10
0.0
20
0.0
30
0.0
70
1
0
VERTEX
8
0
10
-2.255865625
20
118.76247500000001
30
0
42
0.13859464467461258
0
VERTEX
8
0
10
-2.3856031250000003
20
118.71559375000001
30
0
0
VERTEX
8
0
10
-2.415896875
20
118.6897625
30
0
42
0.29325300443173774
0
VERTEX
8
0
10
-2.557
20
118.44345000000001
30
0
0
VERTEX
8
0
10
-2.557
20
112.287
30
0
42
0.41421356237309503
0
VERTEX
8
0
10
-2.303
20
112.033
30
0
0
VERTEX
8
0
10
2.0515531250000003
20
112.033
30
0
0
VERTEX
8
0
10
13.323578125000001
20
100.760975
30
0
42
0.9999999999999999
0
VERTEX
8
0
10
13.682790625
20
101.1201875
30
0
0
VERTEX
8
0
10
2.336371875
20
112.46660625000001
30
0
42
0.198912367379658
0
VERTEX
8
0
10
2.1567656250000002
20
112.54100000000001
30
0
0
VERTEX
8
0
10
-2.049
20
112.54100000000001
30
0
0
VERTEX
8
0
10
-2.049
20
118.256
30
0
0
VERTEX
8
0
10
-0.9600000000000001
20
118.256
30
0
42
0.9999999999999999
0
VERTEX
8
0
10
-0.9600000000000001
20
118.76400000000001
30
0
0
VERTEX
8
0
10
-2.23645
20
118.76400000000001
30
0
0
SEQEND
0
POLYLINE
66
1
8
16_copper
10
0.0
20
0.0
30
0.0
70
1
0
VERTEX
8
0
10
13.821000000000002
20
102.670203125
30
0
42
0.6131650723114669
0
VERTEX
8
0
10
13.961137500000001
20
103.10072500000001
30
0
0
VERTEX
8
0
10
0.91225625
20
116.14960625
30
0
42
0.198912367379658
0
VERTEX
8
0
10
0.73265
20
116.224
30
0
0
VERTEX
8
0
10
-0.9600000000000001
20
116.224
30
0
42
0.9228431308911045
0
VERTEX
8
0
10
-1.000571875
20
115.7192625
30
0
0
VERTEX
8
0
10
-0.9600000000000001
20
115.71600000000001
30
0
0
VERTEX
8
0
10
0.6274375
20
115.71600000000001
30
0
0
VERTEX
8
0
10
13.601925000000001
20
102.7415125
30
0
0
VERTEX
8
0
10
13.632196875
20
102.715653125
30
0
0
VERTEX
8
0
10
13.666137500000001
20
102.69484375
30
0
0
VERTEX
8
0
10
13.7029125
20
102.679590625
30
0
0
VERTEX
8
0
10
13.741621875
20
102.670275
30
0
0
VERTEX
8
0
10
13.781309375000001
20
102.66711875
30
0
0
SEQEND
0
POLYLINE
66
1
8
1_copper
10
0.0
20
0.0
30
0.0
70
1
0
VERTEX
8
0
10
-5.6896
20
110.61645625
30
0
0
VERTEX
8
0
10
-5.6896
20
110.66300000000001
30
0
0
VERTEX
8
0
10
-4.470400000000001
20
110.66300000000001
30
0
0
VERTEX
8
0
10
-4.470400000000001
20
110.61645625
30
0
0
VERTEX
8
0
10
-4.0835437500000005
20
110.2296
30
0
0
VERTEX
8
0
10
-3.53645625
20
110.2296
30
0
0
VERTEX
8
0
10
-3.1496
20
110.61645625
30
0
0
VERTEX
8
0
10
-3.1496
20
111.16354375
30
0
0
VERTEX
8
0
10
-3.53645625
20
111.55040000000001
30
0
0
VERTEX
8
0
10
-4.0835437500000005
20
111.55040000000001
30
0
0
VERTEX
8
0
10
-4.46294375
20
111.171
30
0
0
VERTEX
8
0
10
-5.69705625
20
111.171
30
0
0
VERTEX
8
0
10
-6.076456250000001
20
111.55040000000001
30
0
0
VERTEX
8
0
10
-6.6235437500000005
20
111.55040000000001
30
0
0
VERTEX
8
0
10
-7.010400000000001
20
111.16354375
30
0
0
VERTEX
8
0
10
-7.010400000000001
20
111.1059
30
0
0
VERTEX
8
0
10
-16.016334375
20
111.1059
30
0
0
VERTEX
8
0
10
-16.138396875
20
111.13641562500001
30
0
42
0.9999999999999999
0
VERTEX
8
0
10
-16.261603125
20
110.643584375
30
0
0
VERTEX
8
0
10
-16.109203125
20
110.605484375
30
0
42
0.0613206064415509
0
VERTEX
8
0
10
-16.0476
20
110.59790000000001
30
0
0
VERTEX
8
0
10
-6.99184375
20
110.59790000000001
30
0
0
VERTEX
8
0
10
-6.6235437500000005
20
110.2296
30
0
0
VERTEX
8
0
10
-6.076456250000001
20
110.2296
30
0
0
SEQEND
0
POLYLINE
66
1
8
16_copper
10
0.0
20
0.0
30
0.0
70
1
0
VERTEX
8
0
10
-3.1496
20
110.61645625
30
0
0
VERTEX
8
0
10
-3.1496
20
111.16354375
30
0
0
VERTEX
8
0
10
-3.53645625
20
111.55040000000001
30
0
0
VERTEX
8
0
10
-4.0835437500000005
20
111.55040000000001
30
0
0
VERTEX
8
0
10
-4.470400000000001
20
111.16354375
30
0
0
VERTEX
8
0
10
-4.470400000000001
20
110.61645625
30
0
0
VERTEX
8
0
10
-4.0835437500000005
20
110.2296
30
0
0
VERTEX
8
0
10
-3.53645625
20
110.2296
30
0
0
SEQEND
0
POLYLINE
66
1
8
16_copper
10
0.0
20
0.0
30
0.0
70
1
0
VERTEX
8
0
10
-5.6896
20
110.61645625
30
0
0
VERTEX
8
0
10
-5.6896
20
111.16354375
30
0
0
VERTEX
8
0
10
-6.076456250000001
20
111.55040000000001
30
0
0
VERTEX
8
0
10
-6.6235437500000005
20
111.55040000000001
30
0
0
VERTEX
8
0
10
-7.010400000000001
20
111.16354375
30
0
0
VERTEX
8
0
10
-7.010400000000001
20
110.61645625
30
0
0
VERTEX
8
0
10
-6.6235437500000005
20
110.2296
30
0
0
VERTEX
8
0
10
-6.076456250000001
20
110.2296
30
0
0
SEQEND
0
POLYLINE
66
1
8
1_copper
10
0.0
20
0.0
30
0.0
70
1
0
VERTEX
8
0
10
-14.826059375000002
20
84.828271875
30
0
42
0.6165560099113058
0
VERTEX
8
0
10
-14.646
20
85.48085625
30
0
0
VERTEX
8
0
10
-14.646
20
91.81
30
0
42
0.198912367379658
0
VERTEX
8
0
10
-14.720393750000001
20
91.98960625000001
30
0
0
VERTEX
8
0
10
-16.02039375
20
93.28960625
30
0
42
0.9999999999999999
0
VERTEX
8
0
10
-16.379606250000002
20
92.93039375000001
30
0
0
VERTEX
8
0
10
-15.154
20
91.70478750000001
30
0
0
VERTEX
8
0
10
-15.154
20
85.48085625
30
0
0
VERTEX
8
0
10
-15.18495625
20
85.4499
30
0
0
VERTEX
8
0
10
-15.2151375
20
85.41056875000001
30
0
0
VERTEX
8
0
10
-15.239925000000001
20
85.36763125
30
0
0
VERTEX
8
0
10
-15.258896875000001
20
85.32182812500001
30
0
0
VERTEX
8
0
10
-15.271728125000001
20
85.27394062500001
30
0
0
VERTEX
8
0
10
-15.2782
20
85.2247875
30
0
0
VERTEX
8
0
10
-15.2782
20
85.1752125
30
0
0
VERTEX
8
0
10
-15.271728125000001
20
85.126059375
30
0
0
VERTEX
8
0
10
-15.258896875000001
20
85.07817187500001
30
0
0
VERTEX
8
0
10
-15.239925000000001
20
85.03236875
30
0
0
VERTEX
8
0
10
-15.2151375
20
84.98943125000001
30
0
0
VERTEX
8
0
10
-15.18495625
20
84.9501
30
0
0
VERTEX
8
0
10
-15.1499
20
84.91504375000001
30
0
0
VERTEX
8
0
10
-15.11056875
20
84.8848625
30
0
0
VERTEX
8
0
10
-15.067631250000002
20
84.86007500000001
30
0
0
VERTEX
8
0
10
-15.021828125
20
84.841103125
30
0
0
VERTEX
8
0
10
-14.973940625000001
20
84.828271875
30
0
0
VERTEX
8
0
10
-14.9247875
20
84.82180000000001
30
0
0
VERTEX
8
0
10
-14.8752125
20
84.82180000000001
30
0
0
SEQEND
0
POLYLINE
66
1
8
16_copper
10
0.0
20
0.0
30
0.0
70
1
0
VERTEX
8
0
10
-6.824750000000001
20
39.32005
30
0
42
0.36946801241560906
0
VERTEX
8
0
10
-6.61
20
39.571000000000005
30
0
0
VERTEX
8
0
10
-6.61
20
45.1657875
30
0
0
VERTEX
8
0
10
-0.6545937500000001
20
51.12119375
30
0
42
0.198912367379658
0
VERTEX
8
0
10
-0.5802
20
51.3008
30
0
0
VERTEX
8
0
10
-0.5802
20
77.8442
30
0
42
0.198912367379658
0
VERTEX
8
0
10
-0.6545937500000001
20
78.02380625
30
0
0
VERTEX
8
0
10
-6.31039375
20
83.67960625
30
0
42
0.198912367379658
0
VERTEX
8
0
10
-6.49
20
83.754
30
0
0
VERTEX
8
0
10
-13.0947875
20
83.754
30
0
0
VERTEX
8
0
10
-14.5218
20
85.18101250000001
30
0
42
0.9923868960061771
0
VERTEX
8
0
10
-15.2782
20
85.2247875
30
0
0
VERTEX
8
0
10
-15.2782
20
85.1752125
30
0
42
0.40974394282901455
0
VERTEX
8
0
10
-14.8810125
20
84.82180000000001
30
0
0
VERTEX
8
0
10
-13.37960625
20
83.32039375000001
30
0
42
0.198912367379658
0
VERTEX
8
0
10
-13.200000000000001
20
83.24600000000001
30
0
0
VERTEX
8
0
10
-6.595212500000001
20
83.24600000000001
30
0
0
VERTEX
8
0
10
-1.0882
20
77.73898750000001
30
0
0
VERTEX
8
0
10
-1.0882
20
51.4060125
30
0
0
VERTEX
8
0
10
-7.043606250000001
20
45.45060625
30
0
42
0.198912367379658
0
VERTEX
8
0
10
-7.118
20
45.271
30
0
0
VERTEX
8
0
10
-7.118
20
39.571000000000005
30
0
0
VERTEX
8
0
10
-7.114881250000001
20
39.531309375
30
0
0
VERTEX
8
0
10
-7.105596875000001
20
39.492593750000005
30
0
0
VERTEX
8
0
10
-7.090375000000001
20
39.45580625
30
0
0
VERTEX
8
0
10
-7.06959375
20
39.421846875
30
0
0
VERTEX
8
0
10
-7.043762500000001
20
39.391553125
30
0
0
VERTEX
8
0
10
-7.0135125
20
39.365665625000005
30
0
0
VERTEX
8
0
10
-6.979590625
20
39.344825
30
0
0
VERTEX
8
0
10
-6.942828125
20
39.329540625
30
0
0
VERTEX
8
0
10
-6.904131250000001
20
39.320190625
30
0
0
VERTEX
8
0
10
-6.8644468750000005
20
39.317
30
0
0
SEQEND
0
POLYLINE
66
1
8
1_copper
10
0.0
20
0.0
30
0.0
70
1
0
VERTEX
8
0
10
-3.354815625
20
107.407075
30
0
42
0.1790390709365824
0
VERTEX
8
0
10
-3.5150062500000003
20
107.33420625000001
30
0
0
VERTEX
8
0
10
-3.81
20
107.0392125
30
0
0
VERTEX
8
0
10
-4.97659375
20
108.20580625000001
30
0
42
0.198912367379658
0
VERTEX
8
0
10
-5.1562
20
108.28020000000001
30
0
0
VERTEX
8
0
10
-6.90761875
20
108.28020000000001
30
0
42
0.198912367379658
0
VERTEX
8
0
10
-7.087225
20
108.20580625000001
30
0
0
VERTEX
8
0
10
-12.53660625
20
102.75642500000001
30
0
42
0.198912367379658
0
VERTEX
8
0
10
-12.611
20
102.57681875
30
0
0
VERTEX
8
0
10
-12.611
20
84.77131250000001
30
0
0
VERTEX
8
0
10
-16.753759375
20
80.62855312500001
30
0
42
0.198912367379658
0
VERTEX
8
0
10
-16.828153125
20
80.448946875
30
0
0
VERTEX
8
0
10
-16.828153125
20
79.61426875000001
30
0
42
0.9228431308911045
0
VERTEX
8
0
10
-16.323415625
20
79.57369687500001
30
0
0
VERTEX
8
0
10
-16.320153125
20
79.61426875000001
30
0
0
VERTEX
8
0
10
-16.320153125
20
80.343734375
30
0
0
VERTEX
8
0
10
-12.17739375
20
84.48649375000001
30
0
42
0.198912367379658
0
VERTEX
8
0
10
-12.103
20
84.6661
30
0
0
VERTEX
8
0
10
-12.103
20
102.47160625000001
30
0
0
VERTEX
8
0
10
-6.802406250000001
20
107.77220000000001
30
0
0
VERTEX
8
0
10
-5.2614125000000005
20
107.77220000000001
30
0
0
VERTEX
8
0
10
-3.98960625
20
106.50039375
30
0
42
0.41421356237309503
0
VERTEX
8
0
10
-3.63039375
20
106.50039375
30
0
0
VERTEX
8
0
10
-3.2301875
20
106.90060000000001
30
0
0
VERTEX
8
0
10
4.7665875
20
106.90060000000001
30
0
0
VERTEX
8
0
10
11.79619375
20
99.87099375000001
30
0
42
0.198912367379658
0
VERTEX
8
0
10
11.975800000000001
20
99.7966
30
0
0
VERTEX
8
0
10
12.366696875
20
99.7966
30
0
0
VERTEX
8
0
10
13.013015625000001
20
98.819878125
30
0
42
0.9999999999999999
0
VERTEX
8
0
10
13.436659375000001
20
99.100215625
30
0
0
VERTEX
8
0
10
12.715015625000001
20
100.19076875
30
0
42
0.2516754304293733
0
VERTEX
8
0
10
12.503193750000001
20
100.30460000000001
30
0
0
VERTEX
8
0
10
12.0810125
20
100.30460000000001
30
0
0
VERTEX
8
0
10
5.05140625
20
107.33420625000001
30
0
42
0.198912367379658
0
VERTEX
8
0
10
4.8718
20
107.4086
30
0
0
VERTEX
8
0
10
-3.3354000000000004
20
107.4086
30
0
0
SEQEND
0
POLYLINE
66
1
8
1_copper
10
0.0
20
0.0
30
0.0
70
1
0
VERTEX
8
0
10
-5.324853125000001
20
70.337765625
30
0
42
0.916331393922359
0
VERTEX
8
0
10
-5.402184375
20
72.10900000000001
30
0
0
VERTEX
8
0
10
-7.257815625
20
72.10900000000001
30
0
42
0.9572906161637668
0
VERTEX
8
0
10
-7.257815625
20
70.331
30
0
0
VERTEX
8
0
10
-5.402184375
20
70.331
30
0
0
SEQEND
0
POLYLINE
66
1
8
1_copper
10
0.0
20
0.0
30
0.0
70
1
0
VERTEX
8
0
10
10.635681250000001
20
67.27565
30
0
42
0.9063476327778771
0
VERTEX
8
0
10
10.5661375
20
68.69120000000001
30
0
0
VERTEX
8
0
10
9.0738625
20
68.69120000000001
30
0
42
0.9520811731250587
0
VERTEX
8
0
10
9.0738625
20
67.2688
30
0
0
VERTEX
8
0
10
10.5661375
20
67.2688
30
0
0
SEQEND
0
POLYLINE
66
1
8
1_copper
10
0.0
20
0.0
30
0.0
70
1
0
VERTEX
8
0
10
10.635681250000001
20
54.57565
30
0
42
0.9063476327778771
0
VERTEX
8
0
10
10.5661375
20
55.9912
30
0
0
VERTEX
8
0
10
9.4680125
20
55.9912
30
0
0
VERTEX
8
0
10
9.27580625
20
56.183406250000004
30
0
42
0.198912367379658
0
VERTEX
8
0
10
9.0962
20
56.2578
30
0
0
VERTEX
8
0
10
-4.59605625
20
56.2578
30
0
42
0.311944707238983
0
VERTEX
8
0
10
-5.402184375
20
56.869
30
0
0
VERTEX
8
0
10
-7.257815625
20
56.869
30
0
42
0.9572906161637668
0
VERTEX
8
0
10
-7.257815625
20
55.091
30
0
0
VERTEX
8
0
10
-5.402184375
20
55.091
30
0
42
0.3272976179502425
0
VERTEX
8
0
10
-4.582321875
20
55.7498
30
0
0
VERTEX
8
0
10
8.574315625
20
55.7498
30
0
42
0.6279215014978098
0
VERTEX
8
0
10
9.0738625
20
54.5688
30
0
0
VERTEX
8
0
10
10.5661375
20
54.5688
30
0
0
SEQEND
0
POLYLINE
66
1
8
16_copper
10
0.0
20
0.0
30
0.0
70
1
0
VERTEX
8
0
10
-1.452865625
20
117.365475
30
0
42
0.1790390709365824
0
VERTEX
8
0
10
-1.61305625
20
117.29260625
30
0
0
VERTEX
8
0
10
-2.42120625
20
116.48445625000001
30
0
42
0.198912367379658
0
VERTEX
8
0
10
-2.4956
20
116.30485
30
0
0
VERTEX
8
0
10
-2.4956
20
108.4806125
30
0
0
VERTEX
8
0
10
-3.98960625
20
106.98660625000001
30
0
42
0.198912367379658
0
VERTEX
8
0
10
-4.064
20
106.807
30
0
0
VERTEX
8
0
10
-4.064
20
106.68
30
0
42
0.9228431308911045
0
VERTEX
8
0
10
-3.5592625
20
106.63942812500001
30
0
0
VERTEX
8
0
10
-3.556
20
106.68
30
0
0
VERTEX
8
0
10
-3.556
20
106.70178750000001
30
0
0
VERTEX
8
0
10
-2.06199375
20
108.19579375
30
0
42
0.198912367379658
0
VERTEX
8
0
10
-1.9876
20
108.3754
30
0
0
VERTEX
8
0
10
-1.9876
20
116.19963750000001
30
0
0
VERTEX
8
0
10
-1.3282375
20
116.85900000000001
30
0
0
VERTEX
8
0
10
2.626484375
20
116.85900000000001
30
0
0
VERTEX
8
0
10
3.745090625
20
115.74039375000001
30
0
42
0.198912367379658
0
VERTEX
8
0
10
3.924696875
20
115.66600000000001
30
0
0
VERTEX
8
0
10
5.46
20
115.66600000000001
30
0
42
0.9999999999999999
0
VERTEX
8
0
10
5.46
20
116.174
30
0
0
VERTEX
8
0
10
4.029909375
20
116.174
30
0
0
VERTEX
8
0
10
2.9113031250000003
20
117.29260625
30
0
42
0.198912367379658
0
VERTEX
8
0
10
2.731696875
20
117.367
30
0
0
VERTEX
8
0
10
-1.4334500000000001
20
117.367
30
0
0
SEQEND
0
POLYLINE
66
1
8
16_copper
10
0.0
20
0.0
30
0.0
70
1
0
VERTEX
8
0
10
-16.322984375
20
71.472453125
30
0
42
0.3916014460306381
0
VERTEX
8
0
10
-16.5573
20
71.22
30
0
0
VERTEX
8
0
10
-16.5573
20
56.2246
30
0
42
0.41421356237309503
0
VERTEX
8
0
10
-16.3033
20
55.970600000000005
30
0
0
VERTEX
8
0
10
-8.108
20
55.970600000000005
30
0
42
0.3984241627883173
0
VERTEX
8
0
10
-7.257815625
20
55.091
30
0
0
VERTEX
8
0
10
-5.402184375
20
55.091
30
0
42
0.9572906161637668
0
VERTEX
8
0
10
-5.402184375
20
56.869
30
0
0
VERTEX
8
0
10
-7.257815625
20
56.869
30
0
42
0.23726429336485116
0
VERTEX
8
0
10
-7.9551468750000005
20
56.4786
30
0
0
VERTEX
8
0
10
-16.049300000000002
20
56.4786
30
0
0
VERTEX
8
0
10
-16.049300000000002
20
70.96600000000001
30
0
0
VERTEX
8
0
10
-8.0713
20
70.96600000000001
30
0
42
0.319645473117655
0
VERTEX
8
0
10
-7.257815625
20
70.331
30
0
0
VERTEX
8
0
10
-5.402184375
20
70.331
30
0
42
0.9572906161637668
0
VERTEX
8
0
10
-5.402184375
20
72.10900000000001
30
0
0
VERTEX
8
0
10
-7.257815625
20
72.10900000000001
30
0
42
0.15772798544457364
0
VERTEX
8
0
10
-7.770859375000001
20
71.917440625
30
0
0
VERTEX
8
0
10
-16.0211
20
74.392515625
30
0
0
VERTEX
8
0
10
-16.0211
20
79.59058125
30
0
42
0.3912470767086493
0
VERTEX
8
0
10
-16.255043750000002
20
79.8437875
30
0
0
VERTEX
8
0
10
-16.554096875
20
79.867475
30
0
42
0.9999999999999999
0
VERTEX
8
0
10
-16.594209375000002
20
79.3610625
30
0
0
VERTEX
8
0
10
-16.5291
20
79.35590625
30
0
0
VERTEX
8
0
10
-16.5291
20
74.20353125
30
0
42
0.33120485766517377
0
VERTEX
8
0
10
-16.348087500000002
20
73.96024375
30
0
0
VERTEX
8
0
10
-8.070506250000001
20
71.47696875
30
0
0
VERTEX
8
0
10
-8.0713
20
71.474
30
0
0
VERTEX
8
0
10
-16.3033
20
71.474
30
0
0
SEQEND
0
POLYLINE
66
1
8
16_copper
10
0.0
20
0.0
30
0.0
70
1
0
VERTEX
8
0
10
10.635681250000001
20
54.57565
30
0
42
0.2709724816999697
0
VERTEX
8
0
10
11.1957875
20
55.026
30
0
0
VERTEX
8
0
10
13.075800000000001
20
55.026
30
0
42
0.41421356237309503
0
VERTEX
8
0
10
13.3298
20
55.28
30
0
0
VERTEX
8
0
10
13.3298
20
67.98
30
0
42
0.41421356237309503
0
VERTEX
8
0
10
13.075800000000001
20
68.23400000000001
30
0
0
VERTEX
8
0
10
11.1957875
20
68.23400000000001
30
0
42
0.2975009544802419
0
VERTEX
8
0
10
10.5661375
20
68.69120000000001
30
0
0
VERTEX
8
0
10
9.0738625
20
68.69120000000001
30
0
42
0.9520811731250587
0
VERTEX
8
0
10
9.0738625
20
67.2688
30
0
0
VERTEX
8
0
10
10.5661375
20
67.2688
30
0
42
0.2975009544802419
0
VERTEX
8
0
10
11.1957875
20
67.726
30
0
0
VERTEX
8
0
10
12.821800000000001
20
67.726
30
0
0
VERTEX
8
0
10
12.821800000000001
20
55.534000000000006
30
0
0
VERTEX
8
0
10
11.1957875
20
55.534000000000006
30
0
42
0.2975009544802419
0
VERTEX
8
0
10
10.5661375
20
55.9912
30
0
0
VERTEX
8
0
10
9.0738625
20
55.9912
30
0
42
0.9520811731250587
0
VERTEX
8
0
10
9.0738625
20
54.5688
30
0
0
VERTEX
8
0
10
10.5661375
20
54.5688
30
0
0
SEQEND
0
POLYLINE
66
1
8
1_copper
10
0.0
20
0.0
30
0.0
70
1
0
VERTEX
8
0
10
-6.969415625
20
106.93247500000001
30
0
42
0.1790390709365824
0
VERTEX
8
0
10
-7.12960625
20
106.85960625
30
0
0
VERTEX
8
0
10
-11.62120625
20
102.36800625000001
30
0
42
0.198912367379658
0
VERTEX
8
0
10
-11.6956
20
102.1884
30
0
0
VERTEX
8
0
10
-11.6956
20
92.6316
30
0
42
0.198912367379658
0
VERTEX
8
0
10
-11.62120625
20
92.45199375
30
0
0
VERTEX
8
0
10
-7.019606250000001
20
87.85039375000001
30
0
42
0.198912367379658
0
VERTEX
8
0
10
-6.840000000000001
20
87.77600000000001
30
0
0
VERTEX
8
0
10
-6.04
20
87.77600000000001
30
0
42
0.9999999999999999
0
VERTEX
8
0
10
-6.04
20
88.284
30
0
0
VERTEX
8
0
10
-6.7347875
20
88.284
30
0
0
VERTEX
8
0
10
-11.1876
20
92.7368125
30
0
0
VERTEX
8
0
10
-11.1876
20
102.08318750000001
30
0
0
VERTEX
8
0
10
-6.844787500000001
20
106.426
30
0
0
VERTEX
8
0
10
-6.3500000000000005
20
106.426
30
0
42
0.9999999999999999
0
VERTEX
8
0
10
-6.3500000000000005
20
106.93400000000001
30
0
0
VERTEX
8
0
10
-6.95
20
106.93400000000001
30
0
0
SEQEND
0
POLYLINE
66
1
8
16_copper
10
0.0
20
0.0
30
0.0
70
1
0
VERTEX
8
0
10
-6.32609375
20
106.42712812500001
30
0
42
0.5604301676654488
0
VERTEX
8
0
10
-6.135709375
20
106.816365625
30
0
0
VERTEX
8
0
10
-6.184900000000001
20
106.89366562500001
30
0
0
VERTEX
8
0
10
-6.184900000000001
20
107.07000000000001
30
0
42
0.4791681797082463
0
VERTEX
8
0
10
-6.4947875
20
107.324
30
0
0
VERTEX
8
0
10
-15.320393750000001
20
116.14960625
30
0
42
0.198912367379658
0
VERTEX
8
0
10
-15.5
20
116.224
30
0
0
VERTEX
8
0
10
-16.2
20
116.224
30
0
42
0.9228431308911045
0
VERTEX
8
0
10
-16.240571875
20
115.7192625
30
0
0
VERTEX
8
0
10
-16.2
20
115.71600000000001
30
0
0
VERTEX
8
0
10
-15.6052125
20
115.71600000000001
30
0
0
VERTEX
8
0
10
-6.7796062500000005
20
106.89039375
30
0
42
0.058468124885647794
0
VERTEX
8
0
10
-6.732740625
20
106.85436250000001
30
0
0
VERTEX
8
0
10
-6.715987500000001
20
106.84402812500001
30
0
42
0.1650497770263031
0
VERTEX
8
0
10
-6.653190625000001
20
106.683334375
30
0
0
VERTEX
8
0
10
-6.564290625
20
106.54363437500001
30
0
0
VERTEX
8
0
10
-6.54035
20
106.511825
30
0
0
VERTEX
8
0
10
-6.51173125
20
106.48414687500001
30
0
0
VERTEX
8
0
10
-6.479140625
20
106.461278125
30
0
0
VERTEX
8
0
10
-6.4433750000000005
20
106.4437875
30
0
0
VERTEX
8
0
10
-6.40531875
20
106.432096875
30
0
0
VERTEX
8
0
10
-6.3659
20
106.426496875
30
0
0
SEQEND
0
POLYLINE
66
1
8
1_copper
10
0.0
20
0.0
30
0.0
70
1
0
VERTEX
8
0
10
-26.574125000000002
20
102.181475
30
0
42
0.32550014705654756
0
VERTEX
8
0
10
-26.378315625000003
20
102.407475
30
0
0
VERTEX
8
0
10
-26.32800625
20
103.00094375
30
0
42
0.021146570268913856
0
VERTEX
8
0
10
-26.3271
20
103.0224
30
0
0
VERTEX
8
0
10
-26.3271
20
109.1311
30
0
42
0.9314526997394181
0
VERTEX
8
0
10
-26.832546875000002
20
109.167021875
30
0
0
VERTEX
8
0
10
-26.88285625
20
108.814853125
30
0
42
0.1980058010674045
0
VERTEX
8
0
10
-26.8351
20
108.627271875
30
0
0
VERTEX
8
0
10
-26.8351
20
103.03316562500001
30
0
0
VERTEX
8
0
10
-26.884503125000002
20
102.4503875
30
0
0
VERTEX
8
0
10
-26.884743750000002
20
102.41057500000001
30
0
0
VERTEX
8
0
10
-26.878765625
20
102.3712125
30
0
0
VERTEX
8
0
10
-26.86670625
20
102.33326875
30
0
0
VERTEX
8
0
10
-26.84886875
20
102.297678125
30
0
0
VERTEX
8
0
10
-26.8256875
20
102.265309375
30
0
0
VERTEX
8
0
10
-26.797734375
20
102.2369625
30
0
0
VERTEX
8
0
10
-26.76569375
20
102.213328125
30
0
0
VERTEX
8
0
10
-26.730353125
20
102.19499375000001
30
0
0
VERTEX
8
0
10
-26.69258125
20
102.18240625
30
0
0
VERTEX
8
0
10
-26.653309375000003
20
102.17587812500001
30
0
0
VERTEX
8
0
10
-26.613496875000003
20
102.1755625
30
0
0
SEQEND
0
POLYLINE
66
1
8
1_copper
10
0.0
20
0.0
30
0.0
70
1
0
VERTEX
8
0
10
17.77584375
20
86.344075
30
0
42
0.1790390709365824
0
VERTEX
8
0
10
17.615653125
20
86.27120625
30
0
0
VERTEX
8
0
10
16.40455
20
85.060103125
30
0
42
0.18258032715157618
0
VERTEX
8
0
10
16.330659375
20
84.89649687500001
30
0
0
VERTEX
8
0
10
16.256503125000002
20
83.7217
30
0
42
0.9999999999999999
0
VERTEX
8
0
10
16.763496875
20
83.6897
30
0
0
VERTEX
8
0
10
16.831609375
20
84.7687375
30
0
0
VERTEX
8
0
10
17.900471875
20
85.83760000000001
30
0
0
VERTEX
8
0
10
24.0919625
20
85.83760000000001
30
0
42
0.198912367379658
0
VERTEX
8
0
10
24.27156875
20
85.91199375000001
30
0
0
VERTEX
8
0
10
25.664825
20
87.30525
30
0
42
0.6316641908666507
0
VERTEX
8
0
10
26.642496875000003
20
87.52416562500001
30
0
0
VERTEX
8
0
10
26.83765
20
88.677996875
30
0
42
0.9454188612630903
0
VERTEX
8
0
10
25.745165625000002
20
88.862771875
30
0
0
VERTEX
8
0
10
25.590709375000003
20
87.949559375
30
0
0
VERTEX
8
0
10
23.98675
20
86.3456
30
0
0
VERTEX
8
0
10
17.795259375
20
86.3456
30
0
0
SEQEND
0
POLYLINE
66
1
8
1_copper
10
0.0
20
0.0
30
0.0
70
1
0
VERTEX
8
0
10
24.098621875000003
20
33.547706250000005
30
0
42
0.9244717320471936
0
VERTEX
8
0
10
24.05893125
20
34.0525875
30
0
0
VERTEX
8
0
10
14.350725
20
34.0525875
30
0
0
VERTEX
8
0
10
8.764806250000001
20
39.63850625
30
0
42
0.07350256022192883
0
VERTEX
8
0
10
8.70516875
20
39.682784375000004
30
0
0
VERTEX
8
0
10
8.495968750000001
20
39.794884375
30
0
42
0.32009269453788786
0
VERTEX
8
0
10
8.203378125
20
39.757328125
30
0
0
VERTEX
8
0
10
8.082378125
20
39.645228125
30
0
42
0.009541725971411364
0
VERTEX
8
0
10
8.07539375
20
39.63850625
30
0
0
VERTEX
8
0
10
2.7014875000000003
20
34.2646
30
0
0
VERTEX
8
0
10
2.4765
20
34.2646
30
0
42
0.3296043388067736
0
VERTEX
8
0
10
2.2336375
20
34.084990625
30
0
0
VERTEX
8
0
10
2.1841375000000003
20
33.923390625
30
0
42
0.9625372650137554
0
VERTEX
8
0
10
2.6627218750000003
20
33.7566
30
0
0
VERTEX
8
0
10
2.8067
20
33.7566
30
0
42
0.198912367379658
0
VERTEX
8
0
10
2.98630625
20
33.830993750000005
30
0
0
VERTEX
8
0
10
8.4164625
20
39.26115
30
0
0
VERTEX
8
0
10
8.432140625
20
39.252746875
30
0
0
VERTEX
8
0
10
14.065906250000001
20
33.618981250000004
30
0
42
0.198912367379658
0
VERTEX
8
0
10
14.2455125
20
33.5445875
30
0
0
VERTEX
8
0
10
24.05893125
20
33.5445875
30
0
0
SEQEND
0
POLYLINE
66
1
8
16_copper
10
0.0
20
0.0
30
0.0
70
1
0
VERTEX
8
0
10
-15.225615625000001
20
124.49627500000001
30
0
42
0.1790390709365824
0
VERTEX
8
0
10
-15.38580625
20
124.42340625
30
0
0
VERTEX
8
0
10
-16.379606250000002
20
123.42960625
30
0
42
0.198912367379658
0
VERTEX
8
0
10
-16.454
20
123.25
30
0
0
VERTEX
8
0
10
-16.454
20
120.3798125
30
0
0
VERTEX
8
0
10
-21.754128125
20
115.079684375
30
0
0
VERTEX
8
0
10
-24.441628125
20
115.797528125
30
0
42
0.5147115823452458
0
VERTEX
8
0
10
-24.760559375
20
115.53447187500001
30
0
0
VERTEX
8
0
10
-24.5351
20
112.29951875
30
0
0
VERTEX
8
0
10
-24.5351
20
111.368609375
30
0
0
VERTEX
8
0
10
-26.816075
20
108.953328125
30
0
42
0.9999999999999999
0
VERTEX
8
0
10
-26.44674375
20
108.604534375
30
0
0
VERTEX
8
0
10
-24.096434375
20
111.09323125
30
0
42
0.1914922349624977
0
VERTEX
8
0
10
-24.0271
20
111.267628125
30
0
0
VERTEX
8
0
10
-24.0271
20
112.30834375
30
0
42
0.01739713092088744
0
VERTEX
8
0
10
-24.027715625000003
20
112.326003125
30
0
0
VERTEX
8
0
10
-24.229059375000002
20
115.21494062500001
30
0
0
VERTEX
8
0
10
-21.74366875
20
114.55108125000001
30
0
42
0.26773825637887966
0
VERTEX
8
0
10
-21.498515625
20
114.616871875
30
0
0
VERTEX
8
0
10
-16.02039375
20
120.09499375
30
0
42
0.198912367379658
0
VERTEX
8
0
10
-15.946000000000002
20
120.2746
30
0
0
VERTEX
8
0
10
-15.946000000000002
20
123.1447875
30
0
0
VERTEX
8
0
10
-15.1009875
20
123.9898
30
0
0
VERTEX
8
0
10
5.2709875
20
123.9898
30
0
42
0.21254710989183173
0
VERTEX
8
0
10
5.46
20
123.906
30
0
0
VERTEX
8
0
10
9.7547875
20
123.906
30
0
0
VERTEX
8
0
10
26.0318
20
107.62898750000001
30
0
0
VERTEX
8
0
10
26.0318
20
89.232090625
30
0
42
0.2210547245810812
0
VERTEX
8
0
10
25.745165625000002
20
88.862771875
30
0
0
VERTEX
8
0
10
25.5500125
20
87.70894062500001
30
0
42
0.8561225509712925
0
VERTEX
8
0
10
26.607303125
20
87.42078437500001
30
0
0
VERTEX
8
0
10
33.14483125
20
80.88325625
30
0
0
VERTEX
8
0
10
25.33309375
20
34.0525875
30
0
0
VERTEX
8
0
10
24.05893125
20
34.0525875
30
0
42
0.9228431308911045
0
VERTEX
8
0
10
24.018359375000003
20
33.547850000000004
30
0
0
VERTEX
8
0
10
24.05893125
20
33.5445875
30
0
0
VERTEX
8
0
10
25.548234375
20
33.5445875
30
0
42
0.3665915057542258
0
VERTEX
8
0
10
25.798771875
20
33.756796875
30
0
0
VERTEX
8
0
10
33.667415625000004
20
80.92863125000001
30
0
42
0.24224865911639556
0
VERTEX
8
0
10
33.596484375
20
81.150028125
30
0
0
VERTEX
8
0
10
26.726381250000003
20
88.02013125
30
0
0
VERTEX
8
0
10
26.83765
20
88.677996875
30
0
42
0.31126132025863534
0
VERTEX
8
0
10
26.5398
20
89.232528125
30
0
0
VERTEX
8
0
10
26.5398
20
107.7342
30
0
42
0.198912367379658
0
VERTEX
8
0
10
26.46540625
20
107.91380625000001
30
0
0
VERTEX
8
0
10
10.03960625
20
124.33960625
30
0
42
0.198912367379658
0
VERTEX
8
0
10
9.860000000000001
20
124.414
30
0
0
VERTEX
8
0
10
5.5652125
20
124.414
30
0
0
VERTEX
8
0
10
5.55580625
20
124.42340625
30
0
42
0.198912367379658
0
VERTEX
8
0
10
5.3762
20
124.49780000000001
30
0
0
VERTEX
8
0
10
-15.2062
20
124.49780000000001
30
0
0
SEQEND
0
POLYLINE
66
1
8
1_copper
10
0.0
20
0.0
30
0.0
70
1
0
VERTEX
8
0
10
6.27541875
20
120.62837812500001
30
0
42
0.18773578990275444
0
VERTEX
8
0
10
6.477837500000001
20
120.71678750000001
30
0
0
VERTEX
8
0
10
13.015525
20
127.254475
30
0
42
0.198912367379658
0
VERTEX
8
0
10
13.104800000000001
20
127.47000000000001
30
0
0
VERTEX
8
0
10
13.104800000000001
20
133.62085625
30
0
0
VERTEX
8
0
10
13.3604
20
133.87645625000002
30
0
0
VERTEX
8
0
10
13.3604
20
134.42354375
30
0
42
0.05381849456338157
0
VERTEX
8
0
10
13.347700000000001
20
134.49290000000002
30
0
0
VERTEX
8
0
10
13.347700000000001
20
138.519615625
30
0
42
0.20074439719569773
0
VERTEX
8
0
10
13.256903125000001
20
138.73665625
30
0
0
VERTEX
8
0
10
12.680175
20
139.30531562500002
30
0
0
VERTEX
8
0
10
13.00145
20
139.96695937500002
30
0
42
0.952078716344195
0
VERTEX
8
0
10
11.630521875000001
20
140.632640625
30
0
0
VERTEX
8
0
10
10.932137500000001
20
139.19436562500002
30
0
42
0.952078716344195
0
VERTEX
8
0
10
12.303065625
20
138.528684375
30
0
0
VERTEX
8
0
10
12.399065625
20
138.726390625
30
0
0
VERTEX
8
0
10
12.738100000000001
20
138.3921
30
0
0
VERTEX
8
0
10
12.738100000000001
20
134.81040000000002
30
0
0
VERTEX
8
0
10
12.426456250000001
20
134.81040000000002
30
0
0
VERTEX
8
0
10
12.0396
20
134.42354375
30
0
0
VERTEX
8
0
10
12.0396
20
133.87645625000002
30
0
0
VERTEX
8
0
10
12.426456250000001
20
133.4896
30
0
0
VERTEX
8
0
10
12.4952
20
133.4896
30
0
0
VERTEX
8
0
10
12.4952
20
127.59625000000001
30
0
0
VERTEX
8
0
10
6.24636875
20
121.34741875
30
0
0
VERTEX
8
0
10
5.658359375
20
121.851421875
30
0
42
0.9999999999999999
0
VERTEX
8
0
10
5.261640625
20
121.38857812500001
30
0
0
VERTEX
8
0
10
6.063953125
20
120.700890625
30
0
0
VERTEX
8
0
10
6.072671875
20
120.6944375
30
0
0
VERTEX
8
0
10
6.08090625
20
120.687375
30
0
0
VERTEX
8
0
10
6.090184375000001
20
120.68148125
30
0
0
VERTEX
8
0
10
6.099015625000001
20
120.674946875
30
0
0
VERTEX
8
0
10
6.1085593750000005
20
120.669809375
30
0
0
VERTEX
8
0
10
6.117725
20
120.6639875
30
0
0
VERTEX
8
0
10
6.127759375
20
120.659475
30
0
0
VERTEX
8
0
10
6.137425
20
120.654271875
30
0
0
VERTEX
8
0
10
6.147603125000001
20
120.65055000000001
30
0
0
VERTEX
8
0
10
6.15750625
20
120.64609687500001
30
0
0
VERTEX
8
0
10
6.16808125
20
120.6430625
30
0
0
VERTEX
8
0
10
6.1783906250000005
20
120.63929375000001
30
0
0
VERTEX
8
0
10
6.189
20
120.6370625
30
0
0
VERTEX
8
0
10
6.199434375
20
120.63406875000001
30
0
0
VERTEX
8
0
10
6.21033125
20
120.632575
30
0
0
VERTEX
8
0
10
6.221075
20
120.63031562500001
30
0
0
VERTEX
8
0
10
6.231884375
20
120.62962187500001
30
0
0
VERTEX
8
0
10
6.242646875
20
120.628146875
30
0
0
VERTEX
8
0
10
6.25365
20
120.628225
30
0
0
VERTEX
8
0
10
6.264603125000001
20
120.627521875
30
0
0
SEQEND
0
POLYLINE
66
1
8
16_copper
10
0.0
20
0.0
30
0.0
70
1
0
VERTEX
8
0
10
11.70094375
20
138.135228125
30
0
42
0.25048756980236014
0
VERTEX
8
0
10
12.303065625
20
138.528684375
30
0
0
VERTEX
8
0
10
13.00145
20
139.96695937500002
30
0
42
0.952078716344195
0
VERTEX
8
0
10
11.630521875000001
20
140.632640625
30
0
0
VERTEX
8
0
10
10.932137500000001
20
139.19436562500002
30
0
0
VERTEX
8
0
10
10.90619375
20
139.12413750000002
30
0
0
VERTEX
8
0
10
10.887259375000001
20
139.0517
30
0
0
VERTEX
8
0
10
10.875515625
20
138.977759375
30
0
0
VERTEX
8
0
10
10.871075000000001
20
138.903021875
30
0
0
VERTEX
8
0
10
10.87398125
20
138.828209375
30
0
0
VERTEX
8
0
10
10.88420625
20
138.75404062500002
30
0
0
VERTEX
8
0
10
10.901653125000001
20
138.68123125
30
0
0
VERTEX
8
0
10
10.926153125
20
138.610484375
30
0
0
VERTEX
8
0
10
10.95746875
20
138.542478125
30
0
0
VERTEX
8
0
10
10.995296875000001
20
138.47786875
30
0
0
VERTEX
8
0
10
11.039278125000001
20
138.41728125
30
0
0
VERTEX
8
0
10
11.0889875
20
138.36129375000002
30
0
0
VERTEX
8
0
10
11.14394375
20
138.310446875
30
0
0
VERTEX
8
0
10
11.20361875
20
138.265234375
30
0
0
VERTEX
8
0
10
11.2674375
20
138.2260875
30
0
0
VERTEX
8
0
10
11.334787500000001
20
138.193384375
30
0
0
VERTEX
8
0
10
11.405015625
20
138.167440625
30
0
0
VERTEX
8
0
10
11.477453125
20
138.14850625
30
0
0
VERTEX
8
0
10
11.55139375
20
138.1367625
30
0
0
VERTEX
8
0
10
11.62613125
20
138.132321875
30
0
0
SEQEND
0
POLYLINE
66
1
8
16_copper
10
0.0
20
0.0
30
0.0
70
1
0
VERTEX
8
0
10
13.3604
20
133.87645625000002
30
0
0
VERTEX
8
0
10
13.3604
20
134.42354375
30
0
0
VERTEX
8
0
10
12.973543750000001
20
134.81040000000002
30
0
0
VERTEX
8
0
10
12.426456250000001
20
134.81040000000002
30
0
0
VERTEX
8
0
10
12.0396
20
134.42354375
30
0
0
VERTEX
8
0
10
12.0396
20
133.87645625000002
30
0
0
VERTEX
8
0
10
12.426456250000001
20
133.4896
30
0
0
VERTEX
8
0
10
12.973543750000001
20
133.4896
30
0
0
SEQEND
0
POLYLINE
66
1
8
1_copper
10
0.0
20
0.0
30
0.0
70
1
0
VERTEX
8
0
10
18.967084375000002
20
132.167375
30
0
42
0.1790390709365824
0
VERTEX
8
0
10
18.80689375
20
132.09450625
30
0
0
VERTEX
8
0
10
18.118165625
20
131.405778125
30
0
0
VERTEX
8
0
10
18.05354375
20
131.4704
30
0
0
VERTEX
8
0
10
17.50645625
20
131.4704
30
0
0
VERTEX
8
0
10
17.119600000000002
20
131.08354375000002
30
0
0
VERTEX
8
0
10
17.119600000000002
20
130.53645625000001
30
0
0
VERTEX
8
0
10
17.50645625
20
130.1496
30
0
0
VERTEX
8
0
10
17.576800000000002
20
130.1496
30
0
0
VERTEX
8
0
10
17.576800000000002
20
125.91116562500001
30
0
42
0.001930875220523518
0
VERTEX
8
0
10
17.57499375
20
125.90960625000001
30
0
0
VERTEX
8
0
10
10.3793875
20
118.714
30
0
0
VERTEX
8
0
10
5.46
20
118.714
30
0
42
0.9228431308911045
0
VERTEX
8
0
10
5.4194281250000005
20
118.20926250000001
30
0
0
VERTEX
8
0
10
5.46
20
118.206
30
0
0
VERTEX
8
0
10
10.4846
20
118.206
30
0
42
0.198912367379658
0
VERTEX
8
0
10
10.664206250000001
20
118.28039375
30
0
0
VERTEX
8
0
10
17.8819625
20
125.49815000000001
30
0
42
0.10237025098843776
0
VERTEX
8
0
10
17.966121875000002
20
125.55715937500001
30
0
0
VERTEX
8
0
10
17.97505625
20
125.56847812500001
30
0
42
0.26210939486556833
0
VERTEX
8
0
10
18.0848
20
125.8062
30
0
0
VERTEX
8
0
10
18.0848
20
130.18085625
30
0
0
VERTEX
8
0
10
18.4404
20
130.53645625000001
30
0
0
VERTEX
8
0
10
18.4404
20
131.0095875
30
0
0
VERTEX
8
0
10
19.0917125
20
131.6609
30
0
0
VERTEX
8
0
10
20.6973875
20
131.6609
30
0
0
VERTEX
8
0
10
21.61829375
20
130.73999375
30
0
42
0.198912367379658
0
VERTEX
8
0
10
21.797900000000002
20
130.6656
30
0
0
VERTEX
8
0
10
25.265
20
130.6656
30
0
42
0.2611296961198336
0
VERTEX
8
0
10
25.48785625
20
130.78324375
30
0
0
VERTEX
8
0
10
25.507675000000003
20
130.76490625
30
0
42
0.4729641496275542
0
VERTEX
8
0
10
26.666796875000003
20
130.98314375
30
0
0
VERTEX
8
0
10
27.365181250000003
20
132.42141875000002
30
0
42
0.952078716344195
0
VERTEX
8
0
10
25.994253125
20
133.0871
30
0
0
VERTEX
8
0
10
25.29586875
20
131.64882500000002
30
0
42
0.13254116753486284
0
VERTEX
8
0
10
25.241484375000002
20
131.255296875
30
0
0
VERTEX
8
0
10
25.1597875
20
131.1736
30
0
0
VERTEX
8
0
10
21.903112500000002
20
131.1736
30
0
0
VERTEX
8
0
10
20.98220625
20
132.09450625
30
0
42
0.198912367379658
0
VERTEX
8
0
10
20.8026
20
132.1689
30
0
0
VERTEX
8
0
10
18.9865
20
132.1689
30
0
0
SEQEND
0
POLYLINE
66
1
8
16_copper
10
0.0
20
0.0
30
0.0
70
1
0
VERTEX
8
0
10
26.064675
20
130.5896875
30
0
42
0.25048756980236014
0
VERTEX
8
0
10
26.666796875000003
20
130.98314375
30
0
0
VERTEX
8
0
10
27.365181250000003
20
132.42141875000002
30
0
42
0.952078716344195
0
VERTEX
8
0
10
25.994253125
20
133.0871
30
0
0
VERTEX
8
0
10
25.29586875
20
131.64882500000002
30
0
0
VERTEX
8
0
10
25.269925
20
131.57859687500002
30
0
0
VERTEX
8
0
10
25.250990625
20
131.506159375
30
0
0
VERTEX
8
0
10
25.239246875000003
20
131.43221875
30
0
0
VERTEX
8
0
10
25.234806250000002
20
131.35748125
30
0
0
VERTEX
8
0
10
25.2377125
20
131.28266875
30
0
0
VERTEX
8
0
10
25.247937500000003
20
131.20850000000002
30
0
0
VERTEX
8
0
10
25.265384375
20
131.135690625
30
0
0
VERTEX
8
0
10
25.289884375
20
131.06494375
30
0
0
VERTEX
8
0
10
25.3212
20
130.9969375
30
0
0
VERTEX
8
0
10
25.359028125000002
20
130.932328125
30
0
0
VERTEX
8
0
10
25.403009375
20
130.871740625
30
0
0
VERTEX
8
0
10
25.452718750000003
20
130.81575312500001
30
0
0
VERTEX
8
0
10
25.507675000000003
20
130.76490625
30
0
0
VERTEX
8
0
10
25.56735
20
130.71969375
30
0
0
VERTEX
8
0
10
25.63116875
20
130.680546875
30
0
0
VERTEX
8
0
10
25.69851875
20
130.64784375
30
0
0
VERTEX
8
0
10
25.768746875
20
130.6219
30
0
0
VERTEX
8
0
10
25.841184375
20
130.602965625
30
0
0
VERTEX
8
0
10
25.915125
20
130.591221875
30
0
0
VERTEX
8
0
10
25.9898625
20
130.58678125
30
0
0
SEQEND
0
POLYLINE
66
1
8
16_copper
10
0.0
20
0.0
30
0.0
70
1
0
VERTEX
8
0
10
18.4404
20
130.53645625000001
30
0
0
VERTEX
8
0
10
18.4404
20
131.08354375000002
30
0
0
VERTEX
8
0
10
18.05354375
20
131.4704
30
0
0
VERTEX
8
0
10
17.50645625
20
131.4704
30
0
0
VERTEX
8
0
10
17.119600000000002
20
131.08354375000002
30
0
0
VERTEX
8
0
10
17.119600000000002
20
130.53645625000001
30
0
0
VERTEX
8
0
10
17.50645625
20
130.1496
30
0
0
VERTEX
8
0
10
18.05354375
20
130.1496
30
0
0
SEQEND
0
POLYLINE
66
1
8
1_copper
10
0.0
20
0.0
30
0.0
70
1
0
VERTEX
8
0
10
19.328678125
20
83.572953125
30
0
42
0.41472846500671784
0
VERTEX
8
0
10
19.5166
20
83.87945625
30
0
0
VERTEX
8
0
10
19.34638125
20
84.586453125
30
0
42
0.9999999999999999
0
VERTEX
8
0
10
18.85249375
20
84.467540625
30
0
0
VERTEX
8
0
10
19.0227125
20
83.76054375000001
30
0
0
VERTEX
8
0
10
19.0350375
20
83.7226875
30
0
0
VERTEX
8
0
10
19.053125
20
83.687221875
30
0
0
VERTEX
8
0
10
19.076534375
20
83.655015625
30
0
0
VERTEX
8
0
10
19.104684375
20
83.62686562500001
30
0
0
VERTEX
8
0
10
19.136890625
20
83.603459375
30
0
0
VERTEX
8
0
10
19.172359375
20
83.585375
30
0
0
VERTEX
8
0
10
19.21021875
20
83.573053125
30
0
0
VERTEX
8
0
10
19.249537500000002
20
83.56679687500001
30
0
0
VERTEX
8
0
10
19.289350000000002
20
83.566765625
30
0
0
SEQEND
0
POLYLINE
66
1
8
16_copper
10
0.0
20
0.0
30
0.0
70
1
0
VERTEX
8
0
10
17.718853125000003
20
82.874521875
30
0
42
0.1790390709365824
0
VERTEX
8
0
10
17.87904375
20
82.947390625
30
0
0
VERTEX
8
0
10
19.27904375
20
84.347390625
30
0
42
0.9999999999999999
0
VERTEX
8
0
10
18.91983125
20
84.706603125
30
0
0
VERTEX
8
0
10
17.594225
20
83.38099687500001
30
0
0
VERTEX
8
0
10
15.935515625
20
83.38099687500001
30
0
0
VERTEX
8
0
10
6.515806250000001
20
92.80070625
30
0
42
0.198912367379658
0
VERTEX
8
0
10
6.336200000000001
20
92.8751
30
0
0
VERTEX
8
0
10
-0.305821875
20
92.8751
30
0
0
VERTEX
8
0
10
-0.7927406250000001
20
93.301153125
30
0
42
0.9999999999999999
0
VERTEX
8
0
10
-1.127259375
20
92.918846875
30
0
0
VERTEX
8
0
10
-0.5685156250000001
20
92.429946875
30
0
42
0.18166765838799231
0
VERTEX
8
0
10
-0.40125625000000004
20
92.36710000000001
30
0
0
VERTEX
8
0
10
6.2309875
20
92.36710000000001
30
0
0
VERTEX
8
0
10
15.650696875000001
20
82.947390625
30
0
42
0.198912367379658
0
VERTEX
8
0
10
15.830303125
20
82.872996875
30
0
0
VERTEX
8
0
10
17.699437500000002
20
82.872996875
30
0
0
SEQEND
0
POLYLINE
66
1
8
16_copper
10
0.0
20
0.0
30
0.0
70
1
0
VERTEX
8
0
10
21.654409375
20
83.922615625
30
0
42
0.9141600374658877
0
VERTEX
8
0
10
21.6203875
20
84.427040625
30
0
0
VERTEX
8
0
10
18.862818750000002
20
87.18460937500001
30
0
42
0.198912367379658
0
VERTEX
8
0
10
18.6832125
20
87.259003125
30
0
0
VERTEX
8
0
10
16.734009375
20
87.259003125
30
0
0
VERTEX
8
0
10
8.71580625
20
95.27720625
30
0
42
0.198912367379658
0
VERTEX
8
0
10
8.536200000000001
20
95.3516
30
0
0
VERTEX
8
0
10
-0.30238750000000003
20
95.3516
30
0
0
VERTEX
8
0
10
-0.78039375
20
95.82960625
30
0
42
0.9999999999999999
0
VERTEX
8
0
10
-1.1396062500000002
20
95.47039375
30
0
0
VERTEX
8
0
10
-0.58720625
20
94.91799375000001
30
0
42
0.198912367379658
0
VERTEX
8
0
10
-0.4076
20
94.84360000000001
30
0
0
VERTEX
8
0
10
8.4309875
20
94.84360000000001
30
0
0
VERTEX
8
0
10
16.449190625
20
86.82539687500001
30
0
42
0.198912367379658
0
VERTEX
8
0
10
16.628796875
20
86.75100312500001
30
0
0
VERTEX
8
0
10
18.578
20
86.75100312500001
30
0
0
VERTEX
8
0
10
21.3351125
20
83.993890625
30
0
42
0.15820544126615552
0
VERTEX
8
0
10
21.474809375
20
83.92265312500001
30
0
0
VERTEX
8
0
10
21.514496875000003
20
83.91949687500001
30
0
0
VERTEX
8
0
10
21.514609375000003
20
83.91950625
30
0
0
VERTEX
8
0
10
21.51471875
20
83.91949687500001
30
0
0
VERTEX
8
0
10
21.61471875
20
83.91949687500001
30
0
0
SEQEND
0
POLYLINE
66
1
8
1_copper
10
0.0
20
0.0
30
0.0
70
1
0
VERTEX
8
0
10
-16.252746875
20
112.84064375000001
30
0
42
0.3413839438626789
0
VERTEX
8
0
10
-16.01823125
20
113.0436875
30
0
0
VERTEX
8
0
10
-15.95093125
20
113.3801875
30
0
42
0.9999999999999999
0
VERTEX
8
0
10
-16.449068750000002
20
113.47981250000001
30
0
0
VERTEX
8
0
10
-16.47553125
20
113.34750000000001
30
0
0
VERTEX
8
0
10
-23.9993875
20
113.34750000000001
30
0
0
VERTEX
8
0
10
-25.5821875
20
114.9303
30
0
42
0.12667898300249672
0
VERTEX
8
0
10
-25.691265625
20
114.99470625000001
30
0
0
VERTEX
8
0
10
-26.938059375
20
115.355078125
30
0
42
0.9999999999999999
0
VERTEX
8
0
10
-27.079115625
20
114.86705312500001
30
0
0
VERTEX
8
0
10
-25.895156250000003
20
114.52484375
30
0
0
VERTEX
8
0
10
-24.28420625
20
112.91389375
30
0
42
0.198912367379658
0
VERTEX
8
0
10
-24.1046
20
112.8395
30
0
0
VERTEX
8
0
10
-16.267300000000002
20
112.8395
30
0
0
SEQEND
0
POLYLINE
66
1
8
1_copper
10
0.0
20
0.0
30
0.0
70
1
0
VERTEX
8
0
10
-16.386628125
20
107.72145312500001
30
0
42
0.2833628828683057
0
VERTEX
8
0
10
-16.160115625
20
107.86180625
30
0
0
VERTEX
8
0
10
-15.972815625
20
108.23640625
30
0
42
0.9999999999999999
0
VERTEX
8
0
10
-16.427184375
20
108.46359375
30
0
0
VERTEX
8
0
10
-16.54428125
20
108.2294
30
0
0
VERTEX
8
0
10
-22.8436875
20
108.2294
30
0
0
VERTEX
8
0
10
-23.878453125
20
109.264165625
30
0
0
VERTEX
8
0
10
-23.885771875
20
109.28977812500001
30
0
0
VERTEX
8
0
10
-23.899678125
20
109.327084375
30
0
42
0.8527183400297569
0
VERTEX
8
0
10
-24.382237500000002
20
109.19012500000001
30
0
0
VERTEX
8
0
10
-24.374228125000002
20
109.150221875
30
0
42
0.21737986995643585
0
VERTEX
8
0
10
-24.28420625
20
108.95149375000001
30
0
0
VERTEX
8
0
10
-23.12850625
20
107.79579375
30
0
42
0.198912367379658
0
VERTEX
8
0
10
-22.948900000000002
20
107.7214
30
0
0
VERTEX
8
0
10
-16.3873
20
107.7214
30
0
0
SEQEND
0
POLYLINE
66
1
8
1_copper
10
0.0
20
0.0
30
0.0
70
1
0
VERTEX
8
0
10
-21.812615625
20
105.586275
30
0
42
0.1790390709365824
0
VERTEX
8
0
10
-21.97280625
20
105.51340625
30
0
0
VERTEX
8
0
10
-24.28420625
20
103.20200625000001
30
0
42
0.15631826857207345
0
VERTEX
8
0
10
-24.35514375
20
103.06415625000001
30
0
0
VERTEX
8
0
10
-24.38054375
20
102.91175625000001
30
0
42
0.9999999999999999
0
VERTEX
8
0
10
-23.87945625
20
102.82824375
30
0
0
VERTEX
8
0
10
-23.8674375
20
102.90035
30
0
0
VERTEX
8
0
10
-21.687987500000002
20
105.0798
30
0
0
VERTEX
8
0
10
-16.279365625
20
105.0798
30
0
42
0.3666305119545748
0
VERTEX
8
0
10
-16.028821875000002
20
105.29204375
30
0
0
VERTEX
8
0
10
-15.94945625
20
105.76824375000001
30
0
42
0.9999999999999999
0
VERTEX
8
0
10
-16.45054375
20
105.85175625000001
30
0
0
VERTEX
8
0
10
-16.494534375
20
105.5878
30
0
0
VERTEX
8
0
10
-21.793200000000002
20
105.5878
30
0
0
SEQEND
0
POLYLINE
66
1
8
1_copper
10
0.0
20
0.0
30
0.0
70
1
0
VERTEX
8
0
10
24.53946875
20
36.049084375
30
0
42
0.6131650723114669
0
VERTEX
8
0
10
24.679606250000003
20
36.47960625
30
0
0
VERTEX
8
0
10
14.454
20
46.7052125
30
0
0
VERTEX
8
0
10
14.454
20
67.0407
30
0
42
0.198912367379658
0
VERTEX
8
0
10
14.37960625
20
67.22030625000001
30
0
0
VERTEX
8
0
10
-4.5252
20
86.1251125
30
0
0
VERTEX
8
0
10
-4.5252
20
102.14738750000001
30
0
0
VERTEX
8
0
10
-1.0966500000000001
20
105.57593750000001
30
0
0
VERTEX
8
0
10
-1.00510625
20
105.48439375000001
30
0
42
0.9797180702114199
0
VERTEX
8
0
10
-0.6386875000000001
20
105.83609687500001
30
0
0
VERTEX
8
0
10
-0.7731875
20
105.98209687500001
30
0
42
0.0721444394367069
0
VERTEX
8
0
10
-0.8300000000000001
20
106.0277125
30
0
0
VERTEX
8
0
10
-0.91704375
20
106.11475625
30
0
42
0.41421356237309503
0
VERTEX
8
0
10
-1.27625625
20
106.11475625
30
0
0
VERTEX
8
0
10
-4.95880625
20
102.43220625000001
30
0
42
0.198912367379658
0
VERTEX
8
0
10
-5.0332
20
102.2526
30
0
0
VERTEX
8
0
10
-5.0332
20
86.0199
30
0
42
0.198912367379658
0
VERTEX
8
0
10
-4.95880625
20
85.84029375
30
0
0
VERTEX
8
0
10
13.946000000000002
20
66.93548750000001
30
0
0
VERTEX
8
0
10
13.946000000000002
20
46.6
30
0
42
0.198912367379658
0
VERTEX
8
0
10
14.02039375
20
46.42039375
30
0
0
VERTEX
8
0
10
24.32039375
20
36.120393750000005
30
0
0
VERTEX
8
0
10
24.350665625
20
36.094534375
30
0
0
VERTEX
8
0
10
24.38460625
20
36.073725
30
0
0
VERTEX
8
0
10
24.42138125
20
36.058471875
30
0
0
VERTEX
8
0
10
24.460090625
20
36.04915625
30
0
0
VERTEX
8
0
10
24.499778125000002
20
36.046
30
0
0
SEQEND
0
CIRCLE
8
drills_NPTH
10
-22.1
20
13.600000000000001
30
0
40
2.5
0
CIRCLE
8
drills_NPTH
10
22
20
13.600000000000001
30
0
40
2.5
0
CIRCLE
8
drills_NPTH
10
-20.1
20
142.3
30
0
40
2.5
0
CIRCLE
8
drills_NPTH
10
20.1
20
142.3
30
0
40
2.5
0
CIRCLE
8
drills_NPTH
10
-0.1
20
152
30
0
40
2
0
CIRCLE
8
drills_NPTH
10
-41
20
133.9
30
0
40
1.5
0
CIRCLE
8
drills_NPTH
10
40.9
20
134.20000000000002
30
0
40
1.5
0
CIRCLE
8
drills_PTH
10
-28.3121875
20
126.54688750000001
30
0
40
1
0
CIRCLE
8
drills_PTH
10
-35.2353
20
125.51222187500001
30
0
40
1
0
CIRCLE
8
drills_PTH
10
-23.877906250000002
20
96.8764125
30
0
40
1
0
CIRCLE
8
drills_PTH
10
-30.801015625
20
95.841746875
30
0
40
1
0
CIRCLE
8
drills_PTH
10
7.493
20
15.24
30
0
40
0.6604
0
CIRCLE
8
drills_PTH
10
-7.493
20
15.24
30
0
40
0.6604
0
CIRCLE
8
drills_PTH
10
0.756
20
39.571000000000005
30
0
40
0.635
0
CIRCLE
8
drills_PTH
10
3.2960000000000003
20
39.571000000000005
30
0
40
0.635
0
CIRCLE
8
drills_PTH
10
8.376000000000001
20
39.571000000000005
30
0
40
0.635
0
CIRCLE
8
drills_PTH
10
10.916
20
39.571000000000005
30
0
40
0.635
0
CIRCLE
8
drills_PTH
10
-9.404
20
39.571000000000005
30
0
40
0.635
0
CIRCLE
8
drills_PTH
10
5.836
20
39.571000000000005
30
0
40
0.635
0
CIRCLE
8
drills_PTH
10
-6.864000000000001
20
39.571000000000005
30
0
40
0.635
0
CIRCLE
8
drills_PTH
10
-4.324
20
39.571000000000005
30
0
40
0.635
0
CIRCLE
8
drills_PTH
10
-1.784
20
39.571000000000005
30
0
40
0.635
0
CIRCLE
8
drills_PTH
10
-17.19770625
20
136.15881562500002
30
0
40
0.5715
0
CIRCLE
8
drills_PTH
10
-19.711071875000002
20
134.93839375000002
30
0
40
0.5715
0
CIRCLE
8
drills_PTH
10
28.615403125
20
130.92564375
30
0
40
0.508
0
CIRCLE
8
drills_PTH
10
-29.51
20
114.67
30
0
40
0.508
0
CIRCLE
8
drills_PTH
10
19.0994375
20
84.52699687500001
30
0
40
0.508
0
CIRCLE
8
drills_PTH
10
-27.0085875
20
115.11106562500001
30
0
40
0.508
0
CIRCLE
8
drills_PTH
10
-24.507175
20
115.55213125
30
0
40
0.508
0
CIRCLE
8
drills_PTH
10
-24.130000000000003
20
109.22
30
0
40
0.508
0
CIRCLE
8
drills_PTH
10
22.818728125
20
23.31265625
30
0
40
0.508
0
CIRCLE
8
drills_PTH
10
26.330525
20
132.03512187500002
30
0
40
0.508
0
CIRCLE
8
drills_PTH
10
24.045646875000003
20
133.14459687500002
30
0
40
0.508
0
CIRCLE
8
drills_PTH
10
22.421384375000002
20
20.803925
30
0
40
0.508
0
CIRCLE
8
drills_PTH
10
-26.631409375
20
108.77893125
30
0
40
0.508
0
CIRCLE
8
drills_PTH
10
23.216071875
20
25.821384375
30
0
40
0.508
0
CIRCLE
8
drills_PTH
10
-24.130000000000003
20
102.87
30
0
40
0.508
0
CIRCLE
8
drills_PTH
10
-26.631409375
20
102.42893125
30
0
40
0.508
0
CIRCLE
8
drills_PTH
10
7.397037500000001
20
141.799615625
30
0
40
0.508
0
CIRCLE
8
drills_PTH
10
9.681915625
20
140.69013750000002
30
0
40
0.508
0
CIRCLE
8
drills_PTH
10
11.96679375
20
139.58066250000002
30
0
40
0.508
0
CIRCLE
8
drills_PTH
10
5.46
20
121.62
30
0
40
0.508
0
CIRCLE
8
drills_PTH
10
-29.132821875
20
101.98786562500001
30
0
40
0.508
0
CIRCLE
8
drills_PTH
10
24.5
20
36.300000000000004
30
0
40
0.508
0
CIRCLE
8
drills_PTH
10
5.46
20
124.16000000000001
30
0
40
0.508
0
CIRCLE
8
drills_PTH
10
24.05893125
20
33.798587500000004
30
0
40
0.508
0
CIRCLE
8
drills_PTH
10
23.617865625
20
31.297175000000003
30
0
40
0.508
0
CIRCLE
8
drills_PTH
10
-29.132821875
20
108.337865625
30
0
40
0.508
0
CIRCLE
8
drills_PTH
10
-6.3500000000000005
20
106.68
30
0
40
0.508
0
CIRCLE
8
drills_PTH
10
-3.81
20
106.68
30
0
40
0.508
0
CIRCLE
8
drills_PTH
10
5.46
20
118.46000000000001
30
0
40
0.508
0
CIRCLE
8
drills_PTH
10
5.46
20
115.92
30
0
40
0.508
0
CIRCLE
8
drills_PTH
10
-11.982578125
20
139.00334375
30
0
40
0.508
0
CIRCLE
8
drills_PTH
10
-9.697700000000001
20
140.112821875
30
0
40
0.508
0
CIRCLE
8
drills_PTH
10
-7.412825000000001
20
141.222296875
30
0
40
0.508
0
CIRCLE
8
drills_PTH
10
24.130000000000003
20
83.82000000000001
30
0
40
0.508
0
CIRCLE
8
drills_PTH
10
21.61471875
20
84.173496875
30
0
40
0.508
0
CIRCLE
8
drills_PTH
10
16.58415625
20
84.880496875
30
0
40
0.508
0
CIRCLE
8
drills_PTH
10
-16.574153125000002
20
79.61426875000001
30
0
40
0.5
0
CIRCLE
8
drills_PTH
10
-19.089434375
20
79.26076875
30
0
40
0.5
0
CIRCLE
8
drills_PTH
10
-21.604715625
20
78.90726875
30
0
40
0.5
0
CIRCLE
8
drills_PTH
10
-24.119996875000002
20
78.55376875
30
0
40
0.5
0
CIRCLE
8
drills_PTH
10
-16.655718750000002
20
43.693334375
30
0
40
0.5
0
CIRCLE
8
drills_PTH
10
-26.635275
20
78.20026875
30
0
40
0.5
0
CIRCLE
8
drills_PTH
10
-19.171
20
43.339834375
30
0
40
0.5
0
CIRCLE
8
drills_PTH
10
-11.62515625
20
44.400334375
30
0
40
0.5
0
CIRCLE
8
drills_PTH
10
-14.058871875000001
20
79.967765625
30
0
40
0.5
0
CIRCLE
8
drills_PTH
10
-5.1930000000000005
20
33.849000000000004
30
0
40
0.5
0
CIRCLE
8
drills_PTH
10
2.427
20
33.849000000000004
30
0
40
0.5
0
CIRCLE
8
drills_PTH
10
-2.653
20
33.849000000000004
30
0
40
0.5
0
CIRCLE
8
drills_PTH
10
-0.113
20
33.849000000000004
30
0
40
0.5
0
CIRCLE
8
drills_PTH
10
-14.1404375
20
44.046834375
30
0
40
0.5
0
CIRCLE
8
drills_PTH
10
-13.66
20
88.03
30
0
40
0.48260000000000003
0
CIRCLE
8
drills_PTH
10
-16.2
20
90.57000000000001
30
0
40
0.48260000000000003
0
CIRCLE
8
drills_PTH
10
-16.2
20
93.11
30
0
40
0.48260000000000003
0
CIRCLE
8
drills_PTH
10
-16.2
20
95.65
30
0
40
0.48260000000000003
0
CIRCLE
8
drills_PTH
10
-16.2
20
98.19
30
0
40
0.48260000000000003
0
CIRCLE
8
drills_PTH
10
-16.2
20
103.27000000000001
30
0
40
0.48260000000000003
0
CIRCLE
8
drills_PTH
10
-16.2
20
105.81
30
0
40
0.48260000000000003
0
CIRCLE
8
drills_PTH
10
-16.2
20
108.35000000000001
30
0
40
0.48260000000000003
0
CIRCLE
8
drills_PTH
10
-16.2
20
110.89
30
0
40
0.48260000000000003
0
CIRCLE
8
drills_PTH
10
-16.2
20
113.43
30
0
40
0.48260000000000003
0
CIRCLE
8
drills_PTH
10
-16.2
20
115.97
30
0
40
0.48260000000000003
0
CIRCLE
8
drills_PTH
10
-16.2
20
118.51
30
0
40
0.48260000000000003
0
CIRCLE
8
drills_PTH
10
-0.9600000000000001
20
121.05000000000001
30
0
40
0.48260000000000003
0
CIRCLE
8
drills_PTH
10
-0.9600000000000001
20
118.51
30
0
40
0.48260000000000003
0
CIRCLE
8
drills_PTH
10
-0.9600000000000001
20
115.97
30
0
40
0.48260000000000003
0
CIRCLE
8
drills_PTH
10
-16.2
20
88.03
30
0
40
0.48260000000000003
0
CIRCLE
8
drills_PTH
10
-0.9600000000000001
20
110.89
30
0
40
0.48260000000000003
0
CIRCLE
8
drills_PTH
10
-0.9600000000000001
20
108.35000000000001
30
0
40
0.48260000000000003
0
CIRCLE
8
drills_PTH
10
-0.9600000000000001
20
105.81
30
0
40
0.48260000000000003
0
CIRCLE
8
drills_PTH
10
-16.2
20
100.73
30
0
40
0.48260000000000003
0
CIRCLE
8
drills_PTH
10
-0.9600000000000001
20
103.27000000000001
30
0
40
0.48260000000000003
0
CIRCLE
8
drills_PTH
10
-0.9600000000000001
20
100.73
30
0
40
0.48260000000000003
0
CIRCLE
8
drills_PTH
10
-0.9600000000000001
20
98.19
30
0
40
0.48260000000000003
0
CIRCLE
8
drills_PTH
10
-0.9600000000000001
20
95.65
30
0
40
0.48260000000000003
0
CIRCLE
8
drills_PTH
10
-0.9600000000000001
20
113.43
30
0
40
0.48260000000000003
0
CIRCLE
8
drills_PTH
10
-0.9600000000000001
20
93.11
30
0
40
0.48260000000000003
0
CIRCLE
8
drills_PTH
10
-0.9600000000000001
20
90.57000000000001
30
0
40
0.48260000000000003
0
CIRCLE
8
drills_PTH
10
-0.9600000000000001
20
88.03
30
0
40
0.48260000000000003
0
CIRCLE
8
drills_PTH
10
-3.5
20
88.03
30
0
40
0.48260000000000003
0
CIRCLE
8
drills_PTH
10
-16.2
20
121.05000000000001
30
0
40
0.48260000000000003
0
CIRCLE
8
drills_PTH
10
-6.04
20
88.03
30
0
40
0.48260000000000003
0
CIRCLE
8
drills_PTH
10
-8.58
20
88.03
30
0
40
0.48260000000000003
0
CIRCLE
8
drills_PTH
10
-11.120000000000001
20
88.03
30
0
40
0.48260000000000003
0
CIRCLE
8
drills_PTH
10
9.82
20
55.28
30
0
40
0.4572
0
CIRCLE
8
drills_PTH
10
9.82
20
67.98
30
0
40
0.4572
0
CIRCLE
8
drills_PTH
10
9.82
20
65.44
30
0
40
0.4572
0
CIRCLE
8
drills_PTH
10
9.82
20
62.900000000000006
30
0
40
0.4572
0
CIRCLE
8
drills_PTH
10
9.82
20
57.82
30
0
40
0.4572
0
CIRCLE
8
drills_PTH
10
9.82
20
60.36
30
0
40
0.4572
0
CIRCLE
8
drills_PTH
10
1.27
20
128.27
30
0
40
0.40640000000000004
0
CIRCLE
8
drills_PTH
10
12.700000000000001
20
134.15
30
0
40
0.40640000000000004
0
CIRCLE
8
drills_PTH
10
10.16
20
134.15
30
0
40
0.40640000000000004
0
CIRCLE
8
drills_PTH
10
10.26
20
127.47000000000001
30
0
40
0.40640000000000004
0
CIRCLE
8
drills_PTH
10
12.8
20
127.47000000000001
30
0
40
0.40640000000000004
0
CIRCLE
8
drills_PTH
10
17.78
20
130.81
30
0
40
0.40640000000000004
0
CIRCLE
8
drills_PTH
10
20.32
20
130.81
30
0
40
0.40640000000000004
0
CIRCLE
8
drills_PTH
10
-3.81
20
118.51
30
0
40
0.40640000000000004
0
CIRCLE
8
drills_PTH
10
-3.81
20
110.89
30
0
40
0.40640000000000004
0
CIRCLE
8
drills_PTH
10
-14.05
20
30.37
30
0
40
0.40640000000000004
0
CIRCLE
8
drills_PTH
10
-14.05
20
37.99
30
0
40
0.40640000000000004
0
CIRCLE
8
drills_PTH
10
-0.64
20
134.62
30
0
40
0.40640000000000004
0
CIRCLE
8
drills_PTH
10
-8.26
20
134.62
30
0
40
0.40640000000000004
0
CIRCLE
8
drills_PTH
10
-6.3500000000000005
20
110.89
30
0
40
0.40640000000000004
0
CIRCLE
8
drills_PTH
10
-6.3500000000000005
20
118.51
30
0
40
0.40640000000000004
0
CIRCLE
8
drills_PTH
10
-8.32
20
129.54
30
0
40
0.40640000000000004
0
CIRCLE
8
drills_PTH
10
-10.860000000000001
20
129.54
30
0
40
0.40640000000000004
0
CIRCLE
8
drills_PTH
10
3.81
20
128.27
30
0
40
0.40640000000000004
0
CIRCLE
8
drills_PTH
10
1.27
20
134.62
30
0
40
0.40640000000000004
0
CIRCLE
8
drills_PTH
10
3.81
20
134.62
30
0
40
0.40640000000000004
0
CIRCLE
8
drills_PTH
10
20.32
20
125.73
30
0
40
0.40640000000000004
0
CIRCLE
8
drills_PTH
10
17.78
20
125.73
30
0
40
0.40640000000000004
0
CIRCLE
8
drills_PTH
10
15.451609375
20
114.80433437500001
30
0
40
0.4
0
CIRCLE
8
drills_PTH
10
-6.33
20
63.6
30
0
40
0.4
0
CIRCLE
8
drills_PTH
10
-6.33
20
61.06
30
0
40
0.4
0
CIRCLE
8
drills_PTH
10
-6.33
20
66.14
30
0
40
0.4
0
CIRCLE
8
drills_PTH
10
-6.33
20
68.68
30
0
40
0.4
0
CIRCLE
8
drills_PTH
10
-6.33
20
71.22
30
0
40
0.4
0
CIRCLE
8
drills_PTH
10
-6.33
20
58.52
30
0
40
0.4
0
CIRCLE
8
drills_PTH
10
-6.33
20
55.980000000000004
30
0
40
0.4
0
CIRCLE
8
drills_PTH
10
-6.33
20
53.440000000000005
30
0
40
0.4
0
CIRCLE
8
drills_PTH
10
13.224837500000001
20
98.960046875
30
0
40
0.4
0
CIRCLE
8
drills_PTH
10
13.503184375
20
100.94058125000001
30
0
40
0.4
0
CIRCLE
8
drills_PTH
10
13.78153125
20
102.92111875
30
0
40
0.4
0
CIRCLE
8
drills_PTH
10
14.059878125000001
20
104.90165312500001
30
0
40
0.4
0
CIRCLE
8
drills_PTH
10
14.338225000000001
20
106.882190625
30
0
40
0.4
0
CIRCLE
8
drills_PTH
10
35.567428125
20
99.85930937500001
30
0
40
0.4
0
CIRCLE
8
drills_PTH
10
14.61656875
20
108.862728125
30
0
40
0.4
0
CIRCLE
8
drills_PTH
10
14.894915625000001
20
110.84326250000001
30
0
40
0.4
0
CIRCLE
8
drills_PTH
10
15.1732625
20
112.8238
30
0
40
0.4
0
CIRCLE
8
drills_PTH
10
15.729953125000002
20
116.78487187500001
30
0
40
0.4
0
CIRCLE
8
drills_PTH
10
37.515853125
20
113.72306250000001
30
0
40
0.4
0
CIRCLE
8
drills_PTH
10
37.23750625
20
111.742528125
30
0
40
0.4
0
CIRCLE
8
drills_PTH
10
36.959159375
20
109.76199062500001
30
0
40
0.4
0
CIRCLE
8
drills_PTH
10
36.6808125
20
107.78145625
30
0
40
0.4
0
CIRCLE
8
drills_PTH
10
36.402465625000005
20
105.80091875000001
30
0
40
0.4
0
CIRCLE
8
drills_PTH
10
36.124121875
20
103.82038125000001
30
0
40
0.4
0
CIRCLE
8
drills_PTH
10
35.845775
20
101.839846875
30
0
40
0.4
0
CIRCLE
8
drills_PTH
10
35.28908125
20
97.878775
30
0
40
0.4
0
CIRCLE
8
drills_PTH
10
35.010737500000005
20
95.89823750000001
30
0
40
0.4
0
CIRCLE
8
drills_PTH
10
28.698262500000002
20
87.769875
30
0
40
0.3
0
CIRCLE
8
drills_PTH
10
21.184971875000002
20
89.040653125
30
0
40
0.3
0
CIRCLE
8
drills_PTH
10
23.689400000000003
20
88.6170625
30
0
40
0.3
0
CIRCLE
8
drills_PTH
10
18.680540625000003
20
89.464246875
30
0
40
0.3
0
CIRCLE
8
drills_PTH
10
26.193831250000002
20
88.19346875000001
30
0
40
0.3
0
CIRCLE
8
drills_PTH
10
16.176112500000002
20
89.88784062500001
30
0
40
0.3
0
CIRCLE
8
drills_via_1_16
10
-17.995900000000002
20
44.577000000000005
30
0
40
0.17500000000000002
0
CIRCLE
8
drills_via_1_16
10
-14.9
20
85.2
30
0
40
0.17500000000000002
0
ENDSEC
0
EOF